<?xml version="1.0" encoding="UTF-8"?>
<svg xmlns="http://www.w3.org/2000/svg" xmlns:xlink="http://www.w3.org/1999/xlink" width="145px" height="36px" viewBox="0 0 145 36" version="1.1">
<g id="surface1">
<path style=" stroke:none;fill-rule:evenodd;fill:rgb(15.294118%,23.137255%,35.686275%);fill-opacity:1;" d="M 84.679688 6.21875 C 84.242188 6.261719 83.609375 6.328125 83.273438 6.371094 C 82.9375 6.414062 82.570312 6.449219 82.453125 6.449219 C 82.339844 6.449219 81.929688 6.5 81.542969 6.5625 C 81.15625 6.625 80.648438 6.703125 80.417969 6.730469 C 80.003906 6.78125 78.300781 7.207031 78.300781 7.261719 C 78.300781 7.277344 78.148438 7.347656 77.960938 7.417969 C 77.390625 7.636719 77.199219 7.964844 77.40625 8.359375 C 77.605469 8.738281 78.449219 9.457031 78.796875 9.550781 C 78.921875 9.585938 79.023438 9.65625 79.023438 9.714844 C 79.019531 9.835938 78.816406 9.925781 78.675781 9.871094 C 78.621094 9.851562 78.273438 9.800781 77.902344 9.761719 C 77.527344 9.722656 77.117188 9.667969 76.988281 9.640625 C 76.859375 9.609375 76.378906 9.570312 75.921875 9.550781 C 75.464844 9.53125 74.695312 9.484375 74.210938 9.445312 C 70.804688 9.183594 66.390625 9.601562 64.707031 10.339844 C 63.566406 10.839844 63.015625 11.71875 63.636719 12.046875 C 64.113281 12.300781 64.199219 12.296875 65.304688 11.988281 C 65.855469 11.835938 66.539062 11.667969 66.828125 11.617188 C 67.117188 11.566406 67.449219 11.5 67.570312 11.46875 C 68.316406 11.277344 70.253906 11.007812 71.558594 10.910156 C 72.035156 10.875 72.8125 10.816406 73.285156 10.777344 C 74.234375 10.695312 75.429688 10.683594 76.558594 10.742188 C 77.46875 10.789062 77.4375 10.84375 76.460938 10.914062 C 76.0625 10.941406 75.644531 10.980469 75.53125 11.003906 C 75.296875 11.042969 74.902344 11.085938 73.84375 11.1875 C 70.757812 11.476562 67.691406 12.804688 70.550781 12.617188 C 71.320312 12.566406 71.382812 12.597656 71.503906 13.101562 C 71.625 13.625 71.820312 13.9375 72.109375 14.074219 C 72.222656 14.128906 72.429688 14.257812 72.570312 14.363281 C 73.113281 14.773438 73.792969 14.660156 74.371094 14.074219 C 74.460938 13.980469 74.660156 13.839844 74.8125 13.757812 C 74.960938 13.679688 75.226562 13.511719 75.398438 13.390625 C 75.574219 13.265625 75.800781 13.140625 75.90625 13.109375 C 76.007812 13.082031 76.195312 12.984375 76.320312 12.894531 C 76.441406 12.808594 76.695312 12.679688 76.878906 12.609375 C 77.0625 12.542969 77.375 12.421875 77.574219 12.34375 C 78.007812 12.171875 79.300781 11.859375 80.664062 11.597656 C 82.101562 11.324219 82.460938 11.375 85.460938 12.273438 C 85.75 12.359375 86.214844 12.496094 86.492188 12.574219 C 86.773438 12.65625 87 12.730469 87 12.742188 C 87 12.753906 87.226562 12.835938 87.507812 12.929688 C 87.785156 13.023438 88.015625 13.113281 88.015625 13.128906 C 88.015625 13.144531 88.109375 13.179688 88.222656 13.210938 C 88.335938 13.242188 88.660156 13.363281 88.945312 13.484375 C 89.230469 13.605469 89.699219 13.800781 89.988281 13.921875 C 90.953125 14.324219 91.597656 14.625 91.863281 14.800781 C 92.007812 14.898438 92.238281 15.015625 92.375 15.0625 C 92.511719 15.109375 92.738281 15.25 92.878906 15.375 C 93.019531 15.5 93.191406 15.621094 93.261719 15.640625 C 93.433594 15.695312 94.398438 16.34375 94.53125 16.492188 C 94.589844 16.558594 94.710938 16.667969 94.804688 16.734375 C 95.335938 17.128906 95.699219 17.457031 95.699219 17.550781 C 95.699219 17.679688 96.054688 18.164062 96.273438 18.339844 C 96.46875 18.496094 96.46875 18.777344 96.269531 18.867188 C 95.835938 19.0625 92.339844 19.109375 89.753906 18.953125 C 88.996094 18.910156 88.136719 18.859375 87.839844 18.847656 C 87.140625 18.820312 86.46875 18.65625 86.273438 18.46875 C 86.191406 18.386719 85.894531 18.195312 85.617188 18.035156 C 85.339844 17.878906 85.113281 17.738281 85.113281 17.726562 C 85.113281 17.710938 84.964844 17.652344 84.777344 17.59375 C 83.929688 17.320312 83.835938 17.101562 84.535156 17.015625 C 85.660156 16.878906 85.265625 16.738281 82.972656 16.464844 L 81.589844 16.300781 L 79.472656 16.300781 C 77.730469 16.300781 77.28125 16.3125 76.921875 16.359375 C 76.4375 16.429688 75.898438 16.441406 75.761719 16.386719 C 75.714844 16.367188 75.792969 16.351562 75.941406 16.351562 C 76.269531 16.351562 76.558594 16.289062 76.558594 16.214844 C 76.558594 16.15625 77.238281 16.066406 78.808594 15.917969 C 80.609375 15.75 85.523438 15.757812 87.046875 15.933594 C 88.644531 16.121094 89.351562 15.921875 88.28125 15.589844 C 88.136719 15.542969 88.015625 15.488281 88.015625 15.464844 C 88.015625 15.417969 86.617188 14.988281 86.335938 14.949219 C 86.234375 14.933594 85.871094 14.859375 85.523438 14.78125 C 83.554688 14.339844 79.335938 14.214844 77.449219 14.535156 C 77.214844 14.578125 76.980469 14.609375 76.925781 14.609375 C 76.839844 14.609375 76.597656 14.648438 75.480469 14.851562 C 74.40625 15.046875 73.792969 15.257812 72.523438 15.855469 L 72.039062 16.085938 L 71.765625 15.980469 C 71.617188 15.925781 71.367188 15.730469 71.210938 15.546875 C 70.386719 14.589844 69.023438 14.058594 66.699219 13.792969 C 66.105469 13.726562 65.816406 13.722656 63.363281 13.722656 C 60.105469 13.726562 59.546875 13.761719 59.480469 13.953125 L 59.433594 14.078125 L 60.421875 14.136719 C 60.964844 14.167969 61.539062 14.214844 61.699219 14.234375 C 61.855469 14.253906 62.367188 14.316406 62.828125 14.371094 C 63.292969 14.429688 63.78125 14.496094 63.914062 14.519531 C 64.050781 14.546875 64.671875 14.667969 65.292969 14.785156 C 67.460938 15.199219 69.863281 16.027344 69.480469 16.230469 C 69.277344 16.339844 69.183594 16.339844 68.648438 16.234375 C 68.414062 16.1875 67.699219 16.050781 67.058594 15.925781 C 63.328125 15.203125 59.273438 14.992188 56.03125 15.359375 C 55.4375 15.425781 54.886719 15.480469 54.8125 15.480469 C 54.523438 15.480469 52.832031 15.925781 52.488281 16.089844 C 52.289062 16.1875 52.050781 16.289062 51.957031 16.316406 C 51.351562 16.503906 50.316406 17.492188 50.316406 17.886719 C 50.316406 18.121094 50.703125 18.320312 50.949219 18.210938 C 51.390625 18.011719 54.078125 17.378906 55.992188 17.023438 C 56.578125 16.914062 57.472656 16.917969 57.707031 17.03125 C 57.953125 17.148438 58.554688 17.191406 58.886719 17.109375 C 58.996094 17.085938 59.363281 17.039062 59.699219 17.003906 C 60.035156 16.972656 60.585938 16.917969 60.929688 16.878906 C 62.929688 16.664062 66.101562 16.691406 67.191406 16.929688 C 67.886719 17.085938 67.859375 17.105469 66.882812 17.171875 C 64.429688 17.339844 62.21875 17.519531 61.761719 17.59375 C 61.480469 17.640625 61.171875 17.675781 61.078125 17.675781 C 60.726562 17.675781 59.039062 18.101562 58.675781 18.277344 C 58.1875 18.519531 58.160156 18.570312 58.007812 19.53125 C 57.980469 19.71875 55.8125 19.632812 54.382812 19.386719 C 54.167969 19.351562 53.804688 19.308594 53.570312 19.296875 C 53.335938 19.28125 52.195312 19.160156 51.039062 19.03125 C 49.882812 18.898438 48.59375 18.75 48.175781 18.703125 C 47.757812 18.65625 47.074219 18.582031 46.652344 18.535156 C 45.40625 18.394531 43.066406 18.195312 41.90625 18.128906 C 41.308594 18.09375 40.425781 18.03125 39.949219 17.988281 C 38.792969 17.890625 32.875 17.875 30.957031 17.96875 C 29.386719 18.042969 27.15625 18.183594 26.535156 18.246094 C 26.257812 18.273438 25.503906 18.332031 24.867188 18.375 C 24.230469 18.421875 23.480469 18.492188 23.203125 18.539062 C 22.925781 18.582031 22.550781 18.617188 22.367188 18.617188 C 22.042969 18.617188 21.910156 18.671875 22.179688 18.695312 C 22.257812 18.699219 22.425781 18.839844 22.554688 19 C 22.738281 19.234375 22.867188 19.3125 23.1875 19.382812 C 23.40625 19.433594 23.617188 19.492188 23.648438 19.519531 C 23.71875 19.566406 24.484375 19.519531 24.648438 19.457031 C 24.6875 19.441406 25.277344 19.453125 25.953125 19.480469 C 27.714844 19.554688 28.121094 19.558594 37.882812 19.558594 C 43.667969 19.554688 46.691406 19.566406 46.691406 19.589844 C 46.691406 19.609375 46.835938 19.617188 47.015625 19.609375 C 47.914062 19.558594 48.417969 19.554688 48.71875 19.59375 C 48.898438 19.617188 49.085938 19.625 49.136719 19.609375 C 49.242188 19.574219 49.59375 19.570312 49.808594 19.601562 C 49.96875 19.625 50.980469 19.613281 51.765625 19.578125 C 52.042969 19.566406 52.386719 19.554688 52.527344 19.550781 C 52.664062 19.546875 52.78125 19.535156 52.78125 19.527344 C 52.78125 19.476562 53.765625 19.5 54.195312 19.5625 C 54.464844 19.597656 54.878906 19.628906 55.117188 19.628906 C 56.085938 19.628906 57.496094 19.980469 57.613281 20.253906 C 57.664062 20.375 57.84375 20.5 58.121094 20.609375 C 58.359375 20.699219 58.59375 20.820312 58.644531 20.875 C 58.695312 20.933594 58.921875 21.03125 59.144531 21.09375 L 59.546875 21.210938 L 60.164062 20.992188 C 60.824219 20.757812 61.113281 20.582031 61.261719 20.316406 C 61.332031 20.1875 61.441406 20.140625 61.742188 20.09375 C 61.957031 20.0625 62.238281 20.007812 62.371094 19.976562 C 62.527344 19.9375 62.984375 19.910156 63.675781 19.894531 C 65.101562 19.863281 65.503906 19.84375 65.988281 19.785156 C 66.210938 19.757812 66.613281 19.734375 66.882812 19.734375 C 67.234375 19.734375 67.484375 19.707031 67.78125 19.632812 C 68.179688 19.53125 68.207031 19.53125 68.695312 19.578125 C 69.242188 19.632812 69.980469 19.648438 70.058594 19.601562 C 70.085938 19.585938 70.316406 19.539062 70.570312 19.496094 L 71.035156 19.417969 L 71.550781 19.539062 C 71.832031 19.605469 72.066406 19.671875 72.066406 19.691406 C 72.066406 19.742188 72.570312 19.839844 72.828125 19.839844 C 72.964844 19.839844 73.09375 19.882812 73.152344 19.945312 C 73.207031 20 73.378906 20.066406 73.539062 20.085938 C 73.699219 20.105469 73.953125 20.191406 74.101562 20.273438 C 74.253906 20.351562 74.515625 20.449219 74.683594 20.488281 C 74.855469 20.523438 75.117188 20.613281 75.265625 20.679688 C 75.414062 20.75 75.835938 20.886719 76.199219 20.976562 C 76.5625 21.070312 76.988281 21.203125 77.144531 21.277344 C 77.300781 21.347656 77.515625 21.417969 77.625 21.433594 C 77.734375 21.449219 77.925781 21.507812 78.050781 21.566406 C 78.175781 21.621094 78.40625 21.703125 78.5625 21.742188 C 78.71875 21.78125 78.960938 21.867188 79.097656 21.933594 C 79.238281 21.996094 79.660156 22.152344 80.035156 22.277344 C 80.414062 22.402344 80.867188 22.597656 81.039062 22.710938 C 81.210938 22.820312 81.476562 22.96875 81.628906 23.039062 C 82.113281 23.261719 82.695312 23.71875 83.148438 24.234375 C 83.257812 24.355469 83.417969 24.539062 83.503906 24.632812 C 84.097656 25.285156 84.109375 26.601562 83.527344 27.351562 C 83.089844 27.917969 83.0625 28.007812 83.300781 28.066406 C 83.664062 28.152344 85.152344 28.132812 86.128906 28.027344 C 86.570312 27.980469 87.226562 27.921875 87.59375 27.898438 C 87.964844 27.878906 88.636719 27.8125 89.097656 27.753906 C 89.554688 27.695312 90.042969 27.648438 90.183594 27.648438 C 90.324219 27.648438 90.660156 27.613281 90.929688 27.570312 C 91.203125 27.527344 91.683594 27.472656 92.003906 27.445312 C 92.320312 27.417969 92.746094 27.371094 92.945312 27.34375 C 93.144531 27.3125 93.960938 27.207031 94.757812 27.109375 C 95.554688 27.011719 96.496094 26.882812 96.84375 26.820312 C 97.195312 26.757812 97.539062 26.707031 97.609375 26.707031 C 97.777344 26.707031 99.171875 26.488281 99.542969 26.402344 C 99.703125 26.363281 99.988281 26.316406 100.175781 26.292969 C 100.789062 26.214844 102.84375 25.84375 105.125 25.402344 C 106.726562 25.089844 106.652344 25.1875 106.617188 23.429688 C 106.59375 22.0625 106.558594 21.863281 106.269531 21.410156 C 105.8125 20.6875 105.777344 20.515625 106.054688 20.414062 C 106.347656 20.308594 106.355469 20.058594 106.066406 19.992188 C 105.925781 19.957031 105.851562 19.871094 105.851562 19.75 C 105.851562 19.550781 105.988281 19.519531 106.546875 19.589844 C 106.710938 19.613281 106.960938 19.605469 107.296875 19.566406 C 107.722656 19.515625 108.105469 19.511719 109.832031 19.53125 C 111.753906 19.554688 113.597656 19.546875 116.449219 19.507812 C 117.648438 19.488281 117.707031 19.492188 118.078125 19.582031 C 118.460938 19.671875 118.464844 19.671875 118.464844 19.597656 C 118.464844 19.554688 118.6875 19.464844 118.964844 19.398438 C 119.425781 19.289062 119.46875 19.257812 119.558594 18.992188 C 119.636719 18.777344 119.738281 18.679688 119.980469 18.601562 C 120.34375 18.484375 120.644531 17.878906 120.640625 17.265625 L 120.640625 16.945312 L 119.878906 16.949219 C 119.460938 16.949219 118.660156 16.933594 118.101562 16.910156 C 115.5 16.808594 111.585938 16.878906 109.984375 17.0625 C 109.582031 17.109375 109.003906 17.171875 108.695312 17.203125 C 108.117188 17.265625 104.917969 17.757812 104.570312 17.839844 C 103.59375 18.074219 102.730469 18.011719 102.371094 17.675781 C 102.277344 17.589844 102.121094 17.488281 102.019531 17.449219 C 101.917969 17.414062 101.699219 17.277344 101.53125 17.152344 C 101.363281 17.027344 101.027344 16.832031 100.78125 16.722656 C 100.539062 16.609375 100.339844 16.496094 100.339844 16.46875 C 100.339844 16.4375 100.214844 16.371094 100.058594 16.320312 C 99.90625 16.269531 99.667969 16.15625 99.53125 16.070312 C 99.390625 15.988281 99.203125 15.894531 99.109375 15.863281 C 99.015625 15.835938 98.789062 15.722656 98.609375 15.613281 C 98.429688 15.503906 98.195312 15.398438 98.09375 15.375 C 97.992188 15.355469 97.761719 15.257812 97.585938 15.15625 C 97.40625 15.058594 97.160156 14.945312 97.03125 14.910156 C 96.765625 14.839844 96.320312 14.667969 95.785156 14.429688 C 95.585938 14.339844 95.335938 14.246094 95.230469 14.222656 C 95.125 14.195312 94.664062 14.039062 94.199219 13.878906 C 92.804688 13.382812 91.992188 13.113281 91.402344 12.945312 C 91.09375 12.859375 90.792969 12.765625 90.730469 12.738281 C 90.667969 12.714844 90.175781 12.585938 89.640625 12.457031 C 89.105469 12.324219 88.128906 12.085938 87.472656 11.921875 C 86.816406 11.761719 85.945312 11.550781 85.539062 11.453125 L 84.796875 11.28125 L 85.183594 11.203125 C 85.6875 11.097656 89.210938 11.070312 90.410156 11.160156 C 90.648438 11.175781 91.308594 11.207031 91.875 11.222656 C 92.785156 11.25 94.507812 11.414062 95.167969 11.535156 C 95.261719 11.550781 95.566406 11.585938 95.84375 11.609375 C 96.523438 11.671875 98.890625 12.027344 98.890625 12.066406 C 98.890625 12.085938 98.953125 12.097656 99.035156 12.097656 C 99.203125 12.097656 99.746094 12.203125 100.535156 12.386719 C 100.84375 12.457031 101.148438 12.515625 101.207031 12.515625 C 101.265625 12.515625 101.484375 12.550781 101.6875 12.585938 C 102.285156 12.699219 102.582031 12.328125 102.054688 12.125 C 101.941406 12.082031 101.757812 11.976562 101.644531 11.890625 C 100.890625 11.304688 98.417969 10.375 97.0625 10.167969 C 96.175781 10.03125 94.246094 9.925781 93.089844 9.949219 C 90.953125 9.992188 89.382812 10.050781 88.964844 10.105469 C 86.289062 10.449219 84.917969 10.167969 87.34375 9.773438 C 87.675781 9.71875 87.964844 9.664062 87.992188 9.648438 C 88.28125 9.492188 91.394531 9.265625 93.960938 9.214844 C 95.09375 9.191406 95.257812 9.171875 95.261719 9.039062 C 95.265625 8.929688 95.632812 8.765625 95.929688 8.738281 C 96.507812 8.683594 100.785156 8.851562 102.078125 8.976562 C 103.273438 9.09375 103.875 9.109375 104.234375 9.027344 L 104.539062 8.960938 L 103.949219 8.777344 C 103.625 8.675781 103.015625 8.484375 102.589844 8.351562 C 101.738281 8.082031 99.859375 7.640625 98.960938 7.5 C 97.625 7.292969 96.429688 7.148438 96.066406 7.148438 C 95.964844 7.148438 95.632812 7.121094 95.328125 7.09375 C 92.625 6.820312 86.542969 7.53125 84.980469 8.300781 C 84.808594 8.386719 84.550781 8.511719 84.402344 8.578125 C 83.640625 8.921875 82.941406 9.355469 82.941406 9.484375 C 82.941406 9.738281 81.894531 9.644531 81.707031 9.375 C 81.539062 9.140625 82.183594 8.078125 82.648438 7.824219 C 83.800781 7.195312 84.605469 6.886719 85.933594 6.5625 C 86.503906 6.421875 86.539062 6.40625 86.386719 6.316406 C 86.042969 6.121094 85.839844 6.109375 84.679688 6.21875 M 54.011719 9.523438 C 53.613281 9.5625 53.15625 9.621094 52.996094 9.65625 C 52.195312 9.828125 51.871094 9.847656 50.84375 9.785156 C 49.015625 9.675781 46.835938 9.769531 46.835938 9.960938 C 46.835938 10.035156 46.867188 10.039062 47.152344 10.003906 C 47.78125 9.921875 49.804688 9.984375 50.359375 10.101562 C 51.375 10.316406 52.484375 10.335938 53.070312 10.152344 C 54.300781 9.765625 54.460938 9.738281 55.707031 9.691406 L 56.875 9.644531 L 56.386719 9.589844 C 56.117188 9.558594 55.859375 9.523438 55.8125 9.507812 C 55.628906 9.449219 54.710938 9.457031 54.011719 9.523438 M 49.480469 11.285156 C 49.621094 11.292969 49.847656 11.292969 49.988281 11.285156 C 50.128906 11.277344 50.015625 11.269531 49.734375 11.269531 C 49.457031 11.269531 49.339844 11.277344 49.480469 11.285156 M 45.675781 11.503906 C 45.675781 11.523438 45.941406 11.550781 46.265625 11.5625 C 46.589844 11.574219 47.078125 11.621094 47.355469 11.667969 L 47.859375 11.75 L 48.023438 11.664062 C 48.113281 11.613281 48.230469 11.574219 48.28125 11.574219 C 48.332031 11.574219 48.5 11.554688 48.65625 11.523438 C 48.910156 11.480469 48.773438 11.472656 47.304688 11.472656 C 46.324219 11.472656 45.675781 11.484375 45.675781 11.503906 M 110.933594 13.457031 C 110.5 13.492188 109.914062 13.566406 109.628906 13.621094 C 108.832031 13.78125 108.820312 13.78125 107.507812 13.71875 C 105.265625 13.613281 103.75 13.699219 103.652344 13.941406 C 103.59375 14.089844 103.9375 14.144531 104.335938 14.054688 C 104.691406 13.976562 106.054688 13.976562 106.675781 14.058594 C 107.007812 14.101562 107.628906 14.183594 108.046875 14.238281 L 108.816406 14.339844 L 109.425781 14.261719 C 109.761719 14.21875 110.203125 14.125 110.410156 14.054688 C 111.183594 13.785156 111.476562 13.742188 112.792969 13.707031 C 114.585938 13.660156 114.667969 13.605469 113.171875 13.453125 C 112.449219 13.378906 111.9375 13.378906 110.933594 13.457031 M 31.125 13.933594 C 30.777344 14.003906 30.566406 14.015625 29.535156 14.019531 C 27.746094 14.023438 27.476562 14.054688 28.441406 14.136719 C 28.867188 14.171875 29.402344 14.238281 29.628906 14.285156 C 30.1875 14.394531 30.496094 14.386719 30.941406 14.246094 C 31.148438 14.179688 31.449219 14.117188 31.609375 14.105469 C 31.808594 14.089844 31.898438 14.050781 31.898438 13.984375 C 31.898438 13.851562 31.613281 13.832031 31.125 13.933594 M 76.65625 17.558594 C 79.316406 17.769531 80.890625 17.980469 82.484375 18.332031 L 83.257812 18.503906 L 82.808594 18.546875 C 82.480469 18.582031 81.949219 18.585938 80.835938 18.566406 C 79.722656 18.550781 78.765625 18.558594 77.277344 18.601562 C 74.636719 18.679688 74.0625 18.605469 73.425781 18.089844 C 73.300781 17.988281 73.105469 17.851562 72.996094 17.789062 C 72.3125 17.40625 73.683594 17.320312 76.65625 17.558594 M 70.832031 17.890625 C 70.933594 17.996094 71.1875 18.21875 71.398438 18.386719 C 71.839844 18.75 71.867188 18.863281 71.519531 18.960938 C 71.234375 19.042969 67.882812 19.453125 66.777344 19.542969 C 66.378906 19.574219 65.988281 19.613281 65.90625 19.628906 C 65.722656 19.664062 64.464844 19.746094 63.257812 19.800781 C 61.449219 19.882812 61.035156 19.632812 62.300781 19.222656 C 62.488281 19.160156 62.640625 19.097656 62.640625 19.078125 C 62.640625 19.058594 62.6875 19.039062 62.75 19.03125 C 62.808594 19.023438 63.109375 18.929688 63.417969 18.820312 C 63.730469 18.707031 64.578125 18.488281 65.304688 18.332031 C 66.03125 18.171875 66.660156 18.035156 66.699219 18.023438 C 67.058594 17.933594 68.539062 17.71875 69.238281 17.65625 C 70.304688 17.5625 70.539062 17.597656 70.832031 17.890625 M 82.566406 19.371094 C 82.792969 19.394531 82.890625 19.5625 82.699219 19.605469 C 82.597656 19.632812 82.070312 19.5 82.070312 19.449219 C 82.070312 19.429688 82.007812 19.425781 81.933594 19.4375 C 81.859375 19.449219 81.761719 19.441406 81.714844 19.425781 C 81.667969 19.40625 81.777344 19.382812 81.960938 19.375 C 82.140625 19.367188 82.296875 19.359375 82.3125 19.355469 C 82.324219 19.351562 82.4375 19.359375 82.566406 19.371094 M 79.894531 19.484375 C 79.894531 19.574219 79.945312 19.585938 80.417969 19.589844 C 80.707031 19.589844 81.023438 19.609375 81.121094 19.628906 C 81.21875 19.648438 81.785156 19.664062 82.375 19.664062 C 82.964844 19.664062 83.644531 19.667969 83.882812 19.679688 C 85.65625 19.746094 86.710938 19.636719 85.519531 19.507812 C 84.953125 19.445312 85.023438 19.378906 85.644531 19.390625 C 85.996094 19.398438 86.1875 19.417969 86.167969 19.445312 C 86.101562 19.523438 86.78125 19.511719 87.113281 19.433594 C 87.472656 19.347656 87.777344 19.394531 87.984375 19.570312 C 88.207031 19.757812 88.664062 19.800781 88.824219 19.648438 C 88.960938 19.519531 89.566406 19.414062 89.917969 19.457031 C 90.070312 19.476562 90.261719 19.484375 90.339844 19.472656 C 90.417969 19.460938 90.691406 19.5 90.941406 19.5625 L 91.402344 19.671875 L 91.679688 19.582031 C 91.988281 19.480469 92.550781 19.460938 92.894531 19.542969 C 93.335938 19.648438 95.335938 19.566406 95.046875 19.457031 C 95.003906 19.4375 95.035156 19.414062 95.117188 19.402344 C 95.207031 19.390625 95.265625 19.433594 95.265625 19.519531 C 95.265625 19.59375 95.371094 19.707031 95.5 19.769531 C 95.683594 19.855469 95.707031 19.90625 95.59375 19.996094 C 95.460938 20.097656 95.484375 20.113281 95.84375 20.164062 C 96.210938 20.21875 96.242188 20.242188 96.335938 20.542969 C 96.386719 20.722656 96.496094 20.929688 96.570312 21.007812 C 96.753906 21.1875 96.476562 22.605469 96.207031 22.890625 C 95.890625 23.21875 95.722656 23.460938 95.617188 23.746094 C 95.5625 23.886719 95.425781 24.078125 95.316406 24.164062 C 95.203125 24.25 94.949219 24.515625 94.746094 24.753906 C 94.316406 25.269531 94.3125 25.269531 93.710938 25.136719 C 93.324219 25.054688 93.214844 24.996094 93.074219 24.800781 C 92.753906 24.347656 92.6875 24.285156 92.382812 24.136719 C 92.214844 24.058594 92.074219 23.964844 92.074219 23.929688 C 92.074219 23.855469 90.660156 23.003906 90.492188 22.976562 C 90.433594 22.96875 90.207031 22.875 89.992188 22.769531 C 89.105469 22.332031 87.910156 21.882812 87.476562 21.816406 C 87.375 21.800781 87.289062 21.769531 87.289062 21.742188 C 87.289062 21.652344 86.53125 21.351562 85.917969 21.199219 C 85.574219 21.113281 85.21875 21.007812 85.125 20.964844 C 85.035156 20.921875 84.867188 20.886719 84.75 20.886719 C 84.632812 20.886719 84.5 20.847656 84.449219 20.796875 C 84.398438 20.75 84.191406 20.679688 83.984375 20.640625 C 83.777344 20.601562 83.492188 20.523438 83.351562 20.464844 C 83.207031 20.410156 82.992188 20.363281 82.871094 20.363281 C 82.75 20.363281 82.648438 20.339844 82.648438 20.3125 C 82.648438 20.285156 82.46875 20.21875 82.25 20.171875 C 82.03125 20.121094 81.6875 20.042969 81.488281 20 C 81.289062 19.953125 81.019531 19.910156 80.882812 19.898438 C 80.75 19.886719 80.621094 19.835938 80.59375 19.78125 C 80.558594 19.703125 80.464844 19.679688 80.164062 19.671875 C 79.796875 19.660156 79.429688 19.386719 79.78125 19.386719 C 79.84375 19.386719 79.894531 19.429688 79.894531 19.484375 "/>
<path style=" stroke:none;fill-rule:evenodd;fill:rgb(76.470588%,16.862745%,23.137255%);fill-opacity:1;" d="M 66.121094 4.449219 C 65.921875 4.457031 65.171875 4.496094 64.453125 4.53125 C 63.734375 4.570312 62.363281 4.625 61.40625 4.652344 C 60.449219 4.683594 59.328125 4.738281 58.917969 4.777344 C 58.503906 4.8125 57.761719 4.859375 57.269531 4.878906 C 56.773438 4.898438 56.109375 4.945312 55.792969 4.984375 C 55.472656 5.027344 54.789062 5.082031 54.273438 5.109375 C 53.753906 5.140625 53.1875 5.183594 53.019531 5.210938 C 52.847656 5.238281 52.316406 5.292969 51.835938 5.335938 C 51.359375 5.378906 50.503906 5.464844 49.9375 5.53125 C 49.371094 5.59375 48.859375 5.648438 48.800781 5.648438 C 48.742188 5.648438 48.527344 5.679688 48.324219 5.71875 C 48.121094 5.757812 47.71875 5.804688 47.425781 5.820312 C 47.132812 5.839844 46.765625 5.886719 46.613281 5.917969 C 46.457031 5.953125 46.101562 6.015625 45.824219 6.050781 C 45.542969 6.089844 45.222656 6.140625 45.105469 6.167969 C 44.992188 6.191406 44.617188 6.242188 44.28125 6.277344 C 43.941406 6.3125 43.546875 6.367188 43.398438 6.398438 C 43.136719 6.457031 42.769531 6.519531 41.359375 6.746094 C 40.941406 6.8125 40.601562 6.882812 40.601562 6.902344 C 40.601562 6.917969 40.480469 6.941406 40.332031 6.953125 C 40.1875 6.964844 39.863281 7.015625 39.617188 7.070312 C 39.367188 7.121094 38.757812 7.242188 38.257812 7.339844 C 36.769531 7.625 32.871094 8.585938 32.0625 8.863281 C 31.832031 8.945312 30.332031 9.410156 29.679688 9.605469 C 29.488281 9.664062 29.214844 9.765625 29.074219 9.832031 C 28.9375 9.898438 28.703125 9.984375 28.5625 10.023438 C 28.421875 10.0625 28.183594 10.148438 28.035156 10.214844 C 27.886719 10.285156 27.632812 10.386719 27.464844 10.441406 C 27.300781 10.5 27.082031 10.597656 26.976562 10.660156 C 26.875 10.722656 26.738281 10.773438 26.671875 10.773438 C 26.609375 10.773438 26.511719 10.808594 26.457031 10.851562 C 26.34375 10.941406 25.449219 11.40625 24.730469 11.75 C 24.46875 11.875 24.214844 12.039062 24.167969 12.109375 C 24.121094 12.183594 23.964844 12.289062 23.824219 12.335938 C 23.53125 12.441406 23.207031 12.671875 23.203125 12.777344 C 23.199219 12.816406 23.066406 12.910156 22.902344 12.984375 C 22.738281 13.054688 22.476562 13.289062 22.320312 13.5 C 22.160156 13.710938 21.941406 13.925781 21.828125 13.980469 C 20.976562 14.375 20.816406 18.347656 21.640625 18.609375 C 21.820312 18.664062 22.566406 18.628906 23.199219 18.535156 C 23.480469 18.492188 24.230469 18.421875 24.867188 18.378906 C 25.503906 18.332031 26.257812 18.273438 26.535156 18.246094 C 27.15625 18.183594 29.386719 18.042969 30.957031 17.96875 C 32.875 17.875 38.792969 17.890625 39.949219 17.988281 C 40.425781 18.03125 41.308594 18.09375 41.90625 18.128906 C 43.046875 18.191406 45.386719 18.394531 46.617188 18.527344 C 47.9375 18.675781 48.914062 18.785156 51.039062 19.03125 C 52.195312 19.160156 53.335938 19.28125 53.570312 19.296875 C 53.804688 19.308594 54.167969 19.351562 54.382812 19.386719 C 55.8125 19.632812 57.980469 19.71875 58.007812 19.53125 C 58.160156 18.570312 58.1875 18.519531 58.675781 18.277344 C 59.039062 18.101562 60.726562 17.675781 61.078125 17.675781 C 61.171875 17.675781 61.480469 17.640625 61.761719 17.59375 C 62.21875 17.519531 64.429688 17.339844 66.882812 17.171875 C 67.859375 17.105469 67.886719 17.085938 67.191406 16.929688 C 66.101562 16.691406 62.929688 16.664062 60.929688 16.878906 C 60.585938 16.917969 60.035156 16.972656 59.699219 17.003906 C 59.363281 17.039062 58.996094 17.085938 58.886719 17.109375 C 58.554688 17.191406 57.953125 17.148438 57.707031 17.03125 C 57.472656 16.917969 56.578125 16.914062 55.992188 17.023438 C 54.078125 17.378906 51.390625 18.011719 50.949219 18.210938 C 50.703125 18.320312 50.316406 18.121094 50.316406 17.886719 C 50.316406 17.492188 51.351562 16.503906 51.957031 16.316406 C 52.050781 16.289062 52.289062 16.1875 52.488281 16.089844 C 52.832031 15.925781 54.523438 15.480469 54.8125 15.480469 C 54.886719 15.480469 55.4375 15.425781 56.03125 15.359375 C 59.273438 14.992188 63.328125 15.203125 67.058594 15.925781 C 67.699219 16.050781 68.414062 16.1875 68.648438 16.234375 C 69.183594 16.339844 69.277344 16.339844 69.480469 16.230469 C 69.863281 16.027344 67.460938 15.199219 65.292969 14.785156 C 64.671875 14.667969 64.050781 14.546875 63.914062 14.519531 C 63.78125 14.496094 63.292969 14.429688 62.828125 14.371094 C 62.367188 14.316406 61.855469 14.253906 61.699219 14.234375 C 61.539062 14.214844 60.964844 14.167969 60.421875 14.136719 L 59.433594 14.078125 L 59.480469 13.953125 C 59.597656 13.621094 65.988281 13.605469 67.691406 13.933594 C 69.585938 14.296875 70.496094 14.714844 71.210938 15.546875 C 71.367188 15.730469 71.617188 15.925781 71.765625 15.980469 L 72.039062 16.085938 L 72.523438 15.855469 C 73.792969 15.257812 74.40625 15.046875 75.480469 14.851562 C 76.597656 14.648438 76.839844 14.609375 76.925781 14.609375 C 76.980469 14.609375 77.214844 14.578125 77.449219 14.535156 C 79.335938 14.214844 83.554688 14.339844 85.523438 14.78125 C 85.871094 14.859375 86.234375 14.933594 86.335938 14.949219 C 86.617188 14.988281 88.015625 15.417969 88.015625 15.464844 C 88.015625 15.488281 88.136719 15.542969 88.28125 15.589844 C 89.351562 15.921875 88.644531 16.121094 87.046875 15.933594 C 85.523438 15.757812 80.609375 15.75 78.808594 15.917969 C 77.238281 16.066406 76.558594 16.15625 76.558594 16.214844 C 76.558594 16.289062 76.269531 16.351562 75.941406 16.351562 C 75.792969 16.351562 75.714844 16.367188 75.761719 16.386719 C 75.898438 16.441406 76.4375 16.429688 76.921875 16.359375 C 77.28125 16.3125 77.730469 16.300781 79.472656 16.300781 L 81.589844 16.300781 L 82.972656 16.464844 C 85.265625 16.738281 85.660156 16.878906 84.535156 17.015625 C 83.835938 17.101562 83.929688 17.320312 84.777344 17.59375 C 84.964844 17.652344 85.113281 17.710938 85.113281 17.726562 C 85.113281 17.738281 85.339844 17.878906 85.617188 18.035156 C 85.894531 18.195312 86.191406 18.386719 86.273438 18.46875 C 86.46875 18.65625 87.140625 18.820312 87.839844 18.847656 C 88.136719 18.859375 88.996094 18.910156 89.753906 18.953125 C 92.339844 19.109375 95.835938 19.0625 96.269531 18.867188 C 96.46875 18.777344 96.46875 18.496094 96.273438 18.339844 C 96.054688 18.164062 95.699219 17.679688 95.699219 17.550781 C 95.699219 17.457031 95.335938 17.128906 94.804688 16.734375 C 94.710938 16.667969 94.589844 16.558594 94.53125 16.492188 C 94.398438 16.34375 93.433594 15.695312 93.261719 15.640625 C 93.191406 15.621094 93.019531 15.5 92.878906 15.375 C 92.738281 15.25 92.511719 15.109375 92.375 15.0625 C 92.238281 15.015625 92.007812 14.898438 91.863281 14.800781 C 91.597656 14.625 90.953125 14.324219 89.988281 13.921875 C 89.699219 13.800781 89.230469 13.605469 88.945312 13.484375 C 88.660156 13.363281 88.335938 13.242188 88.222656 13.210938 C 88.109375 13.179688 88.015625 13.144531 88.015625 13.128906 C 88.015625 13.113281 87.785156 13.023438 87.507812 12.929688 C 87.226562 12.835938 87 12.753906 87 12.742188 C 87 12.730469 86.773438 12.65625 86.492188 12.574219 C 86.214844 12.496094 85.75 12.359375 85.460938 12.273438 C 82.460938 11.375 82.101562 11.324219 80.664062 11.597656 C 79.300781 11.859375 78.007812 12.171875 77.574219 12.34375 C 77.375 12.421875 77.0625 12.542969 76.878906 12.609375 C 76.695312 12.679688 76.441406 12.808594 76.320312 12.894531 C 76.195312 12.984375 76.007812 13.082031 75.90625 13.109375 C 75.800781 13.140625 75.574219 13.265625 75.398438 13.390625 C 75.226562 13.511719 74.960938 13.679688 74.8125 13.757812 C 74.660156 13.839844 74.460938 13.980469 74.371094 14.074219 C 73.792969 14.660156 73.113281 14.773438 72.570312 14.363281 C 72.429688 14.257812 72.222656 14.128906 72.109375 14.074219 C 71.820312 13.9375 71.625 13.625 71.503906 13.101562 C 71.382812 12.597656 71.320312 12.566406 70.550781 12.617188 C 67.691406 12.804688 70.757812 11.476562 73.84375 11.1875 C 74.902344 11.085938 75.296875 11.042969 75.53125 11.003906 C 75.644531 10.980469 76.0625 10.941406 76.460938 10.914062 C 77.4375 10.84375 77.46875 10.789062 76.558594 10.742188 C 75.429688 10.683594 74.234375 10.695312 73.285156 10.777344 C 72.8125 10.816406 72.035156 10.875 71.558594 10.910156 C 70.253906 11.007812 68.316406 11.277344 67.570312 11.46875 C 67.449219 11.5 67.117188 11.566406 66.828125 11.617188 C 66.539062 11.667969 65.855469 11.835938 65.304688 11.988281 C 64.199219 12.296875 64.113281 12.300781 63.636719 12.046875 C 63.015625 11.71875 63.566406 10.839844 64.707031 10.339844 C 66.390625 9.601562 70.804688 9.183594 74.210938 9.445312 C 74.695312 9.484375 75.464844 9.53125 75.921875 9.550781 C 76.378906 9.570312 76.859375 9.609375 76.988281 9.640625 C 77.117188 9.667969 77.527344 9.722656 77.902344 9.761719 C 78.273438 9.800781 78.621094 9.851562 78.675781 9.871094 C 78.816406 9.925781 79.019531 9.835938 79.023438 9.714844 C 79.023438 9.65625 78.921875 9.585938 78.796875 9.550781 C 78.449219 9.457031 77.605469 8.738281 77.40625 8.359375 C 77.199219 7.964844 77.390625 7.636719 77.960938 7.417969 C 78.148438 7.347656 78.300781 7.277344 78.300781 7.261719 C 78.300781 7.207031 80.003906 6.78125 80.417969 6.730469 C 80.648438 6.703125 81.15625 6.625 81.542969 6.5625 C 81.929688 6.5 82.355469 6.449219 82.484375 6.449219 C 82.617188 6.449219 82.984375 6.414062 83.300781 6.371094 C 85.09375 6.125 86.007812 6.105469 86.359375 6.304688 C 86.539062 6.410156 86.527344 6.417969 85.933594 6.5625 C 84.605469 6.886719 83.800781 7.195312 82.648438 7.824219 C 82.183594 8.078125 81.539062 9.140625 81.707031 9.375 C 81.894531 9.644531 82.941406 9.738281 82.941406 9.484375 C 82.941406 9.355469 83.640625 8.921875 84.402344 8.578125 C 84.550781 8.511719 84.808594 8.386719 84.980469 8.300781 C 86.542969 7.53125 92.625 6.820312 95.328125 7.09375 C 95.632812 7.121094 95.964844 7.148438 96.066406 7.148438 C 96.429688 7.148438 97.625 7.292969 98.960938 7.5 C 99.859375 7.640625 101.738281 8.082031 102.589844 8.351562 C 103.015625 8.484375 103.625 8.675781 103.949219 8.777344 L 104.539062 8.960938 L 104.234375 9.027344 C 103.875 9.109375 103.273438 9.09375 102.078125 8.976562 C 100.785156 8.851562 96.507812 8.683594 95.929688 8.738281 C 95.632812 8.765625 95.265625 8.929688 95.261719 9.039062 C 95.257812 9.171875 95.09375 9.191406 93.960938 9.214844 C 91.394531 9.265625 88.28125 9.492188 87.992188 9.648438 C 87.964844 9.664062 87.675781 9.71875 87.34375 9.773438 C 84.917969 10.167969 86.289062 10.449219 88.964844 10.105469 C 89.382812 10.050781 90.953125 9.992188 93.089844 9.949219 C 94.246094 9.925781 96.175781 10.03125 97.0625 10.167969 C 98.417969 10.375 100.890625 11.304688 101.644531 11.890625 C 101.757812 11.976562 101.941406 12.082031 102.054688 12.125 C 102.582031 12.328125 102.285156 12.699219 101.6875 12.585938 C 101.484375 12.550781 101.265625 12.515625 101.207031 12.515625 C 101.148438 12.515625 100.84375 12.457031 100.535156 12.386719 C 99.746094 12.203125 99.203125 12.097656 99.035156 12.097656 C 98.953125 12.097656 98.890625 12.085938 98.890625 12.066406 C 98.890625 12.027344 96.523438 11.671875 95.84375 11.609375 C 95.566406 11.585938 95.261719 11.550781 95.167969 11.535156 C 94.507812 11.414062 92.785156 11.25 91.875 11.222656 C 91.308594 11.207031 90.648438 11.175781 90.410156 11.160156 C 89.210938 11.070312 85.6875 11.097656 85.183594 11.203125 L 84.796875 11.28125 L 85.539062 11.453125 C 85.945312 11.550781 86.816406 11.761719 87.472656 11.921875 C 88.128906 12.085938 89.105469 12.324219 89.640625 12.457031 C 90.175781 12.585938 90.667969 12.714844 90.730469 12.738281 C 90.792969 12.765625 91.09375 12.859375 91.402344 12.945312 C 91.992188 13.113281 92.804688 13.382812 94.199219 13.878906 C 94.664062 14.039062 95.125 14.195312 95.230469 14.222656 C 95.335938 14.246094 95.585938 14.339844 95.785156 14.429688 C 96.320312 14.667969 96.765625 14.839844 97.03125 14.910156 C 97.160156 14.945312 97.40625 15.058594 97.585938 15.15625 C 97.761719 15.257812 97.992188 15.355469 98.09375 15.375 C 98.195312 15.398438 98.429688 15.503906 98.609375 15.613281 C 98.789062 15.722656 99.015625 15.835938 99.109375 15.863281 C 99.203125 15.894531 99.390625 15.988281 99.53125 16.070312 C 99.667969 16.15625 99.90625 16.269531 100.058594 16.320312 C 100.214844 16.371094 100.339844 16.4375 100.339844 16.46875 C 100.339844 16.496094 100.539062 16.609375 100.78125 16.722656 C 101.027344 16.832031 101.363281 17.027344 101.53125 17.152344 C 101.699219 17.277344 101.917969 17.414062 102.019531 17.449219 C 102.121094 17.488281 102.277344 17.589844 102.371094 17.675781 C 102.730469 18.011719 103.59375 18.074219 104.570312 17.839844 C 104.917969 17.757812 108.117188 17.265625 108.695312 17.203125 C 109.003906 17.171875 109.582031 17.109375 109.984375 17.0625 C 111.59375 16.878906 115.335938 16.808594 118.125 16.910156 C 119.847656 16.972656 120.792969 16.96875 120.964844 16.894531 C 121.355469 16.726562 120.761719 14.351562 120.230469 13.964844 C 120.074219 13.847656 119.859375 13.636719 119.757812 13.492188 C 119.65625 13.351562 119.421875 13.152344 119.238281 13.058594 C 119.054688 12.960938 118.902344 12.847656 118.902344 12.800781 C 118.902344 12.757812 118.710938 12.617188 118.476562 12.488281 C 118.246094 12.359375 117.980469 12.183594 117.882812 12.097656 C 117.789062 12.011719 117.5625 11.871094 117.378906 11.785156 C 117.191406 11.699219 116.800781 11.503906 116.503906 11.347656 C 115.660156 10.910156 114.863281 10.542969 114.324219 10.351562 C 114.046875 10.253906 113.824219 10.160156 113.824219 10.144531 C 113.824219 10.128906 113.660156 10.074219 113.460938 10.019531 C 113.261719 9.96875 113.097656 9.910156 113.097656 9.886719 C 113.097656 9.867188 112.835938 9.769531 112.519531 9.675781 C 112.203125 9.578125 111.941406 9.488281 111.941406 9.472656 C 111.941406 9.4375 111.816406 9.402344 109.882812 8.839844 C 108.480469 8.433594 104.667969 7.503906 103.457031 7.269531 C 103.058594 7.195312 102.667969 7.117188 102.585938 7.09375 C 102.507812 7.074219 102.246094 7.023438 102.007812 6.988281 C 101.769531 6.953125 101.433594 6.890625 101.261719 6.855469 C 101.089844 6.820312 100.46875 6.714844 99.882812 6.621094 C 99.296875 6.527344 98.6875 6.425781 98.527344 6.394531 C 98.367188 6.367188 97.617188 6.253906 96.859375 6.144531 C 96.101562 6.039062 95.328125 5.921875 95.136719 5.886719 C 94.945312 5.851562 94.683594 5.824219 94.550781 5.824219 C 94.421875 5.824219 93.957031 5.769531 93.523438 5.699219 C 93.09375 5.632812 92.628906 5.578125 92.5 5.578125 C 92.367188 5.578125 92.03125 5.542969 91.753906 5.496094 C 91.476562 5.449219 90.894531 5.386719 90.464844 5.355469 C 90.035156 5.320312 89.4375 5.261719 89.136719 5.226562 C 88.835938 5.1875 88.183594 5.132812 87.6875 5.101562 C 87.191406 5.070312 86.683594 5.027344 86.566406 5.003906 C 86.253906 4.941406 85.4375 4.882812 84.910156 4.878906 C 84.664062 4.878906 84.003906 4.839844 83.449219 4.792969 C 82.890625 4.75 81.746094 4.683594 80.910156 4.65625 C 80.074219 4.625 78.800781 4.566406 78.082031 4.527344 C 76.832031 4.453125 67.421875 4.394531 66.121094 4.449219 M 60.902344 7.289062 C 61.578125 7.308594 62.683594 7.363281 63.359375 7.410156 C 64.03125 7.457031 64.703125 7.496094 64.847656 7.496094 C 65.078125 7.496094 66.703125 7.664062 67.714844 7.792969 C 69.117188 7.96875 69.449219 8.015625 69.621094 8.050781 C 70.015625 8.128906 71.765625 8.457031 72.234375 8.542969 C 72.789062 8.640625 74.09375 8.964844 74.09375 9.003906 C 74.09375 9.019531 74.234375 9.0625 74.402344 9.105469 C 74.847656 9.210938 74.5625 9.238281 72.933594 9.238281 C 67.335938 9.246094 64.511719 9.800781 63.445312 11.105469 C 62.609375 12.125 63.460938 12.585938 65.25 12.078125 C 65.753906 11.9375 66.515625 11.753906 66.941406 11.675781 C 67.367188 11.597656 67.714844 11.519531 67.714844 11.507812 C 67.714844 11.492188 67.894531 11.460938 68.113281 11.433594 C 68.332031 11.40625 68.707031 11.351562 68.949219 11.3125 C 69.1875 11.273438 69.546875 11.222656 69.746094 11.203125 C 69.945312 11.179688 70.5 11.117188 70.976562 11.066406 C 71.671875 10.988281 72.066406 10.96875 72.921875 10.96875 C 74.203125 10.964844 74.402344 11.019531 73.441406 11.105469 C 73.074219 11.140625 72.695312 11.195312 72.601562 11.226562 C 72.503906 11.257812 72.230469 11.3125 71.992188 11.347656 C 71.753906 11.382812 71.34375 11.472656 71.082031 11.554688 C 70.820312 11.632812 70.378906 11.765625 70.101562 11.847656 C 69.824219 11.933594 69.601562 12.03125 69.601562 12.066406 C 69.601562 12.105469 69.4375 12.230469 69.238281 12.34375 C 68.851562 12.5625 68.785156 12.691406 69.023438 12.746094 C 69.15625 12.78125 69.363281 12.777344 70.832031 12.71875 C 71.097656 12.710938 71.125 12.730469 71.15625 12.96875 C 71.230469 13.554688 71.492188 13.988281 71.933594 14.265625 C 72.175781 14.414062 72.40625 14.589844 72.449219 14.652344 C 72.550781 14.800781 72.753906 14.863281 73.332031 14.917969 C 73.769531 14.964844 73.785156 14.96875 73.585938 15.039062 C 73.464844 15.078125 73.371094 15.140625 73.371094 15.171875 C 73.371094 15.207031 73.183594 15.285156 72.953125 15.347656 C 72.726562 15.410156 72.429688 15.515625 72.292969 15.578125 C 71.984375 15.722656 71.957031 15.71875 71.761719 15.460938 C 71.679688 15.347656 71.472656 15.199219 71.308594 15.132812 C 71.144531 15.066406 70.894531 14.910156 70.75 14.792969 C 70.605469 14.671875 70.320312 14.523438 70.117188 14.464844 C 69.914062 14.40625 69.746094 14.34375 69.746094 14.328125 C 69.746094 14.179688 67.433594 13.765625 66.292969 13.707031 C 64.558594 13.621094 60.15625 13.679688 59.195312 13.804688 C 58.171875 13.933594 58.902344 14.121094 60.863281 14.226562 C 61.28125 14.25 61.660156 14.28125 61.707031 14.296875 C 61.75 14.316406 62.125 14.367188 62.539062 14.414062 C 63.253906 14.492188 63.71875 14.570312 65.007812 14.828125 C 66.203125 15.070312 67.179688 15.335938 67.625 15.542969 C 67.757812 15.605469 67.921875 15.65625 67.992188 15.65625 C 68.152344 15.65625 68.441406 15.929688 68.300781 15.949219 C 68.242188 15.960938 68.054688 15.929688 67.882812 15.878906 C 67.710938 15.832031 67.484375 15.792969 67.382812 15.792969 C 67.277344 15.792969 66.964844 15.753906 66.691406 15.703125 C 63.855469 15.195312 58.824219 14.953125 56.507812 15.210938 C 56.046875 15.265625 55.609375 15.304688 55.535156 15.304688 C 55.300781 15.304688 54.375 15.421875 54.375 15.453125 C 54.375 15.46875 54.308594 15.480469 54.222656 15.480469 C 53.882812 15.480469 52.292969 15.871094 51.964844 16.039062 C 51.832031 16.105469 51.605469 16.195312 51.460938 16.242188 C 51.316406 16.285156 51.097656 16.40625 50.972656 16.511719 C 50.84375 16.617188 50.667969 16.703125 50.574219 16.703125 C 50.484375 16.703125 50.296875 16.726562 50.15625 16.757812 C 49.839844 16.824219 48.605469 16.730469 47.609375 16.558594 C 47.277344 16.503906 46.960938 16.457031 46.910156 16.457031 C 46.773438 16.457031 44.675781 16.035156 44.023438 15.878906 C 42.207031 15.4375 40.207031 14.824219 39.90625 14.617188 C 39.816406 14.554688 39.613281 14.460938 39.460938 14.40625 C 39.308594 14.355469 39.050781 14.210938 38.890625 14.082031 C 38.726562 13.957031 38.488281 13.792969 38.355469 13.71875 C 36.902344 12.882812 37.5625 10.855469 39.527344 10.105469 C 39.71875 10.03125 39.875 9.957031 39.875 9.9375 C 39.875 9.917969 40.101562 9.816406 40.382812 9.710938 C 40.660156 9.609375 40.890625 9.507812 40.890625 9.492188 C 40.890625 9.472656 41.203125 9.382812 41.582031 9.289062 C 41.964844 9.195312 42.511719 9.046875 42.796875 8.960938 C 43.574219 8.726562 44.296875 8.558594 45.152344 8.40625 C 45.570312 8.332031 46.164062 8.214844 46.46875 8.144531 C 46.773438 8.074219 47.09375 8.019531 47.179688 8.019531 C 47.269531 8.019531 47.667969 7.972656 48.066406 7.914062 C 48.464844 7.859375 49.085938 7.78125 49.445312 7.742188 C 49.804688 7.703125 50.265625 7.648438 50.472656 7.621094 C 52.390625 7.359375 57.683594 7.191406 60.902344 7.289062 M 54.882812 9.34375 C 54.15625 9.371094 53.234375 9.484375 52.558594 9.628906 C 51.929688 9.761719 51.394531 9.765625 50.28125 9.652344 C 48.824219 9.5 47.101562 9.621094 46.160156 9.9375 C 45.40625 10.191406 45.5 10.460938 46.285156 10.300781 C 46.519531 10.253906 46.796875 10.214844 46.898438 10.214844 C 47 10.214844 47.242188 10.1875 47.433594 10.152344 C 48.136719 10.019531 49.542969 10.03125 50.183594 10.175781 C 50.367188 10.21875 50.574219 10.25 50.644531 10.25 C 50.71875 10.25 50.96875 10.285156 51.203125 10.324219 C 51.988281 10.457031 52.636719 10.394531 53.582031 10.09375 C 54.503906 9.800781 54.808594 9.761719 56.34375 9.761719 C 57.96875 9.761719 58.277344 9.699219 57.382812 9.550781 C 57.125 9.503906 56.878906 9.457031 56.835938 9.441406 C 56.765625 9.417969 55.53125 9.300781 55.480469 9.3125 C 55.46875 9.316406 55.203125 9.328125 54.882812 9.34375 M 55.8125 9.507812 C 55.859375 9.523438 56.117188 9.558594 56.386719 9.589844 L 56.875 9.644531 L 55.707031 9.691406 C 54.460938 9.738281 54.300781 9.765625 53.070312 10.152344 C 52.484375 10.335938 51.375 10.316406 50.359375 10.101562 C 49.804688 9.984375 47.78125 9.921875 47.152344 10.003906 C 46.867188 10.039062 46.835938 10.035156 46.835938 9.960938 C 46.835938 9.769531 49.015625 9.675781 50.84375 9.785156 C 51.871094 9.847656 52.195312 9.828125 52.996094 9.65625 C 53.710938 9.503906 55.507812 9.410156 55.8125 9.507812 M 48.972656 11.214844 C 48.753906 11.222656 48.574219 11.246094 48.574219 11.261719 C 48.574219 11.328125 47.578125 11.382812 46.425781 11.375 C 45.242188 11.367188 44.375 11.417969 44.128906 11.515625 C 43.957031 11.582031 44.5625 11.644531 45.355469 11.644531 C 45.917969 11.644531 46.257812 11.667969 46.566406 11.71875 C 47.335938 11.851562 47.992188 11.84375 48.550781 11.699219 C 48.816406 11.632812 49.082031 11.574219 49.140625 11.574219 C 49.203125 11.574219 49.339844 11.535156 49.445312 11.488281 C 49.550781 11.441406 49.742188 11.402344 49.867188 11.402344 C 50.183594 11.398438 50.824219 11.277344 50.648438 11.25 C 50.433594 11.21875 49.425781 11.199219 48.972656 11.214844 M 49.988281 11.285156 C 49.847656 11.292969 49.621094 11.292969 49.480469 11.285156 C 49.339844 11.277344 49.457031 11.269531 49.734375 11.269531 C 50.015625 11.269531 50.128906 11.277344 49.988281 11.285156 M 48.65625 11.523438 C 48.5 11.554688 48.332031 11.574219 48.28125 11.574219 C 48.230469 11.574219 48.113281 11.613281 48.023438 11.664062 L 47.859375 11.75 L 47.355469 11.667969 C 47.078125 11.621094 46.589844 11.574219 46.265625 11.5625 C 45.113281 11.519531 45.65625 11.472656 47.304688 11.472656 C 48.773438 11.472656 48.910156 11.480469 48.65625 11.523438 M 79.164062 12.585938 C 79.160156 12.875 78.933594 13.296875 78.738281 13.378906 C 78.65625 13.414062 78.4375 13.585938 78.246094 13.761719 C 77.902344 14.078125 77.324219 14.339844 76.796875 14.414062 C 76.441406 14.464844 75.898438 14.566406 75.367188 14.6875 C 74.792969 14.816406 74.527344 14.8125 74.53125 14.671875 C 74.539062 14.429688 74.835938 14.074219 75.175781 13.902344 C 75.371094 13.800781 75.601562 13.640625 75.691406 13.546875 C 75.777344 13.449219 75.957031 13.34375 76.085938 13.308594 C 76.214844 13.277344 76.433594 13.167969 76.574219 13.074219 C 76.714844 12.976562 77 12.851562 77.203125 12.792969 C 77.40625 12.734375 77.574219 12.664062 77.574219 12.636719 C 77.574219 12.609375 77.835938 12.519531 78.15625 12.4375 C 78.472656 12.359375 78.738281 12.273438 78.738281 12.257812 C 78.761719 12.085938 79.167969 12.402344 79.164062 12.585938 M 113.171875 13.453125 C 114.667969 13.605469 114.585938 13.660156 112.792969 13.707031 C 111.476562 13.742188 111.183594 13.785156 110.410156 14.054688 C 110.203125 14.125 109.761719 14.21875 109.425781 14.261719 L 108.816406 14.339844 L 108.046875 14.238281 C 107.628906 14.183594 107.007812 14.101562 106.675781 14.058594 C 106.054688 13.976562 104.691406 13.976562 104.335938 14.054688 C 103.9375 14.144531 103.59375 14.089844 103.652344 13.941406 C 103.75 13.699219 105.265625 13.613281 107.507812 13.71875 C 108.820312 13.78125 108.832031 13.78125 109.628906 13.621094 C 110.628906 13.421875 112.160156 13.347656 113.171875 13.453125 M 31.898438 13.984375 C 31.898438 14.050781 31.808594 14.089844 31.609375 14.105469 C 31.449219 14.117188 31.148438 14.179688 30.941406 14.246094 C 30.496094 14.386719 30.1875 14.394531 29.628906 14.285156 C 29.402344 14.238281 28.867188 14.171875 28.441406 14.136719 C 27.476562 14.054688 27.746094 14.023438 29.535156 14.019531 C 30.566406 14.015625 30.777344 14.003906 31.125 13.933594 C 31.613281 13.832031 31.898438 13.851562 31.898438 13.984375 M 63.726562 17.046875 C 63.726562 17.121094 62.453125 17.191406 61.335938 17.179688 C 60.097656 17.167969 60.019531 17.089844 61.191406 17.027344 C 62.292969 16.96875 63.726562 16.980469 63.726562 17.046875 M 73.117188 17.46875 C 72.730469 17.507812 72.691406 17.617188 72.996094 17.789062 C 73.105469 17.851562 73.300781 17.988281 73.425781 18.089844 C 74.0625 18.605469 74.636719 18.679688 77.277344 18.601562 C 78.765625 18.558594 79.722656 18.550781 80.835938 18.566406 C 81.949219 18.585938 82.480469 18.582031 82.808594 18.546875 L 83.257812 18.503906 L 82.484375 18.332031 C 79.886719 17.757812 74.894531 17.296875 73.117188 17.46875 M 69.238281 17.65625 C 68.539062 17.71875 67.058594 17.933594 66.699219 18.023438 C 66.660156 18.035156 66.03125 18.171875 65.304688 18.332031 C 64.578125 18.488281 63.730469 18.707031 63.417969 18.820312 C 63.109375 18.929688 62.808594 19.023438 62.75 19.03125 C 62.6875 19.039062 62.640625 19.058594 62.640625 19.078125 C 62.640625 19.097656 62.488281 19.160156 62.300781 19.222656 C 61.035156 19.632812 61.449219 19.882812 63.257812 19.800781 C 64.464844 19.746094 65.722656 19.664062 65.90625 19.628906 C 65.988281 19.613281 66.378906 19.574219 66.777344 19.542969 C 67.882812 19.453125 71.234375 19.042969 71.519531 18.960938 C 71.867188 18.863281 71.839844 18.75 71.398438 18.386719 C 71.1875 18.21875 70.933594 17.996094 70.832031 17.890625 C 70.539062 17.597656 70.304688 17.5625 69.238281 17.65625 "/>
<path style=" stroke:none;fill-rule:evenodd;fill:rgb(95.686275%,95.686275%,95.686275%);fill-opacity:1;" d="M 0 18.007812 L 0 36.015625 L 145 36.015625 L 145 0 L 0 0 L 0 18.007812 M 77.9375 4.496094 C 78.496094 4.535156 79.507812 4.582031 80.183594 4.601562 C 81.535156 4.644531 82.617188 4.699219 84.167969 4.808594 C 84.726562 4.847656 85.316406 4.882812 85.480469 4.882812 C 85.648438 4.882812 86.105469 4.917969 86.5 4.964844 C 86.894531 5.011719 87.632812 5.078125 88.140625 5.109375 C 88.652344 5.140625 89.210938 5.1875 89.382812 5.214844 C 89.554688 5.242188 90.070312 5.292969 90.53125 5.332031 C 90.988281 5.371094 91.539062 5.433594 91.753906 5.46875 C 91.972656 5.507812 92.414062 5.554688 92.734375 5.574219 C 93.058594 5.59375 93.453125 5.640625 93.613281 5.679688 C 93.773438 5.714844 94.148438 5.761719 94.445312 5.785156 C 94.742188 5.808594 95.300781 5.878906 95.691406 5.9375 C 96.078125 6 96.734375 6.097656 97.144531 6.152344 C 97.558594 6.210938 98.167969 6.304688 98.5 6.363281 C 98.832031 6.421875 99.273438 6.492188 99.484375 6.519531 C 99.921875 6.582031 101.023438 6.769531 101.382812 6.847656 C 101.515625 6.875 101.808594 6.925781 102.035156 6.960938 C 102.257812 6.996094 102.578125 7.054688 102.746094 7.09375 C 102.910156 7.132812 103.304688 7.210938 103.613281 7.265625 C 104.359375 7.402344 109.628906 8.671875 110.15625 8.84375 C 110.378906 8.917969 110.671875 9.007812 110.808594 9.046875 C 111.332031 9.199219 112.078125 9.449219 112.285156 9.542969 C 112.402344 9.601562 112.609375 9.667969 112.742188 9.695312 C 112.871094 9.71875 113.078125 9.800781 113.199219 9.875 C 113.320312 9.945312 113.476562 10.007812 113.546875 10.007812 C 113.617188 10.007812 113.835938 10.082031 114.035156 10.175781 C 114.230469 10.269531 114.476562 10.367188 114.582031 10.394531 C 114.796875 10.449219 115.46875 10.734375 115.808594 10.914062 C 115.933594 10.980469 116.160156 11.089844 116.304688 11.15625 C 116.453125 11.222656 116.679688 11.335938 116.808594 11.402344 C 116.9375 11.46875 117.230469 11.617188 117.453125 11.734375 C 117.675781 11.847656 117.964844 12.027344 118.089844 12.132812 C 118.214844 12.234375 118.414062 12.355469 118.53125 12.398438 C 118.648438 12.441406 118.84375 12.578125 118.964844 12.707031 C 119.085938 12.835938 119.292969 12.988281 119.421875 13.046875 C 119.550781 13.105469 119.75 13.28125 119.859375 13.4375 C 119.972656 13.59375 120.1875 13.8125 120.339844 13.929688 C 120.492188 14.042969 120.722656 14.375 120.851562 14.660156 C 120.976562 14.949219 121.152344 15.332031 121.238281 15.511719 C 121.320312 15.695312 121.375 16.070312 121.355469 16.351562 C 121.320312 16.78125 121.355469 16.878906 121.574219 16.984375 C 121.847656 17.117188 121.796875 17.339844 121.363281 17.886719 C 121.28125 17.992188 121.148438 18.246094 121.070312 18.453125 C 120.980469 18.695312 120.777344 18.9375 120.503906 19.136719 C 120.269531 19.304688 120.03125 19.53125 119.976562 19.632812 C 119.921875 19.738281 119.726562 19.898438 119.546875 19.996094 C 119.363281 20.09375 119.132812 20.25 119.03125 20.34375 C 118.929688 20.441406 118.671875 20.589844 118.457031 20.675781 C 118.242188 20.761719 117.984375 20.894531 117.882812 20.972656 C 117.78125 21.050781 117.574219 21.152344 117.425781 21.207031 C 117.273438 21.257812 117.058594 21.375 116.949219 21.460938 C 116.835938 21.550781 116.578125 21.683594 116.378906 21.757812 C 116.175781 21.832031 115.96875 21.929688 115.921875 21.976562 C 115.871094 22.027344 115.605469 22.148438 115.335938 22.25 C 115.0625 22.351562 114.839844 22.453125 114.839844 22.476562 C 114.839844 22.496094 114.738281 22.535156 114.609375 22.5625 C 114.484375 22.585938 114.214844 22.6875 114.011719 22.785156 C 113.808594 22.878906 113.59375 22.96875 113.535156 22.976562 C 113.476562 22.988281 113.324219 23.042969 113.191406 23.097656 C 113.058594 23.15625 112.644531 23.308594 112.265625 23.433594 C 111.886719 23.5625 111.257812 23.773438 110.863281 23.90625 C 110.472656 24.039062 109.707031 24.253906 109.164062 24.390625 C 108.625 24.523438 107.964844 24.703125 107.707031 24.789062 C 107.445312 24.875 107.179688 24.953125 107.117188 24.960938 C 107.054688 24.964844 106.84375 25.046875 106.652344 25.136719 C 106.460938 25.226562 106.121094 25.332031 105.902344 25.367188 C 105.683594 25.398438 105.347656 25.464844 105.164062 25.511719 C 104.976562 25.554688 104.628906 25.617188 104.394531 25.644531 C 104.160156 25.675781 103.964844 25.710938 103.964844 25.726562 C 103.964844 25.738281 103.753906 25.78125 103.492188 25.816406 C 103.234375 25.851562 102.777344 25.929688 102.480469 25.992188 C 101.261719 26.234375 100.953125 26.289062 100.546875 26.332031 C 100.3125 26.355469 100.003906 26.410156 99.859375 26.453125 C 99.710938 26.5 99.496094 26.535156 99.375 26.535156 C 99.253906 26.535156 98.882812 26.589844 98.550781 26.65625 C 98.21875 26.726562 97.769531 26.792969 97.554688 26.800781 C 97.339844 26.8125 97.070312 26.855469 96.957031 26.894531 C 96.847656 26.9375 96.5 26.992188 96.191406 27.019531 C 95.882812 27.042969 95.441406 27.105469 95.21875 27.148438 C 94.992188 27.195312 94.695312 27.230469 94.558594 27.230469 C 94.425781 27.230469 93.957031 27.285156 93.523438 27.351562 C 93.09375 27.421875 92.628906 27.476562 92.5 27.476562 C 92.367188 27.476562 92.027344 27.511719 91.742188 27.558594 C 91.457031 27.605469 90.84375 27.671875 90.378906 27.707031 C 89.917969 27.742188 89.359375 27.804688 89.144531 27.84375 C 88.925781 27.886719 88.429688 27.933594 88.023438 27.945312 C 87.625 27.957031 87.148438 27.996094 86.964844 28.03125 C 86.398438 28.136719 85.105469 28.199219 83.011719 28.226562 C 82.695312 28.230469 82.171875 28.25 81.851562 28.273438 C 81.535156 28.296875 80.652344 28.328125 79.894531 28.34375 C 79.136719 28.363281 78.160156 28.402344 77.71875 28.433594 C 75.699219 28.570312 67.777344 28.578125 65.421875 28.445312 C 64.757812 28.410156 63.386719 28.363281 62.375 28.347656 C 60.570312 28.316406 59.734375 28.277344 59.398438 28.210938 C 59.304688 28.191406 58.644531 28.152344 57.925781 28.117188 C 57.210938 28.085938 56.394531 28.03125 56.113281 28 C 55.835938 27.964844 55.367188 27.929688 55.078125 27.917969 C 54.785156 27.90625 54.132812 27.855469 53.628906 27.804688 C 53.121094 27.753906 52.347656 27.679688 51.910156 27.640625 C 51.472656 27.601562 51.015625 27.550781 50.894531 27.527344 C 50.773438 27.503906 50.417969 27.460938 50.097656 27.4375 C 49.777344 27.410156 49.289062 27.355469 49.011719 27.316406 C 48.730469 27.277344 48.152344 27.207031 47.726562 27.164062 C 46.878906 27.078125 45.625 26.90625 45.167969 26.8125 C 45.007812 26.777344 44.566406 26.71875 44.1875 26.679688 C 43.808594 26.640625 43.5 26.59375 43.5 26.578125 C 43.5 26.5625 43.304688 26.53125 43.0625 26.503906 C 42.820312 26.476562 42.542969 26.4375 42.445312 26.417969 C 42.050781 26.328125 41.191406 26.183594 41.042969 26.183594 C 40.960938 26.183594 40.890625 26.171875 40.890625 26.160156 C 40.886719 26.144531 40.648438 26.09375 40.351562 26.046875 C 40.058594 25.996094 39.648438 25.921875 39.445312 25.875 C 39.242188 25.832031 38.785156 25.734375 38.425781 25.667969 C 36.183594 25.230469 33.289062 24.511719 31.609375 23.972656 C 31.332031 23.886719 30.890625 23.753906 30.632812 23.683594 C 30.378906 23.609375 30.164062 23.539062 30.164062 23.527344 C 30.160156 23.511719 29.914062 23.433594 29.609375 23.351562 C 29.308594 23.269531 28.773438 23.09375 28.425781 22.960938 C 28.078125 22.824219 27.6875 22.679688 27.5625 22.632812 C 27.144531 22.480469 26.582031 22.234375 25.726562 21.828125 C 25.261719 21.605469 24.761719 21.382812 24.613281 21.332031 C 24.46875 21.277344 24.25 21.15625 24.132812 21.0625 C 24.011719 20.964844 23.761719 20.8125 23.578125 20.71875 C 23.390625 20.628906 23.160156 20.476562 23.066406 20.382812 C 22.96875 20.285156 22.734375 20.128906 22.546875 20.03125 C 22.355469 19.9375 22.128906 19.75 22.042969 19.617188 C 21.953125 19.484375 21.753906 19.308594 21.601562 19.226562 C 21.371094 19.105469 21.320312 19.003906 21.324219 18.683594 C 21.328125 18.464844 21.269531 18.207031 21.1875 18.113281 C 20.710938 17.53125 20.628906 15.949219 21.03125 15.097656 C 21.109375 14.933594 21.230469 14.636719 21.304688 14.433594 C 21.382812 14.222656 21.5625 13.996094 21.726562 13.894531 C 21.886719 13.796875 22.128906 13.570312 22.265625 13.390625 C 22.402344 13.207031 22.601562 13.027344 22.703125 12.988281 C 22.804688 12.949219 23.023438 12.785156 23.191406 12.625 C 23.355469 12.460938 23.582031 12.304688 23.6875 12.273438 C 23.792969 12.246094 23.964844 12.140625 24.066406 12.046875 C 24.167969 11.949219 24.394531 11.816406 24.566406 11.75 C 24.742188 11.683594 25.003906 11.550781 25.152344 11.453125 C 25.300781 11.359375 25.574219 11.226562 25.761719 11.15625 C 25.949219 11.089844 26.101562 11.011719 26.101562 10.980469 C 26.101562 10.949219 26.285156 10.855469 26.511719 10.769531 C 27.140625 10.535156 27.5 10.390625 27.925781 10.199219 C 28.140625 10.101562 28.355469 10.015625 28.40625 10.007812 C 28.585938 9.972656 30.015625 9.445312 30.015625 9.414062 C 30.015625 9.394531 30.167969 9.355469 30.355469 9.328125 C 30.542969 9.296875 30.765625 9.238281 30.847656 9.191406 C 31.144531 9.035156 34.832031 8.03125 35.957031 7.796875 C 36.316406 7.722656 36.78125 7.621094 36.988281 7.570312 C 37.628906 7.414062 39.839844 6.972656 39.984375 6.972656 C 40.058594 6.972656 40.246094 6.941406 40.394531 6.898438 C 40.546875 6.859375 40.964844 6.777344 41.324219 6.71875 C 41.683594 6.660156 42.050781 6.59375 42.140625 6.574219 C 42.230469 6.554688 42.621094 6.492188 43.007812 6.433594 C 44.402344 6.226562 44.890625 6.152344 45.367188 6.085938 C 45.636719 6.046875 46.039062 5.980469 46.265625 5.933594 C 46.488281 5.890625 46.984375 5.828125 47.363281 5.796875 C 47.738281 5.765625 48.273438 5.707031 48.550781 5.660156 C 48.824219 5.617188 49.15625 5.578125 49.285156 5.578125 C 49.414062 5.578125 49.789062 5.539062 50.125 5.496094 C 50.457031 5.449219 51.109375 5.378906 51.574219 5.335938 C 52.039062 5.292969 52.613281 5.230469 52.851562 5.199219 C 53.089844 5.164062 53.671875 5.117188 54.136719 5.09375 C 54.605469 5.070312 55.300781 5.011719 55.679688 4.964844 C 56.0625 4.917969 56.496094 4.882812 56.648438 4.882812 C 56.796875 4.882812 57.375 4.847656 57.929688 4.808594 C 59.65625 4.6875 59.902344 4.675781 61.949219 4.601562 C 63.046875 4.5625 64.121094 4.511719 64.34375 4.492188 C 65.523438 4.375 76.179688 4.378906 77.9375 4.496094 "/>
<path style=" stroke:none;fill-rule:evenodd;fill:rgb(96.078431%,74.117647%,16.078431%);fill-opacity:1;" d="M 70 4.417969 C 70.738281 4.425781 71.945312 4.425781 72.679688 4.417969 C 73.417969 4.414062 72.816406 4.40625 71.339844 4.40625 C 69.863281 4.40625 69.261719 4.414062 70 4.417969 M 64.816406 4.46875 C 64.535156 4.484375 63.882812 4.519531 63.363281 4.546875 C 62.726562 4.582031 62.570312 4.597656 62.875 4.597656 C 63.121094 4.601562 63.839844 4.570312 64.46875 4.535156 C 65.097656 4.496094 65.808594 4.460938 66.046875 4.453125 C 66.390625 4.441406 66.363281 4.4375 65.902344 4.4375 C 65.582031 4.4375 65.09375 4.449219 64.816406 4.46875 M 76.488281 4.464844 C 76.964844 4.476562 77.554688 4.5 77.792969 4.511719 C 78.078125 4.523438 78.03125 4.515625 77.648438 4.480469 C 77.328125 4.457031 76.742188 4.433594 76.34375 4.433594 L 75.617188 4.4375 L 76.488281 4.464844 M 60.5 4.660156 C 60.640625 4.671875 60.871094 4.671875 61.007812 4.660156 C 61.148438 4.652344 61.035156 4.644531 60.753906 4.644531 C 60.476562 4.644531 60.363281 4.652344 60.5 4.660156 M 58.972656 4.730469 C 58.921875 4.742188 58.46875 4.777344 57.96875 4.8125 C 57.46875 4.847656 57.164062 4.878906 57.296875 4.878906 C 57.578125 4.882812 59.449219 4.746094 59.449219 4.722656 C 59.449219 4.699219 59.078125 4.703125 58.972656 4.730469 M 82.648438 4.71875 C 82.648438 4.746094 84.492188 4.882812 84.804688 4.878906 C 84.933594 4.878906 84.617188 4.84375 84.101562 4.808594 C 83.582031 4.769531 83.042969 4.730469 82.902344 4.71875 C 82.765625 4.707031 82.648438 4.707031 82.648438 4.71875 M 55.328125 5.003906 C 55.171875 5.03125 55.109375 5.054688 55.191406 5.054688 C 55.269531 5.054688 55.460938 5.03125 55.617188 5.003906 C 55.769531 4.976562 55.832031 4.953125 55.753906 4.953125 C 55.671875 4.953125 55.480469 4.976562 55.328125 5.003906 M 52.707031 5.214844 C 51.953125 5.324219 52.164062 5.324219 53.039062 5.210938 C 53.414062 5.164062 53.621094 5.125 53.503906 5.125 C 53.386719 5.128906 53.027344 5.167969 52.707031 5.214844 M 89.007812 5.210938 C 89.355469 5.257812 89.714844 5.300781 89.804688 5.300781 C 90.035156 5.300781 89.167969 5.175781 88.730469 5.144531 C 88.535156 5.132812 88.660156 5.160156 89.007812 5.210938 M 93.015625 5.621094 C 93.175781 5.640625 93.421875 5.683594 93.5625 5.710938 C 93.699219 5.738281 93.816406 5.75 93.816406 5.730469 C 93.816406 5.695312 93.058594 5.578125 92.851562 5.578125 C 92.78125 5.582031 92.859375 5.597656 93.015625 5.621094 M 46.351562 5.917969 C 46.0625 5.972656 45.46875 6.070312 45.035156 6.136719 C 44.601562 6.203125 44.265625 6.261719 44.292969 6.269531 C 44.359375 6.285156 44.871094 6.21875 45.121094 6.164062 C 45.230469 6.140625 45.542969 6.089844 45.824219 6.050781 C 46.101562 6.015625 46.359375 5.976562 46.398438 5.960938 C 46.441406 5.949219 46.632812 5.914062 46.832031 5.882812 C 47.027344 5.847656 47.117188 5.824219 47.03125 5.824219 C 46.945312 5.824219 46.640625 5.867188 46.351562 5.917969 M 95.265625 5.910156 C 95.535156 5.957031 95.792969 5.996094 95.835938 5.996094 C 95.972656 5.996094 95.054688 5.824219 94.910156 5.824219 C 94.835938 5.824219 94.996094 5.863281 95.265625 5.910156 M 95.988281 6.007812 C 95.988281 6.027344 97.542969 6.253906 98.019531 6.308594 C 98.328125 6.339844 98.339844 6.339844 98.109375 6.304688 C 96.957031 6.113281 95.988281 5.980469 95.988281 6.007812 M 43.027344 6.433594 C 42.488281 6.507812 42.519531 6.535156 43.066406 6.46875 C 43.304688 6.4375 43.5 6.40625 43.5 6.398438 C 43.5 6.375 43.484375 6.375 43.027344 6.433594 M 42.167969 6.566406 C 42.0625 6.589844 41.683594 6.660156 41.324219 6.71875 C 40.558594 6.84375 39.957031 6.992188 40.355469 6.953125 C 40.488281 6.941406 40.601562 6.917969 40.601562 6.898438 C 40.601562 6.882812 40.945312 6.816406 41.367188 6.75 C 41.789062 6.683594 42.222656 6.605469 42.328125 6.574219 C 42.558594 6.507812 42.441406 6.5 42.167969 6.566406 M 99.46875 6.535156 C 99.46875 6.542969 99.683594 6.585938 99.941406 6.628906 L 100.414062 6.707031 L 100.0625 6.613281 C 99.746094 6.53125 99.46875 6.492188 99.46875 6.535156 M 39.078125 7.136719 C 38.582031 7.242188 38.507812 7.269531 38.835938 7.214844 C 39.445312 7.117188 40.105469 6.972656 39.933594 6.976562 C 39.859375 6.976562 39.476562 7.046875 39.078125 7.136719 M 102.226562 7.019531 C 102.34375 7.042969 102.53125 7.085938 102.640625 7.113281 C 102.8125 7.15625 102.816406 7.15625 102.683594 7.089844 C 102.59375 7.050781 102.40625 7.007812 102.265625 6.996094 C 102.039062 6.976562 102.035156 6.980469 102.226562 7.019531 M 55.316406 7.304688 C 53.929688 7.359375 51 7.546875 50.472656 7.621094 C 50.265625 7.648438 49.804688 7.703125 49.445312 7.742188 C 49.085938 7.78125 48.464844 7.859375 48.066406 7.914062 C 47.667969 7.972656 47.269531 8.019531 47.179688 8.019531 C 47.09375 8.019531 46.773438 8.074219 46.46875 8.144531 C 46.164062 8.214844 45.570312 8.332031 45.152344 8.40625 C 44.296875 8.558594 43.574219 8.726562 42.796875 8.960938 C 42.511719 9.046875 41.964844 9.195312 41.582031 9.289062 C 41.203125 9.382812 40.890625 9.472656 40.890625 9.492188 C 40.890625 9.507812 40.660156 9.609375 40.382812 9.710938 C 40.101562 9.816406 39.875 9.917969 39.875 9.9375 C 39.875 9.957031 39.71875 10.03125 39.527344 10.105469 C 37.5625 10.855469 36.902344 12.882812 38.355469 13.71875 C 38.488281 13.792969 38.726562 13.957031 38.890625 14.082031 C 39.050781 14.210938 39.308594 14.355469 39.460938 14.40625 C 39.613281 14.460938 39.816406 14.554688 39.90625 14.617188 C 40.207031 14.824219 42.207031 15.4375 44.023438 15.878906 C 44.675781 16.035156 46.773438 16.457031 46.910156 16.457031 C 46.960938 16.457031 47.277344 16.503906 47.609375 16.558594 C 48.605469 16.730469 49.839844 16.824219 50.15625 16.757812 C 50.296875 16.726562 50.484375 16.703125 50.574219 16.703125 C 50.667969 16.703125 50.84375 16.617188 50.972656 16.511719 C 51.097656 16.40625 51.316406 16.285156 51.460938 16.242188 C 51.605469 16.195312 51.832031 16.105469 51.964844 16.039062 C 52.292969 15.871094 53.882812 15.480469 54.222656 15.480469 C 54.308594 15.480469 54.375 15.46875 54.375 15.453125 C 54.375 15.421875 55.300781 15.304688 55.535156 15.304688 C 55.609375 15.304688 56.046875 15.265625 56.507812 15.210938 C 58.824219 14.953125 63.855469 15.195312 66.691406 15.703125 C 66.964844 15.753906 67.277344 15.792969 67.382812 15.792969 C 67.484375 15.792969 67.710938 15.832031 67.882812 15.878906 C 68.054688 15.929688 68.242188 15.960938 68.300781 15.949219 C 68.441406 15.929688 68.152344 15.65625 67.992188 15.65625 C 67.921875 15.65625 67.757812 15.605469 67.625 15.542969 C 67.179688 15.335938 66.203125 15.070312 65.007812 14.828125 C 63.71875 14.570312 63.253906 14.492188 62.539062 14.414062 C 62.125 14.367188 61.75 14.316406 61.707031 14.296875 C 61.660156 14.28125 61.28125 14.25 60.863281 14.226562 C 59.230469 14.136719 58.871094 14.089844 58.871094 13.960938 C 58.871094 13.609375 65.722656 13.535156 67.792969 13.859375 C 68.535156 13.976562 69.746094 14.265625 69.746094 14.328125 C 69.746094 14.34375 69.914062 14.40625 70.117188 14.464844 C 70.320312 14.523438 70.605469 14.671875 70.75 14.792969 C 70.894531 14.910156 71.144531 15.066406 71.308594 15.132812 C 71.472656 15.199219 71.679688 15.347656 71.761719 15.460938 C 71.957031 15.71875 71.984375 15.722656 72.292969 15.578125 C 72.429688 15.515625 72.726562 15.410156 72.953125 15.347656 C 73.183594 15.285156 73.371094 15.207031 73.371094 15.171875 C 73.371094 15.140625 73.464844 15.078125 73.585938 15.039062 C 73.785156 14.96875 73.769531 14.964844 73.332031 14.917969 C 72.753906 14.863281 72.550781 14.800781 72.449219 14.652344 C 72.40625 14.589844 72.175781 14.414062 71.933594 14.265625 C 71.492188 13.988281 71.230469 13.554688 71.15625 12.96875 C 71.125 12.730469 71.097656 12.710938 70.832031 12.71875 C 69.363281 12.777344 69.15625 12.78125 69.023438 12.746094 C 68.785156 12.691406 68.851562 12.5625 69.238281 12.34375 C 69.4375 12.230469 69.601562 12.105469 69.601562 12.066406 C 69.601562 12.03125 69.824219 11.933594 70.101562 11.847656 C 70.378906 11.765625 70.820312 11.632812 71.082031 11.554688 C 71.34375 11.472656 71.753906 11.382812 71.992188 11.347656 C 72.230469 11.3125 72.503906 11.257812 72.601562 11.226562 C 72.695312 11.195312 73.074219 11.140625 73.441406 11.105469 C 74.402344 11.019531 74.203125 10.964844 72.921875 10.96875 C 72.066406 10.96875 71.671875 10.988281 70.976562 11.066406 C 70.5 11.117188 69.945312 11.179688 69.746094 11.203125 C 69.546875 11.222656 69.1875 11.273438 68.949219 11.3125 C 68.707031 11.351562 68.332031 11.40625 68.113281 11.433594 C 67.894531 11.460938 67.714844 11.492188 67.714844 11.507812 C 67.714844 11.519531 67.367188 11.597656 66.941406 11.675781 C 66.515625 11.753906 65.753906 11.9375 65.25 12.078125 C 63.460938 12.585938 62.609375 12.125 63.445312 11.105469 C 64.511719 9.800781 67.335938 9.246094 72.933594 9.238281 C 74.5625 9.238281 74.847656 9.210938 74.402344 9.105469 C 74.234375 9.0625 74.09375 9.019531 74.09375 9.003906 C 74.09375 8.964844 72.789062 8.640625 72.234375 8.542969 C 71.765625 8.457031 70.015625 8.128906 69.621094 8.050781 C 69.449219 8.015625 69.117188 7.96875 67.714844 7.792969 C 66.703125 7.664062 65.078125 7.496094 64.847656 7.496094 C 64.703125 7.496094 64.03125 7.457031 63.359375 7.410156 C 61.074219 7.253906 57.8125 7.210938 55.316406 7.304688 M 106.15625 7.882812 C 108.203125 8.371094 109.5 8.714844 111.570312 9.332031 C 111.773438 9.390625 111.941406 9.453125 111.941406 9.46875 C 111.941406 9.507812 113.003906 9.832031 113.082031 9.8125 C 113.121094 9.804688 112.984375 9.753906 112.78125 9.703125 C 112.578125 9.648438 112.332031 9.570312 112.234375 9.523438 C 112 9.414062 110.921875 9.070312 109.835938 8.757812 C 109.09375 8.542969 104.640625 7.457031 104.183594 7.378906 C 103.941406 7.339844 104.832031 7.566406 106.15625 7.882812 M 36.101562 7.765625 C 34.925781 8.011719 31.496094 8.933594 30.964844 9.152344 L 30.710938 9.257812 L 31.097656 9.152344 C 31.3125 9.09375 31.683594 8.984375 31.921875 8.910156 C 32.652344 8.671875 33.929688 8.335938 35.503906 7.960938 C 36.332031 7.761719 36.984375 7.601562 36.957031 7.601562 C 36.925781 7.601562 36.542969 7.675781 36.101562 7.765625 M 30.335938 9.328125 C 30.160156 9.359375 30.015625 9.398438 30.015625 9.421875 C 30.015625 9.441406 29.847656 9.515625 29.640625 9.585938 L 29.265625 9.710938 L 29.675781 9.597656 C 30.1875 9.460938 30.777344 9.273438 30.710938 9.273438 C 30.683594 9.273438 30.515625 9.300781 30.335938 9.328125 M 56.128906 9.363281 C 56.472656 9.390625 56.792969 9.429688 56.835938 9.441406 C 56.878906 9.457031 57.125 9.503906 57.382812 9.550781 C 58.277344 9.699219 57.96875 9.761719 56.34375 9.761719 C 54.808594 9.761719 54.503906 9.800781 53.582031 10.09375 C 52.636719 10.394531 51.988281 10.457031 51.203125 10.324219 C 50.96875 10.285156 50.71875 10.25 50.644531 10.25 C 50.574219 10.25 50.367188 10.21875 50.183594 10.175781 C 49.542969 10.03125 48.136719 10.019531 47.433594 10.152344 C 47.242188 10.1875 47 10.214844 46.898438 10.214844 C 46.796875 10.214844 46.519531 10.253906 46.285156 10.300781 C 45.5 10.460938 45.40625 10.191406 46.160156 9.9375 C 47.101562 9.621094 48.824219 9.5 50.28125 9.652344 C 51.394531 9.765625 51.929688 9.761719 52.558594 9.628906 C 53.234375 9.484375 54.15625 9.371094 54.882812 9.34375 C 55.203125 9.328125 55.46875 9.316406 55.480469 9.3125 C 55.492188 9.3125 55.78125 9.332031 56.128906 9.363281 M 28.933594 9.828125 C 28.816406 9.886719 28.625 9.953125 28.515625 9.980469 C 28.402344 10.003906 28.207031 10.082031 28.074219 10.148438 C 27.941406 10.214844 27.917969 10.238281 28.019531 10.203125 C 28.121094 10.167969 28.339844 10.097656 28.507812 10.046875 C 28.851562 9.945312 29.335938 9.726562 29.226562 9.726562 C 29.183594 9.726562 29.054688 9.773438 28.933594 9.828125 M 113.828125 10.128906 C 113.824219 10.191406 114.703125 10.503906 114.808594 10.480469 C 114.859375 10.464844 114.828125 10.445312 114.738281 10.429688 C 114.648438 10.417969 114.40625 10.335938 114.199219 10.25 C 113.996094 10.164062 113.828125 10.109375 113.828125 10.128906 M 27.546875 10.363281 C 27.125 10.515625 27.09375 10.546875 27.457031 10.441406 C 27.78125 10.351562 27.925781 10.285156 27.800781 10.285156 C 27.78125 10.285156 27.667969 10.320312 27.546875 10.363281 M 115.367188 10.773438 C 115.664062 10.90625 115.9375 11.007812 115.96875 11.003906 C 116.035156 10.984375 114.992188 10.53125 114.890625 10.53125 C 114.851562 10.53125 115.066406 10.640625 115.367188 10.773438 M 26.570312 10.75 C 26.3125 10.847656 26.105469 10.953125 26.113281 10.984375 C 26.117188 11.011719 26.222656 10.980469 26.34375 10.914062 C 26.464844 10.847656 26.613281 10.785156 26.671875 10.773438 C 26.816406 10.75 27.152344 10.597656 27.089844 10.582031 C 27.0625 10.578125 26.832031 10.652344 26.570312 10.75 M 25.726562 11.167969 C 25.339844 11.3125 24.902344 11.578125 25.011719 11.605469 C 25.058594 11.617188 25.136719 11.585938 25.1875 11.539062 C 25.238281 11.492188 25.46875 11.371094 25.695312 11.265625 C 26.160156 11.054688 26.175781 11 25.726562 11.167969 M 116 11.101562 C 116 11.117188 116.191406 11.214844 116.425781 11.324219 C 117.347656 11.757812 117.707031 11.949219 117.9375 12.140625 C 118.242188 12.390625 118.898438 12.730469 118.898438 12.640625 C 118.898438 12.601562 118.761719 12.507812 118.59375 12.429688 C 118.425781 12.355469 118.191406 12.214844 118.074219 12.117188 C 117.957031 12.019531 117.675781 11.847656 117.453125 11.734375 C 117.230469 11.617188 116.9375 11.46875 116.808594 11.402344 C 116.382812 11.183594 116 11.042969 116 11.101562 M 50.648438 11.25 C 50.824219 11.277344 50.183594 11.398438 49.867188 11.402344 C 49.742188 11.402344 49.550781 11.441406 49.445312 11.488281 C 49.339844 11.535156 49.203125 11.574219 49.140625 11.574219 C 49.082031 11.574219 48.816406 11.632812 48.550781 11.699219 C 47.992188 11.84375 47.335938 11.851562 46.566406 11.71875 C 46.257812 11.667969 45.917969 11.644531 45.355469 11.644531 C 44.5625 11.644531 43.957031 11.582031 44.128906 11.515625 C 44.375 11.417969 45.242188 11.367188 46.425781 11.375 C 47.578125 11.382812 48.574219 11.328125 48.574219 11.261719 C 48.574219 11.199219 50.25 11.191406 50.648438 11.25 M 24.523438 11.761719 C 24.351562 11.828125 24.214844 11.902344 24.21875 11.929688 C 24.21875 11.953125 24.382812 11.90625 24.582031 11.824219 C 25.015625 11.640625 24.964844 11.589844 24.523438 11.761719 M 23.996094 12.105469 C 23.9375 12.167969 23.808594 12.246094 23.710938 12.273438 C 23.46875 12.34375 23.160156 12.574219 23.238281 12.628906 C 23.273438 12.65625 23.351562 12.621094 23.414062 12.550781 C 23.476562 12.484375 23.648438 12.394531 23.796875 12.347656 C 24.066406 12.265625 24.3125 12.042969 24.171875 12.007812 C 24.132812 11.996094 24.050781 12.042969 23.996094 12.105469 M 78.738281 12.257812 C 78.738281 12.273438 78.472656 12.359375 78.15625 12.4375 C 77.835938 12.519531 77.574219 12.609375 77.574219 12.636719 C 77.574219 12.664062 77.40625 12.734375 77.203125 12.792969 C 77 12.851562 76.714844 12.976562 76.574219 13.074219 C 76.433594 13.167969 76.214844 13.277344 76.085938 13.308594 C 75.957031 13.34375 75.777344 13.449219 75.691406 13.546875 C 75.601562 13.640625 75.371094 13.800781 75.175781 13.902344 C 74.835938 14.074219 74.539062 14.429688 74.53125 14.671875 C 74.527344 14.8125 74.792969 14.816406 75.367188 14.6875 C 75.898438 14.566406 76.441406 14.464844 76.796875 14.414062 C 77.324219 14.339844 77.902344 14.078125 78.246094 13.761719 C 78.4375 13.585938 78.65625 13.414062 78.738281 13.378906 C 79.140625 13.210938 79.300781 12.398438 78.957031 12.289062 C 78.839844 12.25 78.742188 12.238281 78.738281 12.257812 M 23.074219 12.746094 C 23.0625 12.785156 22.925781 12.878906 22.765625 12.953125 C 22.605469 13.027344 22.476562 13.113281 22.476562 13.144531 C 22.476562 13.171875 22.644531 13.113281 22.847656 13.011719 C 23.050781 12.910156 23.191406 12.792969 23.15625 12.75 C 23.097656 12.679688 23.09375 12.679688 23.074219 12.746094 M 118.90625 12.796875 C 118.90625 12.84375 119.054688 12.960938 119.242188 13.058594 C 119.429688 13.15625 119.636719 13.3125 119.703125 13.40625 C 119.769531 13.503906 119.847656 13.550781 119.871094 13.511719 C 119.925781 13.433594 119.671875 13.203125 119.207031 12.902344 C 119 12.769531 118.910156 12.734375 118.90625 12.796875 M 22.199219 13.457031 C 22.101562 13.601562 21.890625 13.796875 21.730469 13.894531 C 21.546875 14.003906 21.414062 14.175781 21.382812 14.347656 L 21.328125 14.625 L 21.472656 14.351562 C 21.550781 14.203125 21.703125 14.035156 21.816406 13.984375 C 22.050781 13.875 22.523438 13.300781 22.433594 13.238281 C 22.402344 13.214844 22.292969 13.316406 22.199219 13.457031 M 119.921875 13.683594 C 119.921875 13.722656 120.078125 13.871094 120.273438 14.015625 C 120.46875 14.160156 120.628906 14.246094 120.632812 14.207031 C 120.632812 14.167969 120.476562 14.019531 120.28125 13.878906 C 120.085938 13.734375 119.925781 13.648438 119.921875 13.683594 M 120.730469 14.695312 C 120.769531 14.886719 120.863281 15.179688 120.9375 15.339844 C 121.011719 15.503906 121.074219 15.90625 121.074219 16.230469 C 121.078125 16.625 121.125 16.804688 121.21875 16.769531 C 121.296875 16.742188 121.363281 16.515625 121.363281 16.265625 C 121.367188 15.820312 121.28125 15.554688 120.863281 14.75 L 120.65625 14.347656 L 120.730469 14.695312 M 21.117188 14.859375 C 20.699219 15.585938 20.652344 17.183594 21.035156 17.851562 C 21.449219 18.585938 21.421875 18.542969 21.4375 18.390625 C 21.445312 18.316406 21.355469 17.96875 21.242188 17.625 C 20.988281 16.875 20.96875 16.085938 21.179688 15.3125 C 21.332031 14.765625 21.300781 14.546875 21.117188 14.859375 M 61.191406 17.027344 C 60.660156 17.054688 60.390625 17.085938 60.390625 17.121094 C 60.390625 17.191406 62.027344 17.207031 63.003906 17.144531 C 64.699219 17.035156 63.058594 16.929688 61.191406 17.027344 "/>
<path style=" stroke:none;fill-rule:evenodd;fill:rgb(43.529412%,70.196078%,96.862745%);fill-opacity:1;" d="M 120.894531 16.914062 C 120.707031 16.992188 120.640625 17.097656 120.640625 17.304688 C 120.644531 17.878906 120.335938 18.488281 119.980469 18.601562 C 119.738281 18.679688 119.636719 18.777344 119.558594 18.992188 C 119.46875 19.257812 119.425781 19.289062 118.964844 19.398438 C 118.6875 19.464844 118.464844 19.554688 118.464844 19.597656 C 118.464844 19.671875 118.460938 19.671875 118.078125 19.582031 C 117.707031 19.492188 117.648438 19.488281 116.449219 19.507812 C 113.597656 19.546875 111.753906 19.554688 109.832031 19.53125 C 108.105469 19.511719 107.722656 19.515625 107.296875 19.566406 C 106.960938 19.605469 106.710938 19.613281 106.546875 19.589844 C 105.988281 19.519531 105.851562 19.550781 105.851562 19.75 C 105.851562 19.871094 105.925781 19.957031 106.066406 19.992188 C 106.355469 20.058594 106.347656 20.308594 106.054688 20.414062 C 105.777344 20.515625 105.8125 20.6875 106.269531 21.410156 C 106.558594 21.863281 106.59375 22.0625 106.617188 23.429688 C 106.652344 25.1875 106.726562 25.089844 105.125 25.402344 C 102.84375 25.84375 100.789062 26.214844 100.175781 26.292969 C 99.988281 26.316406 99.703125 26.363281 99.542969 26.402344 C 99.171875 26.488281 97.777344 26.707031 97.609375 26.707031 C 97.539062 26.707031 97.195312 26.757812 96.84375 26.820312 C 96.496094 26.882812 95.554688 27.011719 94.757812 27.109375 C 93.960938 27.207031 93.144531 27.3125 92.945312 27.34375 C 92.746094 27.371094 92.320312 27.417969 92.003906 27.445312 C 91.683594 27.472656 91.203125 27.527344 90.929688 27.570312 C 90.660156 27.613281 90.324219 27.648438 90.183594 27.648438 C 90.042969 27.648438 89.554688 27.695312 89.097656 27.753906 C 88.636719 27.8125 87.964844 27.878906 87.59375 27.898438 C 87.226562 27.921875 86.570312 27.980469 86.128906 28.027344 C 85.152344 28.132812 83.664062 28.152344 83.300781 28.066406 C 83.0625 28.007812 83.089844 27.917969 83.527344 27.351562 C 84.109375 26.601562 84.097656 25.285156 83.503906 24.632812 C 83.417969 24.539062 83.257812 24.355469 83.148438 24.234375 C 82.695312 23.71875 82.113281 23.261719 81.628906 23.039062 C 81.476562 22.96875 81.210938 22.820312 81.039062 22.710938 C 80.867188 22.597656 80.414062 22.402344 80.035156 22.277344 C 79.660156 22.152344 79.238281 21.996094 79.097656 21.933594 C 78.960938 21.867188 78.71875 21.78125 78.5625 21.742188 C 78.40625 21.703125 78.175781 21.621094 78.050781 21.566406 C 77.925781 21.507812 77.734375 21.449219 77.625 21.433594 C 77.515625 21.417969 77.300781 21.347656 77.144531 21.277344 C 76.988281 21.203125 76.5625 21.070312 76.199219 20.976562 C 75.835938 20.886719 75.414062 20.75 75.265625 20.679688 C 75.117188 20.613281 74.855469 20.523438 74.683594 20.488281 C 74.515625 20.449219 74.253906 20.351562 74.101562 20.273438 C 73.953125 20.191406 73.699219 20.105469 73.539062 20.085938 C 73.378906 20.066406 73.207031 20 73.152344 19.945312 C 73.089844 19.875 72.96875 19.839844 72.800781 19.839844 C 72.550781 19.839844 72.066406 19.738281 72.066406 19.683594 C 72.066406 19.671875 71.832031 19.605469 71.550781 19.539062 L 71.035156 19.417969 L 70.570312 19.496094 C 70.316406 19.539062 70.085938 19.585938 70.058594 19.601562 C 69.980469 19.648438 69.242188 19.632812 68.695312 19.578125 C 68.207031 19.53125 68.179688 19.53125 67.78125 19.632812 C 67.484375 19.707031 67.234375 19.734375 66.882812 19.734375 C 66.613281 19.734375 66.210938 19.757812 65.988281 19.785156 C 65.503906 19.84375 65.101562 19.863281 63.675781 19.894531 C 62.984375 19.910156 62.527344 19.9375 62.371094 19.976562 C 62.238281 20.007812 61.957031 20.0625 61.742188 20.09375 C 61.441406 20.140625 61.332031 20.1875 61.261719 20.316406 C 61.113281 20.582031 60.824219 20.757812 60.164062 20.992188 L 59.546875 21.210938 L 59.144531 21.09375 C 58.921875 21.03125 58.695312 20.933594 58.644531 20.875 C 58.59375 20.820312 58.359375 20.699219 58.121094 20.609375 C 57.84375 20.5 57.664062 20.375 57.613281 20.253906 C 57.496094 19.980469 56.085938 19.628906 55.117188 19.628906 C 54.878906 19.628906 54.464844 19.597656 54.195312 19.5625 C 53.765625 19.5 52.78125 19.476562 52.78125 19.527344 C 52.78125 19.535156 52.664062 19.546875 52.527344 19.550781 C 52.386719 19.554688 52.042969 19.566406 51.765625 19.578125 C 50.980469 19.613281 49.96875 19.625 49.808594 19.601562 C 49.59375 19.570312 49.242188 19.574219 49.136719 19.609375 C 49.085938 19.625 48.898438 19.617188 48.71875 19.59375 C 48.417969 19.554688 47.914062 19.558594 47.015625 19.609375 C 46.835938 19.617188 46.691406 19.609375 46.691406 19.589844 C 46.691406 19.566406 43.667969 19.554688 37.882812 19.558594 C 28.121094 19.558594 27.714844 19.554688 25.953125 19.480469 C 25.277344 19.453125 24.6875 19.441406 24.648438 19.457031 C 24.484375 19.519531 23.71875 19.566406 23.648438 19.519531 C 23.617188 19.492188 23.40625 19.433594 23.1875 19.382812 C 22.867188 19.3125 22.738281 19.234375 22.554688 19 C 22.429688 18.84375 22.3125 18.710938 22.292969 18.707031 C 22.273438 18.703125 22.082031 18.675781 21.863281 18.644531 C 21.648438 18.609375 21.433594 18.585938 21.390625 18.585938 C 21.175781 18.585938 21.335938 19.085938 21.597656 19.226562 C 21.753906 19.308594 21.953125 19.484375 22.042969 19.617188 C 22.128906 19.75 22.355469 19.9375 22.546875 20.03125 C 22.734375 20.128906 22.96875 20.285156 23.066406 20.382812 C 23.160156 20.476562 23.390625 20.628906 23.578125 20.71875 C 23.761719 20.8125 24.011719 20.964844 24.132812 21.0625 C 24.25 21.15625 24.46875 21.277344 24.613281 21.332031 C 24.761719 21.382812 25.261719 21.605469 25.726562 21.828125 C 26.582031 22.234375 27.144531 22.480469 27.5625 22.632812 C 27.6875 22.679688 28.078125 22.824219 28.425781 22.960938 C 28.773438 23.09375 29.308594 23.269531 29.609375 23.351562 C 29.914062 23.433594 30.160156 23.511719 30.164062 23.527344 C 30.164062 23.539062 30.378906 23.609375 30.632812 23.683594 C 30.890625 23.753906 31.332031 23.886719 31.609375 23.972656 C 33.289062 24.511719 36.183594 25.230469 38.425781 25.667969 C 38.785156 25.734375 39.242188 25.832031 39.445312 25.875 C 39.648438 25.921875 40.058594 25.996094 40.351562 26.046875 C 40.648438 26.09375 40.886719 26.144531 40.890625 26.160156 C 40.890625 26.171875 40.960938 26.183594 41.042969 26.183594 C 41.191406 26.183594 42.050781 26.328125 42.445312 26.417969 C 42.542969 26.4375 42.820312 26.476562 43.0625 26.503906 C 43.304688 26.53125 43.5 26.5625 43.5 26.578125 C 43.5 26.59375 43.808594 26.640625 44.1875 26.679688 C 44.566406 26.71875 45.007812 26.777344 45.167969 26.8125 C 45.625 26.90625 46.878906 27.078125 47.726562 27.164062 C 48.152344 27.207031 48.730469 27.277344 49.011719 27.316406 C 49.289062 27.355469 49.777344 27.410156 50.097656 27.4375 C 50.417969 27.460938 50.773438 27.503906 50.894531 27.527344 C 51.015625 27.550781 51.472656 27.601562 51.910156 27.640625 C 52.347656 27.679688 53.121094 27.753906 53.628906 27.804688 C 54.132812 27.855469 54.785156 27.90625 55.078125 27.917969 C 55.367188 27.929688 55.835938 27.964844 56.113281 28 C 56.394531 28.03125 57.210938 28.085938 57.925781 28.117188 C 58.644531 28.152344 59.304688 28.191406 59.398438 28.210938 C 59.734375 28.277344 60.570312 28.316406 62.375 28.347656 C 63.386719 28.363281 64.757812 28.410156 65.421875 28.445312 C 67.777344 28.578125 75.699219 28.570312 77.71875 28.433594 C 78.160156 28.402344 79.136719 28.363281 79.894531 28.34375 C 80.652344 28.328125 81.535156 28.296875 81.851562 28.273438 C 82.171875 28.25 82.695312 28.230469 83.011719 28.226562 C 85.105469 28.199219 86.398438 28.136719 86.964844 28.03125 C 87.148438 27.996094 87.625 27.957031 88.023438 27.945312 C 88.429688 27.933594 88.925781 27.886719 89.144531 27.84375 C 89.359375 27.804688 89.917969 27.742188 90.378906 27.707031 C 90.84375 27.671875 91.457031 27.605469 91.742188 27.558594 C 92.027344 27.511719 92.367188 27.476562 92.5 27.476562 C 92.628906 27.476562 93.09375 27.421875 93.523438 27.351562 C 93.957031 27.285156 94.425781 27.230469 94.558594 27.230469 C 94.695312 27.230469 94.992188 27.195312 95.21875 27.148438 C 95.441406 27.105469 95.882812 27.042969 96.191406 27.019531 C 96.5 26.992188 96.847656 26.9375 96.957031 26.894531 C 97.070312 26.855469 97.339844 26.8125 97.554688 26.800781 C 97.769531 26.792969 98.21875 26.726562 98.550781 26.65625 C 98.882812 26.589844 99.253906 26.535156 99.375 26.535156 C 99.496094 26.535156 99.710938 26.5 99.859375 26.453125 C 100.003906 26.410156 100.3125 26.355469 100.546875 26.332031 C 100.953125 26.289062 101.261719 26.234375 102.480469 25.992188 C 102.777344 25.929688 103.234375 25.851562 103.492188 25.816406 C 103.753906 25.78125 103.964844 25.738281 103.964844 25.726562 C 103.964844 25.710938 104.160156 25.675781 104.394531 25.644531 C 104.628906 25.617188 104.976562 25.554688 105.164062 25.511719 C 105.347656 25.464844 105.683594 25.398438 105.902344 25.367188 C 106.121094 25.332031 106.460938 25.226562 106.652344 25.136719 C 106.84375 25.046875 107.054688 24.964844 107.117188 24.960938 C 107.179688 24.953125 107.445312 24.875 107.707031 24.789062 C 107.964844 24.703125 108.625 24.523438 109.164062 24.390625 C 109.707031 24.253906 110.472656 24.039062 110.863281 23.90625 C 111.257812 23.773438 111.886719 23.5625 112.265625 23.433594 C 112.644531 23.308594 113.058594 23.15625 113.191406 23.097656 C 113.324219 23.042969 113.476562 22.988281 113.535156 22.976562 C 113.59375 22.96875 113.808594 22.878906 114.011719 22.785156 C 114.214844 22.6875 114.484375 22.585938 114.609375 22.5625 C 114.738281 22.535156 114.839844 22.496094 114.839844 22.476562 C 114.839844 22.453125 115.0625 22.351562 115.335938 22.25 C 115.605469 22.148438 115.871094 22.027344 115.921875 21.976562 C 115.96875 21.929688 116.175781 21.832031 116.378906 21.757812 C 116.578125 21.683594 116.835938 21.550781 116.949219 21.460938 C 117.058594 21.375 117.273438 21.257812 117.425781 21.207031 C 117.574219 21.152344 117.78125 21.050781 117.882812 20.972656 C 117.984375 20.894531 118.242188 20.761719 118.457031 20.675781 C 118.671875 20.589844 118.929688 20.441406 119.03125 20.34375 C 119.132812 20.25 119.363281 20.09375 119.546875 19.996094 C 119.726562 19.898438 119.921875 19.738281 119.976562 19.632812 C 120.03125 19.53125 120.269531 19.304688 120.503906 19.136719 C 120.777344 18.9375 120.980469 18.695312 121.070312 18.453125 C 121.148438 18.246094 121.28125 17.992188 121.363281 17.886719 C 121.871094 17.234375 121.886719 17.101562 121.472656 16.9375 L 121.148438 16.808594 L 120.894531 16.914062 M 81.960938 19.375 C 81.777344 19.382812 81.667969 19.40625 81.714844 19.425781 C 81.761719 19.441406 81.859375 19.449219 81.933594 19.4375 C 82.007812 19.425781 82.070312 19.429688 82.070312 19.449219 C 82.070312 19.5 82.597656 19.632812 82.699219 19.605469 C 82.980469 19.539062 82.605469 19.296875 82.3125 19.355469 C 82.296875 19.359375 82.140625 19.367188 81.960938 19.375 M 79.722656 19.523438 C 79.769531 19.640625 79.832031 19.664062 80.164062 19.671875 C 80.464844 19.679688 80.558594 19.703125 80.59375 19.78125 C 80.621094 19.835938 80.75 19.886719 80.882812 19.898438 C 81.019531 19.910156 81.289062 19.953125 81.488281 20 C 81.6875 20.042969 82.03125 20.121094 82.25 20.171875 C 82.46875 20.21875 82.648438 20.285156 82.648438 20.3125 C 82.648438 20.339844 82.75 20.363281 82.871094 20.363281 C 82.992188 20.363281 83.207031 20.410156 83.351562 20.464844 C 83.492188 20.523438 83.777344 20.601562 83.984375 20.640625 C 84.191406 20.679688 84.398438 20.75 84.449219 20.796875 C 84.5 20.847656 84.632812 20.886719 84.75 20.886719 C 84.867188 20.886719 85.035156 20.921875 85.125 20.964844 C 85.21875 21.007812 85.574219 21.113281 85.917969 21.199219 C 86.53125 21.351562 87.289062 21.652344 87.289062 21.742188 C 87.289062 21.769531 87.375 21.800781 87.476562 21.816406 C 87.910156 21.882812 89.105469 22.332031 89.992188 22.769531 C 90.207031 22.875 90.433594 22.96875 90.492188 22.976562 C 90.660156 23.003906 92.074219 23.855469 92.074219 23.929688 C 92.074219 23.964844 92.214844 24.058594 92.382812 24.136719 C 92.6875 24.285156 92.753906 24.347656 93.074219 24.800781 C 93.214844 24.996094 93.324219 25.054688 93.710938 25.136719 C 94.3125 25.269531 94.316406 25.269531 94.746094 24.753906 C 94.949219 24.515625 95.203125 24.25 95.316406 24.164062 C 95.425781 24.078125 95.5625 23.886719 95.617188 23.746094 C 95.722656 23.460938 95.890625 23.21875 96.207031 22.890625 C 96.476562 22.605469 96.753906 21.1875 96.570312 21.007812 C 96.496094 20.929688 96.386719 20.722656 96.335938 20.542969 C 96.242188 20.242188 96.210938 20.21875 95.84375 20.164062 C 95.484375 20.113281 95.460938 20.097656 95.59375 19.996094 C 95.707031 19.90625 95.683594 19.855469 95.5 19.769531 C 95.371094 19.707031 95.265625 19.59375 95.265625 19.519531 C 95.265625 19.433594 95.207031 19.390625 95.117188 19.402344 C 95.035156 19.414062 95.003906 19.4375 95.046875 19.457031 C 95.335938 19.566406 93.335938 19.648438 92.894531 19.542969 C 92.550781 19.460938 91.988281 19.480469 91.679688 19.582031 L 91.402344 19.671875 L 90.941406 19.5625 C 90.691406 19.5 90.417969 19.460938 90.339844 19.472656 C 90.261719 19.484375 90.070312 19.476562 89.917969 19.457031 C 89.566406 19.414062 88.960938 19.519531 88.824219 19.648438 C 88.664062 19.800781 88.207031 19.757812 87.984375 19.570312 C 87.777344 19.394531 87.472656 19.347656 87.113281 19.433594 C 86.78125 19.511719 86.101562 19.523438 86.167969 19.445312 C 86.1875 19.417969 85.996094 19.398438 85.644531 19.390625 C 85.023438 19.378906 84.953125 19.445312 85.519531 19.507812 C 86.710938 19.636719 85.65625 19.746094 83.882812 19.679688 C 83.644531 19.667969 82.964844 19.664062 82.375 19.664062 C 81.785156 19.664062 81.21875 19.648438 81.121094 19.628906 C 81.023438 19.609375 80.707031 19.589844 80.417969 19.589844 C 79.945312 19.585938 79.894531 19.574219 79.894531 19.484375 C 79.894531 19.429688 79.84375 19.386719 79.78125 19.386719 C 79.71875 19.386719 79.695312 19.449219 79.722656 19.523438 "/>
</g>
</svg>
