<svg id="svg" version="1.1" xmlns="http://www.w3.org/2000/svg" xmlns:xlink="http://www.w3.org/1999/xlink" width="400" height="413.3333333333333" viewBox="0, 0, 400,413.3333333333333"><g id="svgg"><path id="path0" d="M233.600 71.354 C 232.390 71.828,230.642 72.617,229.716 73.108 C 228.790 73.599,227.775 74.000,227.461 74.000 C 227.147 74.000,226.015 74.588,224.945 75.306 C 223.875 76.025,222.480 76.879,221.844 77.204 C 220.702 77.788,216.000 82.695,216.000 83.302 C 216.000 83.475,215.577 84.287,215.061 85.108 C 213.492 87.601,212.962 91.368,213.539 95.917 C 214.089 100.245,216.409 108.504,217.374 109.572 C 217.718 109.952,217.997 110.789,217.994 111.431 C 217.987 112.831,217.428 113.892,217.033 113.254 C 216.887 113.017,215.926 112.451,214.898 111.996 C 213.870 111.541,212.738 110.906,212.382 110.584 C 212.026 110.261,210.702 109.807,209.440 109.574 C 208.178 109.340,206.055 108.801,204.721 108.375 C 195.321 105.372,183.151 110.133,178.497 118.635 C 175.354 124.377,173.836 134.441,175.545 138.200 C 176.868 141.107,177.099 141.074,180.154 137.542 C 181.669 135.791,183.559 133.872,184.353 133.279 C 185.147 132.686,186.068 131.912,186.399 131.561 C 188.459 129.370,193.803 126.265,197.400 125.169 C 198.720 124.766,200.863 124.069,202.162 123.619 C 204.787 122.709,208.087 122.570,211.201 123.238 C 213.705 123.775,213.621 124.385,210.929 125.196 C 209.825 125.528,208.670 125.988,208.361 126.217 C 207.713 126.698,206.632 127.189,203.709 128.331 C 195.191 131.659,186.739 146.919,194.618 144.744 C 196.745 144.157,196.922 144.530,197.247 150.300 C 197.583 156.292,198.123 159.894,198.918 161.466 C 199.234 162.090,199.808 163.590,200.195 164.800 C 201.688 169.469,203.568 168.203,205.162 161.455 C 205.414 160.385,205.960 158.765,206.374 157.855 C 206.788 156.945,207.518 155.030,207.998 153.600 C 208.477 152.170,209.104 150.730,209.393 150.400 C 209.681 150.070,210.196 148.967,210.537 147.950 C 210.878 146.932,211.572 145.458,212.078 144.675 C 212.585 143.891,213.450 142.505,214.000 141.594 C 215.191 139.622,218.762 136.049,222.521 133.067 C 226.485 129.923,227.476 130.502,235.756 140.800 C 236.552 141.790,237.832 143.351,238.601 144.268 C 239.371 145.185,240.000 146.040,240.000 146.167 C 240.000 146.294,240.630 147.275,241.400 148.347 C 242.170 149.419,242.800 150.440,242.800 150.616 C 242.800 150.793,243.056 151.221,243.368 151.569 C 243.680 151.916,244.580 153.325,245.368 154.700 C 246.156 156.075,247.448 158.325,248.240 159.700 C 250.905 164.327,252.678 167.788,253.413 169.800 C 253.814 170.900,254.450 172.250,254.825 172.800 C 255.200 173.350,255.826 174.970,256.216 176.400 C 256.606 177.830,257.080 179.202,257.269 179.449 C 257.747 180.072,260.410 187.490,260.771 189.200 C 260.933 189.970,261.272 191.230,261.525 192.000 C 262.996 196.486,264.000 200.285,264.001 201.365 C 264.001 202.809,264.976 208.378,265.581 210.397 C 266.125 212.211,266.118 215.432,265.568 216.460 C 264.370 218.698,254.728 219.225,247.600 217.442 C 245.510 216.920,243.132 216.374,242.316 216.231 C 240.390 215.892,238.536 214.024,237.999 211.879 C 237.767 210.956,236.953 208.725,236.189 206.922 C 235.425 205.119,234.800 203.516,234.800 203.360 C 234.800 203.204,234.382 202.519,233.871 201.838 C 231.526 198.715,231.271 196.184,233.201 195.199 C 236.301 193.618,235.218 192.035,228.887 188.892 L 225.075 187.000 219.238 187.003 C 214.426 187.005,213.189 187.128,212.200 187.700 C 210.866 188.473,209.378 188.612,209.000 188.000 C 208.864 187.780,209.087 187.600,209.496 187.600 C 210.402 187.600,211.200 186.859,211.200 186.019 C 211.200 185.341,213.074 184.313,217.400 182.618 C 222.374 180.669,235.925 180.786,240.124 182.814 C 244.534 184.945,246.488 182.672,243.536 178.846 C 243.131 178.321,242.800 177.682,242.800 177.426 C 242.800 176.900,238.942 171.963,238.168 171.498 C 237.891 171.332,236.885 170.471,235.932 169.584 C 230.500 164.530,218.861 163.054,213.657 166.760 C 213.008 167.222,212.357 167.600,212.212 167.600 C 211.977 167.600,211.304 168.072,208.221 170.400 C 205.257 172.638,203.569 175.021,200.065 181.914 L 198.730 184.540 197.975 183.349 C 197.561 182.694,196.870 180.457,196.441 178.379 C 194.169 167.373,190.408 161.290,184.000 158.258 C 182.356 157.480,181.559 157.409,174.800 157.439 C 165.813 157.479,164.270 157.860,164.079 160.088 L 163.958 161.500 166.679 162.184 C 168.175 162.560,169.760 163.063,170.200 163.302 C 170.640 163.541,172.044 164.255,173.320 164.889 C 174.596 165.523,175.946 166.289,176.320 166.591 C 176.694 166.893,178.404 168.256,180.120 169.619 C 186.097 174.367,192.728 183.883,191.673 186.199 C 191.109 187.438,190.855 187.443,189.377 186.248 C 188.730 185.725,186.753 184.129,184.985 182.703 C 174.699 174.405,163.515 172.013,154.574 176.200 C 152.929 176.970,151.412 177.600,151.203 177.600 C 150.406 177.600,145.746 182.691,144.795 184.600 C 144.248 185.700,143.589 186.870,143.330 187.200 C 141.655 189.341,138.800 200.682,138.800 205.196 C 138.800 207.888,139.872 210.160,140.547 208.898 C 141.764 206.625,149.177 199.368,154.457 195.282 C 156.076 194.029,158.542 194.085,159.195 195.390 C 159.872 196.743,161.530 197.207,162.450 196.301 C 162.752 196.002,163.757 195.457,164.683 195.089 C 165.609 194.721,167.139 194.074,168.083 193.652 C 173.600 191.184,182.349 191.482,185.359 194.239 C 187.275 195.995,187.197 196.247,184.500 197.007 C 177.741 198.911,171.636 201.004,170.378 201.847 C 169.597 202.371,168.748 202.800,168.493 202.800 C 167.525 202.800,162.870 207.649,161.865 209.704 C 160.522 212.451,160.443 213.063,160.025 224.071 C 159.944 226.215,153.967 225.224,150.018 222.413 C 149.431 221.995,148.422 221.521,147.776 221.360 C 147.129 221.199,143.990 219.826,140.800 218.309 C 137.610 216.792,134.055 215.111,132.900 214.575 C 131.745 214.039,129.855 213.161,128.700 212.625 C 125.259 211.027,118.808 208.730,115.600 207.960 C 113.950 207.564,111.520 206.852,110.200 206.377 C 107.014 205.232,90.692 205.063,85.400 206.120 C 81.072 206.986,74.912 208.599,73.200 209.315 C 72.430 209.637,70.360 210.316,68.600 210.824 C 66.840 211.331,64.773 212.164,64.007 212.673 C 63.241 213.183,62.206 213.600,61.707 213.600 C 60.807 213.600,60.442 214.211,61.190 214.467 C 61.405 214.540,61.868 216.114,62.218 217.966 C 62.727 220.653,63.079 221.539,63.962 222.366 C 64.570 222.934,65.146 223.636,65.242 223.925 C 65.427 224.480,67.547 223.932,67.992 223.214 C 68.106 223.029,69.730 223.152,71.600 223.486 C 76.452 224.354,77.577 224.384,104.500 224.368 C 120.459 224.358,128.800 224.491,128.800 224.754 C 128.800 224.974,129.205 225.064,129.700 224.953 C 132.179 224.399,133.564 224.353,134.393 224.796 C 134.893 225.064,135.414 225.129,135.551 224.941 C 135.838 224.549,136.815 224.508,137.400 224.865 C 137.843 225.135,140.632 224.999,142.800 224.603 C 143.570 224.462,144.515 224.320,144.900 224.288 C 145.285 224.255,145.600 224.132,145.601 224.014 C 145.603 223.437,148.324 223.712,149.506 224.410 C 150.243 224.844,151.387 225.200,152.050 225.200 C 154.718 225.200,158.610 229.240,158.930 232.341 C 159.076 233.761,159.566 235.181,160.337 236.422 C 160.988 237.468,161.636 238.853,161.778 239.499 C 161.920 240.144,162.538 241.275,163.152 242.011 L 164.269 243.349 165.968 240.847 C 167.794 238.159,168.591 236.117,168.996 233.092 C 169.195 231.608,169.490 231.036,170.326 230.513 C 170.917 230.143,171.697 229.543,172.061 229.179 C 172.491 228.749,173.749 228.424,175.661 228.251 C 179.586 227.895,180.698 227.673,182.034 226.982 C 182.653 226.662,183.766 226.400,184.505 226.400 C 185.473 226.400,186.168 226.068,186.982 225.218 C 188.082 224.071,188.154 224.054,189.506 224.618 C 191.011 225.248,193.052 225.392,193.267 224.886 C 193.340 224.713,193.976 224.167,194.680 223.673 L 195.959 222.775 197.380 224.154 C 198.161 224.913,198.800 225.700,198.800 225.905 C 198.800 226.479,200.189 227.600,200.900 227.600 C 201.282 227.600,201.642 228.080,201.801 228.803 C 201.946 229.465,202.427 230.201,202.870 230.438 C 203.313 230.675,204.012 231.629,204.423 232.559 C 204.834 233.489,205.557 234.599,206.028 235.025 C 206.499 235.451,207.221 236.459,207.632 237.263 C 208.043 238.068,209.199 239.598,210.202 240.663 C 211.204 241.729,212.378 243.265,212.810 244.079 C 213.241 244.892,213.841 245.702,214.143 245.879 C 214.445 246.055,214.971 246.740,215.312 247.400 C 215.653 248.060,216.288 248.977,216.724 249.438 C 217.159 249.898,217.825 250.875,218.204 251.608 C 218.583 252.341,219.747 254.124,220.791 255.570 C 221.835 257.017,223.077 259.249,223.551 260.531 C 224.025 261.814,224.761 263.524,225.187 264.331 C 226.524 266.865,228.124 272.092,229.372 278.000 C 229.675 279.430,230.118 281.500,230.358 282.600 C 231.994 290.094,232.023 305.161,230.419 313.800 C 229.211 320.302,229.134 321.306,229.793 321.964 C 230.795 322.967,234.905 322.736,237.600 321.527 C 238.810 320.984,240.629 320.332,241.643 320.078 C 242.657 319.825,244.520 319.073,245.784 318.409 C 247.047 317.744,248.398 317.200,248.785 317.200 C 249.172 317.200,250.098 316.795,250.844 316.300 C 251.590 315.805,252.920 315.156,253.800 314.857 C 254.680 314.558,255.850 314.025,256.400 313.672 C 256.950 313.320,259.200 312.115,261.400 310.995 C 263.600 309.876,266.192 308.384,267.160 307.680 C 268.128 306.976,269.077 306.400,269.270 306.400 C 269.731 306.400,273.581 303.861,274.600 302.886 C 275.040 302.464,275.828 301.894,276.350 301.619 C 278.042 300.727,283.711 296.484,290.002 291.400 C 294.417 287.832,294.212 288.956,294.121 268.800 C 294.051 253.124,293.955 250.825,293.160 245.600 C 291.899 237.311,291.798 235.369,292.564 234.199 C 293.370 232.968,293.392 230.134,292.600 229.343 C 292.214 228.957,292.000 227.968,292.000 226.571 C 292.000 224.297,292.383 223.937,293.926 224.759 C 294.374 224.997,295.065 224.897,295.989 224.459 C 297.168 223.899,298.221 223.841,302.989 224.070 C 308.288 224.326,313.369 224.246,321.236 223.783 C 324.548 223.588,324.710 223.619,325.736 224.645 C 326.787 225.696,326.800 225.698,326.800 224.815 C 326.800 224.323,327.418 223.302,328.174 222.546 C 329.447 221.273,329.568 220.932,329.822 217.886 C 330.028 215.417,330.317 214.302,330.984 213.400 C 331.981 212.053,332.808 205.089,332.803 198.090 L 332.800 194.380 330.700 194.431 C 329.545 194.459,327.340 194.272,325.800 194.015 C 318.616 192.817,307.826 193.655,303.400 195.757 C 302.300 196.279,300.700 197.006,299.844 197.373 C 298.250 198.057,289.425 203.722,288.469 204.675 C 285.772 207.366,283.390 206.629,282.400 202.800 C 282.144 201.810,281.708 200.640,281.430 200.200 C 281.152 199.760,280.546 198.221,280.083 196.779 C 279.620 195.338,278.691 193.115,278.020 191.839 C 277.349 190.563,276.800 189.250,276.800 188.921 C 276.800 188.592,276.452 187.835,276.028 187.239 C 275.603 186.642,274.945 185.354,274.565 184.377 C 274.186 183.400,273.663 182.330,273.402 182.000 C 273.142 181.670,272.521 180.372,272.024 179.116 C 271.527 177.859,270.888 176.639,270.604 176.403 C 270.320 176.168,269.688 175.035,269.200 173.887 C 268.711 172.739,268.023 171.473,267.669 171.073 C 266.940 170.248,265.707 168.261,264.236 165.544 C 263.683 164.524,262.995 163.444,262.706 163.144 C 262.417 162.845,261.138 161.070,259.862 159.200 C 256.009 153.549,253.772 150.454,252.146 148.525 C 251.296 147.516,250.459 146.450,250.286 146.156 C 250.114 145.862,248.764 144.396,247.286 142.898 C 245.809 141.399,243.117 138.649,241.304 136.787 C 239.490 134.924,237.089 132.505,235.967 131.411 L 233.927 129.422 234.986 128.511 C 236.378 127.314,246.098 126.982,249.402 128.020 C 250.063 128.227,251.883 128.558,253.446 128.754 C 255.964 129.070,260.712 130.929,262.534 132.312 C 262.790 132.507,263.630 132.904,264.400 133.194 C 266.269 133.900,272.800 137.975,272.800 138.436 C 272.800 138.636,272.979 138.800,273.197 138.800 C 273.661 138.800,275.159 139.993,277.341 142.100 C 278.195 142.925,279.029 143.600,279.193 143.600 C 279.358 143.600,279.954 143.963,280.518 144.407 C 282.161 145.700,282.984 141.415,281.535 139.115 C 281.218 138.612,280.708 137.390,280.401 136.400 C 278.322 129.686,271.494 119.015,267.760 116.644 C 265.314 115.091,259.985 113.870,256.800 114.133 C 250.906 114.621,246.569 115.300,245.420 115.916 C 238.038 119.875,234.258 116.661,240.952 112.118 C 241.859 111.503,242.660 110.866,242.733 110.701 C 243.531 108.907,252.119 106.313,259.200 105.727 C 262.327 105.468,262.784 105.208,262.794 103.680 C 262.802 102.449,263.813 100.557,264.631 100.244 C 266.230 99.630,278.029 101.545,281.600 102.997 C 284.894 104.337,286.548 104.495,287.548 103.562 L 288.379 102.788 286.756 100.694 C 285.863 99.542,284.176 97.340,283.007 95.800 C 280.652 92.697,275.473 87.656,273.000 86.059 C 269.311 83.678,266.011 82.000,265.016 82.000 C 264.731 82.000,263.812 81.713,262.973 81.363 C 255.516 78.247,238.743 86.402,234.432 95.240 C 233.960 96.208,233.239 97.630,232.831 98.400 C 230.736 102.348,228.800 107.342,228.800 108.795 C 228.800 111.700,225.917 110.657,225.394 107.563 C 224.935 104.845,226.710 92.695,227.994 89.773 C 231.178 82.525,233.391 78.987,237.060 75.279 C 238.630 73.691,238.728 73.473,238.307 72.479 C 237.356 70.233,236.801 70.100,233.600 71.354 M149.000 109.250 C 147.900 109.693,146.640 110.377,146.200 110.770 C 143.987 112.747,143.093 112.971,140.262 112.260 C 135.214 110.992,129.200 112.084,129.200 114.270 C 129.200 115.130,129.289 115.181,130.071 114.762 C 131.807 113.833,137.393 114.535,138.918 115.875 C 141.727 118.341,144.784 118.591,146.396 116.485 C 149.793 112.049,150.241 111.721,153.672 111.164 L 156.901 110.639 155.551 110.020 C 154.808 109.680,154.095 109.260,153.968 109.087 C 153.456 108.393,150.922 108.476,149.000 109.250 M136.500 129.476 C 136.885 129.576,137.515 129.576,137.900 129.476 C 138.285 129.375,137.970 129.293,137.200 129.293 C 136.430 129.293,136.115 129.375,136.500 129.476 M126.000 131.995 C 126.000 132.213,126.731 132.508,127.626 132.650 C 128.520 132.793,129.874 133.333,130.636 133.850 L 132.021 134.790 132.475 133.795 C 132.724 133.248,133.045 132.800,133.188 132.800 C 133.330 132.800,133.796 132.536,134.224 132.213 C 134.921 131.685,134.544 131.624,130.500 131.613 C 127.794 131.605,126.000 131.758,126.000 131.995 M306.027 154.382 C 304.831 154.767,303.211 155.615,302.427 156.266 C 300.224 158.095,300.192 158.101,296.576 157.384 C 290.383 156.155,286.202 157.167,285.935 159.960 C 285.776 161.627,286.721 162.271,287.820 161.246 C 288.800 160.331,292.564 160.356,294.275 161.288 C 295.196 161.789,296.902 162.718,298.064 163.352 L 300.179 164.504 301.864 163.610 C 302.791 163.118,304.014 162.045,304.582 161.225 C 306.716 158.147,307.523 157.658,311.149 157.253 C 316.102 156.698,316.328 156.071,312.200 154.322 C 310.204 153.477,308.795 153.491,306.027 154.382 M85.865 159.846 C 84.902 160.674,84.322 160.805,81.478 160.840 C 76.539 160.900,75.795 161.227,78.455 162.170 C 79.635 162.588,81.109 163.351,81.731 163.865 C 83.276 165.143,84.122 165.041,85.352 163.427 C 85.928 162.672,86.760 161.940,87.200 161.800 C 87.751 161.625,88.000 161.195,88.000 160.416 C 88.000 158.899,87.211 158.688,85.865 159.846 M211.467 201.435 C 218.801 203.864,223.149 206.263,227.538 210.304 L 229.676 212.272 228.439 212.784 C 227.536 213.158,226.071 213.219,222.998 213.009 C 219.924 212.800,217.283 212.909,213.178 213.417 C 205.891 214.318,204.308 213.438,202.553 207.512 C 202.209 206.350,201.673 204.809,201.364 204.086 C 199.486 199.710,203.265 198.719,211.467 201.435 M195.398 205.253 C 195.681 206.434,196.383 208.995,196.956 210.945 C 198.183 215.110,198.251 216.416,197.300 217.536 C 196.512 218.464,187.260 223.164,184.210 224.185 C 183.115 224.552,182.035 225.003,181.810 225.188 C 181.304 225.603,177.836 226.540,174.502 227.164 C 169.513 228.096,168.378 225.245,171.860 220.527 C 172.377 219.826,172.800 219.076,172.800 218.860 C 172.800 218.644,172.935 218.407,173.100 218.333 C 173.265 218.260,174.098 217.164,174.951 215.897 C 175.804 214.630,178.144 212.110,180.151 210.297 C 182.158 208.484,183.890 206.905,184.000 206.788 C 184.992 205.739,189.071 203.281,191.000 202.571 C 193.944 201.488,194.589 201.881,195.398 205.253 M227.767 222.243 C 228.391 222.482,228.659 224.407,228.141 224.926 C 227.856 225.211,226.400 223.696,226.400 223.115 C 226.400 222.916,226.232 222.856,226.028 222.983 C 225.823 223.109,225.550 223.043,225.422 222.835 C 225.293 222.627,225.596 222.379,226.094 222.283 C 226.592 222.187,227.030 222.084,227.067 222.054 C 227.104 222.025,227.419 222.109,227.767 222.243 M220.400 223.535 C 220.400 224.563,220.537 224.676,221.846 224.725 C 222.642 224.755,223.514 224.963,223.784 225.187 C 224.055 225.411,225.609 225.588,227.238 225.580 C 228.867 225.572,230.740 225.652,231.400 225.759 C 236.288 226.548,239.206 225.277,235.918 223.792 C 234.353 223.084,234.546 222.333,236.258 222.473 C 237.229 222.553,237.763 222.785,237.700 223.100 C 237.526 223.971,239.395 223.863,240.308 222.949 C 241.309 221.948,242.141 222.487,242.711 224.503 C 243.327 226.684,244.592 227.169,245.037 225.394 C 245.409 223.913,247.084 222.710,248.051 223.227 C 248.472 223.453,248.995 223.527,249.213 223.392 C 249.431 223.257,250.180 223.718,250.878 224.417 L 252.147 225.686 252.907 224.643 C 253.765 223.465,255.317 223.260,256.257 224.200 C 257.474 225.417,262.996 224.488,262.200 223.200 C 262.083 223.011,262.170 222.742,262.393 222.604 C 262.642 222.450,262.800 222.959,262.800 223.915 C 262.800 224.774,263.094 226.066,263.453 226.785 C 263.959 227.801,264.016 228.385,263.707 229.393 C 263.343 230.578,263.403 230.747,264.394 231.333 C 265.414 231.935,265.497 232.202,265.750 235.687 C 265.899 237.729,266.193 240.120,266.405 241.000 C 266.906 243.083,266.145 259.334,265.394 262.600 C 264.529 266.359,264.067 269.151,263.772 272.400 C 263.622 274.050,263.248 276.210,262.941 277.200 C 262.633 278.190,261.927 281.250,261.370 284.000 C 260.181 289.879,260.177 289.885,258.510 288.388 C 257.442 287.429,257.141 286.762,256.759 284.515 C 255.878 279.330,255.692 278.591,254.848 276.919 C 254.382 275.995,254.000 274.915,253.999 274.519 C 253.999 273.685,250.093 263.913,249.637 263.606 C 249.469 263.493,248.846 262.410,248.253 261.200 C 245.808 256.215,242.511 251.029,241.312 250.280 C 241.030 250.104,240.800 249.726,240.800 249.440 C 240.800 248.417,238.709 244.969,237.016 243.200 C 236.068 242.210,235.085 240.995,234.832 240.500 C 234.579 240.005,234.112 239.600,233.794 239.600 C 233.475 239.600,233.102 239.147,232.963 238.594 C 232.824 238.040,232.247 237.223,231.681 236.778 C 231.115 236.333,230.328 235.436,229.932 234.784 C 229.536 234.133,228.939 233.600,228.606 233.600 C 228.273 233.600,228.000 233.338,228.000 233.018 C 228.000 232.698,227.505 231.973,226.900 231.407 C 226.295 230.841,225.350 229.957,224.800 229.443 C 224.250 228.929,223.498 228.405,223.129 228.278 C 222.760 228.151,222.400 227.542,222.329 226.924 C 222.228 226.046,221.968 225.773,221.140 225.677 C 220.126 225.560,219.113 222.400,220.089 222.400 C 220.260 222.400,220.400 222.911,220.400 223.535 " stroke="none" fill="#273b5b" fill-rule="evenodd"></path><path id="path1" d="M182.400 51.048 C 181.850 51.145,179.780 51.570,177.800 51.991 C 175.820 52.413,172.039 53.038,169.398 53.380 C 166.756 53.723,163.666 54.356,162.530 54.787 C 161.394 55.219,159.348 55.752,157.982 55.972 C 156.616 56.192,154.783 56.745,153.907 57.201 C 153.032 57.658,151.146 58.302,149.715 58.634 C 148.285 58.966,146.729 59.487,146.258 59.792 C 145.786 60.098,144.320 60.742,143.000 61.224 C 141.680 61.706,139.321 62.708,137.758 63.450 C 136.195 64.193,134.783 64.800,134.621 64.800 C 134.459 64.800,133.869 65.159,133.311 65.599 C 132.752 66.038,131.636 66.575,130.831 66.792 C 130.025 67.009,129.013 67.513,128.583 67.913 C 128.152 68.313,127.173 68.991,126.407 69.420 C 125.641 69.849,124.753 70.446,124.432 70.746 C 124.112 71.047,123.085 71.621,122.150 72.021 C 121.215 72.422,120.124 73.043,119.725 73.401 C 118.996 74.056,117.981 74.774,114.100 77.380 C 112.945 78.155,112.000 78.960,112.000 79.168 C 112.000 79.376,111.669 79.651,111.265 79.779 C 110.861 79.908,109.969 80.505,109.284 81.106 C 108.598 81.708,106.913 83.100,105.540 84.200 C 101.435 87.487,90.682 98.496,88.450 101.696 C 87.816 102.606,83.670 107.970,81.877 110.200 C 81.346 110.860,80.596 112.030,80.209 112.800 C 79.823 113.570,79.186 114.560,78.795 115.000 C 78.404 115.440,77.750 116.431,77.342 117.202 C 76.934 117.973,76.226 119.143,75.770 119.802 C 75.313 120.461,74.706 121.585,74.421 122.300 C 74.136 123.015,73.757 123.600,73.578 123.600 C 73.400 123.600,73.131 124.005,72.982 124.500 C 72.677 125.509,70.207 130.849,68.218 134.800 C 67.498 136.230,66.802 138.094,66.673 138.942 C 66.543 139.791,66.114 140.961,65.721 141.542 C 64.915 142.733,64.015 145.389,64.006 146.606 C 64.003 147.049,63.632 148.099,63.181 148.939 C 62.731 149.779,62.005 152.452,61.568 154.878 C 61.132 157.305,60.523 159.776,60.215 160.370 C 57.866 164.913,57.424 210.508,59.700 213.483 C 60.199 214.135,62.248 213.728,64.000 212.630 C 64.770 212.147,66.840 211.336,68.600 210.826 C 70.360 210.317,72.430 209.637,73.200 209.315 C 74.912 208.599,81.072 206.986,85.400 206.120 C 90.692 205.063,107.014 205.232,110.200 206.377 C 111.520 206.852,113.950 207.564,115.600 207.960 C 118.749 208.716,125.207 211.007,128.600 212.572 C 132.244 214.254,134.940 215.521,140.800 218.309 C 143.990 219.826,147.129 221.199,147.776 221.360 C 148.422 221.521,149.431 221.995,150.018 222.413 C 153.967 225.224,159.944 226.215,160.025 224.071 C 160.443 213.063,160.522 212.451,161.865 209.704 C 162.870 207.649,167.525 202.800,168.493 202.800 C 168.748 202.800,169.597 202.371,170.378 201.847 C 171.636 201.004,177.741 198.911,184.500 197.007 C 187.197 196.247,187.275 195.995,185.359 194.239 C 182.349 191.482,173.600 191.184,168.083 193.652 C 167.139 194.074,165.609 194.721,164.683 195.089 C 163.757 195.457,162.752 196.002,162.450 196.301 C 161.530 197.207,159.872 196.743,159.195 195.390 C 158.542 194.085,156.076 194.029,154.457 195.282 C 149.177 199.368,141.764 206.625,140.547 208.898 C 139.872 210.160,138.800 207.888,138.800 205.196 C 138.800 200.682,141.655 189.341,143.330 187.200 C 143.589 186.870,144.248 185.700,144.795 184.600 C 145.746 182.691,150.406 177.600,151.203 177.600 C 151.412 177.600,152.929 176.970,154.574 176.200 C 163.515 172.013,174.699 174.405,184.985 182.703 C 186.753 184.129,188.730 185.725,189.377 186.248 C 190.855 187.443,191.109 187.438,191.673 186.199 C 192.728 183.883,186.097 174.367,180.120 169.619 C 178.404 168.256,176.694 166.893,176.320 166.591 C 175.946 166.289,174.596 165.523,173.320 164.889 C 172.044 164.255,170.640 163.541,170.200 163.302 C 169.760 163.063,168.175 162.560,166.679 162.184 L 163.958 161.500 164.079 160.088 C 164.406 156.280,182.037 156.098,186.731 159.855 C 191.960 164.039,194.469 168.826,196.441 178.379 C 196.870 180.457,197.561 182.694,197.975 183.349 L 198.730 184.540 200.065 181.914 C 203.569 175.021,205.257 172.638,208.221 170.400 C 211.304 168.072,211.977 167.600,212.212 167.600 C 212.357 167.600,213.008 167.222,213.657 166.760 C 218.861 163.054,230.500 164.530,235.932 169.584 C 236.885 170.471,237.891 171.332,238.168 171.498 C 238.942 171.963,242.800 176.900,242.800 177.426 C 242.800 177.682,243.131 178.321,243.536 178.846 C 246.488 182.672,244.534 184.945,240.124 182.814 C 235.925 180.786,222.374 180.669,217.400 182.618 C 213.074 184.313,211.200 185.341,211.200 186.019 C 211.200 186.859,210.402 187.600,209.496 187.600 C 209.087 187.600,208.864 187.780,209.000 188.000 C 209.378 188.612,210.866 188.473,212.200 187.700 C 213.189 187.128,214.426 187.005,219.238 187.003 L 225.075 187.000 228.887 188.892 C 235.218 192.035,236.301 193.618,233.201 195.199 C 231.271 196.184,231.526 198.715,233.871 201.838 C 234.382 202.519,234.800 203.204,234.800 203.360 C 234.800 203.516,235.425 205.119,236.189 206.922 C 236.953 208.725,237.767 210.956,237.999 211.879 C 238.536 214.024,240.390 215.892,242.316 216.231 C 243.132 216.374,245.510 216.920,247.600 217.442 C 254.728 219.225,264.370 218.698,265.568 216.460 C 266.118 215.432,266.125 212.211,265.581 210.397 C 264.976 208.378,264.001 202.809,264.001 201.365 C 264.000 200.285,262.996 196.486,261.525 192.000 C 261.272 191.230,260.933 189.970,260.771 189.200 C 260.410 187.490,257.747 180.072,257.269 179.449 C 257.080 179.202,256.606 177.830,256.216 176.400 C 255.826 174.970,255.200 173.350,254.825 172.800 C 254.450 172.250,253.814 170.900,253.413 169.800 C 252.678 167.788,250.905 164.327,248.240 159.700 C 247.448 158.325,246.156 156.075,245.368 154.700 C 244.580 153.325,243.680 151.916,243.368 151.569 C 243.056 151.221,242.800 150.793,242.800 150.616 C 242.800 150.440,242.170 149.419,241.400 148.347 C 240.630 147.275,240.000 146.294,240.000 146.167 C 240.000 146.040,239.371 145.185,238.601 144.268 C 237.832 143.351,236.552 141.790,235.756 140.800 C 227.476 130.502,226.485 129.923,222.521 133.067 C 218.762 136.049,215.191 139.622,214.000 141.594 C 213.450 142.505,212.585 143.891,212.078 144.675 C 211.572 145.458,210.878 146.932,210.537 147.950 C 210.196 148.967,209.681 150.070,209.393 150.400 C 209.104 150.730,208.477 152.170,207.998 153.600 C 207.518 155.030,206.788 156.945,206.374 157.855 C 205.960 158.765,205.414 160.385,205.162 161.455 C 203.568 168.203,201.688 169.469,200.195 164.800 C 199.808 163.590,199.234 162.090,198.918 161.466 C 198.123 159.894,197.583 156.292,197.247 150.300 C 196.922 144.530,196.745 144.157,194.618 144.744 C 186.739 146.919,195.191 131.659,203.709 128.331 C 206.632 127.189,207.713 126.698,208.361 126.217 C 208.670 125.988,209.825 125.528,210.929 125.196 C 213.621 124.385,213.705 123.775,211.201 123.238 C 208.087 122.570,204.787 122.709,202.162 123.619 C 200.863 124.069,198.720 124.766,197.400 125.169 C 193.803 126.265,188.459 129.370,186.399 131.561 C 186.068 131.912,185.147 132.686,184.353 133.279 C 183.559 133.872,181.669 135.791,180.154 137.542 C 177.099 141.074,176.868 141.107,175.545 138.200 C 173.836 134.441,175.354 124.377,178.497 118.635 C 183.151 110.133,195.321 105.372,204.721 108.375 C 206.055 108.801,208.178 109.340,209.440 109.574 C 210.702 109.807,212.026 110.261,212.382 110.584 C 212.738 110.906,213.870 111.541,214.898 111.996 C 215.926 112.451,216.887 113.017,217.033 113.254 C 217.428 113.892,217.987 112.831,217.994 111.431 C 217.997 110.789,217.718 109.952,217.374 109.572 C 216.409 108.504,214.089 100.245,213.539 95.917 C 212.962 91.368,213.492 87.601,215.061 85.108 C 215.577 84.287,216.000 83.475,216.000 83.302 C 216.000 82.695,220.702 77.788,221.844 77.204 C 222.480 76.879,223.875 76.025,224.945 75.306 C 226.015 74.588,227.185 73.998,227.545 73.995 C 227.905 73.993,228.920 73.581,229.800 73.081 C 234.743 70.270,237.267 70.046,238.228 72.331 C 238.731 73.529,238.691 73.629,237.053 75.286 C 233.391 78.987,231.176 82.529,227.994 89.773 C 226.710 92.695,224.935 104.845,225.394 107.563 C 225.917 110.657,228.800 111.700,228.800 108.795 C 228.800 107.342,230.736 102.348,232.831 98.400 C 233.239 97.630,233.960 96.208,234.432 95.240 C 238.743 86.402,255.516 78.247,262.973 81.363 C 263.812 81.713,264.731 82.000,265.016 82.000 C 266.011 82.000,269.311 83.678,273.000 86.059 C 275.473 87.656,280.652 92.697,283.007 95.800 C 284.176 97.340,285.863 99.542,286.756 100.694 L 288.379 102.788 287.548 103.562 C 286.548 104.495,284.894 104.337,281.600 102.997 C 278.029 101.545,266.230 99.630,264.631 100.244 C 263.813 100.557,262.802 102.449,262.794 103.680 C 262.784 105.208,262.327 105.468,259.200 105.727 C 252.119 106.313,243.531 108.907,242.733 110.701 C 242.660 110.866,241.859 111.503,240.952 112.118 C 234.258 116.661,238.038 119.875,245.420 115.916 C 246.569 115.300,250.906 114.621,256.800 114.133 C 259.985 113.870,265.314 115.091,267.760 116.644 C 271.494 119.015,278.322 129.686,280.401 136.400 C 280.708 137.390,281.218 138.612,281.535 139.115 C 282.984 141.415,282.161 145.700,280.518 144.407 C 279.954 143.963,279.358 143.600,279.193 143.600 C 279.029 143.600,278.195 142.925,277.341 142.100 C 275.159 139.993,273.661 138.800,273.197 138.800 C 272.979 138.800,272.800 138.636,272.800 138.436 C 272.800 137.975,266.269 133.900,264.400 133.194 C 263.630 132.904,262.790 132.507,262.534 132.312 C 260.712 130.929,255.964 129.070,253.446 128.754 C 251.883 128.558,250.063 128.227,249.402 128.020 C 246.098 126.982,236.378 127.314,234.986 128.511 L 233.927 129.422 235.967 131.411 C 237.089 132.505,239.490 134.924,241.304 136.787 C 243.117 138.649,245.809 141.399,247.286 142.898 C 248.764 144.396,250.114 145.862,250.286 146.156 C 250.459 146.450,251.296 147.516,252.146 148.525 C 253.772 150.454,256.009 153.549,259.862 159.200 C 261.138 161.070,262.417 162.845,262.706 163.144 C 262.995 163.444,263.683 164.524,264.236 165.544 C 265.707 168.261,266.940 170.248,267.669 171.073 C 268.023 171.473,268.711 172.739,269.200 173.887 C 269.688 175.035,270.320 176.168,270.604 176.403 C 270.888 176.639,271.527 177.859,272.024 179.116 C 272.521 180.372,273.142 181.670,273.402 182.000 C 273.663 182.330,274.186 183.400,274.565 184.377 C 274.945 185.354,275.603 186.642,276.028 187.239 C 276.452 187.835,276.800 188.592,276.800 188.921 C 276.800 189.250,277.349 190.563,278.020 191.839 C 278.691 193.115,279.620 195.338,280.083 196.779 C 280.546 198.221,281.152 199.760,281.430 200.200 C 281.708 200.640,282.144 201.810,282.400 202.800 C 283.390 206.629,285.772 207.366,288.469 204.675 C 289.425 203.722,298.250 198.057,299.844 197.373 C 300.700 197.006,302.300 196.279,303.400 195.757 C 307.847 193.645,318.168 192.843,325.863 194.010 C 330.612 194.730,333.221 194.663,333.699 193.809 C 334.775 191.886,333.133 164.635,331.673 160.200 C 331.239 158.880,330.651 156.450,330.367 154.800 C 330.083 153.150,329.436 150.900,328.929 149.800 C 328.422 148.700,328.006 147.380,328.004 146.867 C 328.002 146.354,327.476 144.734,326.836 143.267 C 326.196 141.800,325.459 139.790,325.198 138.800 C 324.937 137.810,324.308 136.190,323.799 135.200 C 323.291 134.210,322.209 131.960,321.395 130.200 C 319.058 125.145,316.859 120.968,315.372 118.758 C 314.617 117.637,314.000 116.567,314.000 116.380 C 314.000 116.194,313.550 115.556,313.000 114.962 C 312.450 114.369,311.998 113.684,311.996 113.442 C 311.993 113.199,311.275 112.100,310.400 111.000 C 309.525 109.900,308.807 108.845,308.804 108.655 C 308.800 108.277,308.463 107.847,303.123 101.400 C 299.261 96.739,288.743 86.071,285.395 83.420 C 284.298 82.552,283.220 81.638,283.000 81.390 C 282.780 81.143,282.060 80.593,281.400 80.170 C 280.740 79.746,279.813 79.068,279.341 78.663 C 278.868 78.258,277.158 77.040,275.540 75.958 C 273.923 74.876,272.240 73.714,271.800 73.376 C 271.360 73.039,269.290 71.750,267.200 70.513 C 265.110 69.277,262.971 67.935,262.446 67.532 C 261.921 67.130,261.195 66.800,260.833 66.800 C 260.470 66.800,259.195 66.170,258.000 65.400 C 256.805 64.630,255.531 64.000,255.169 64.000 C 254.808 64.000,253.883 63.573,253.114 63.051 C 252.345 62.530,250.745 61.797,249.558 61.424 C 248.371 61.051,246.723 60.385,245.896 59.945 C 245.069 59.505,243.269 58.865,241.896 58.523 C 240.523 58.181,239.130 57.679,238.800 57.407 C 237.944 56.702,235.691 56.002,234.240 55.990 C 233.558 55.984,231.740 55.542,230.200 55.008 C 228.660 54.474,225.510 53.753,223.200 53.406 C 220.890 53.058,217.380 52.389,215.400 51.918 C 211.949 51.097,185.996 50.413,182.400 51.048 M168.010 83.622 C 169.875 83.854,172.922 84.484,174.783 85.022 C 176.643 85.560,178.490 86.000,178.888 86.000 C 179.525 86.000,184.014 87.926,186.800 89.394 C 190.668 91.433,191.583 91.946,192.060 92.343 C 193.147 93.245,197.978 97.028,199.270 97.989 C 200.793 99.121,204.394 102.851,204.398 103.300 C 204.399 103.465,204.781 103.981,205.247 104.447 C 206.481 105.681,205.694 105.984,201.200 106.006 C 185.753 106.081,177.965 112.446,175.021 127.400 C 172.718 139.103,175.062 144.369,179.996 138.573 C 181.390 136.936,183.491 134.856,184.665 133.950 C 185.839 133.044,186.800 132.175,186.800 132.019 C 186.800 131.863,187.295 131.483,187.900 131.176 C 188.505 130.868,189.540 130.243,190.200 129.788 C 190.860 129.332,191.850 128.754,192.400 128.503 C 192.950 128.251,194.480 127.549,195.800 126.942 C 197.712 126.063,198.803 125.835,201.163 125.819 C 204.703 125.796,205.252 126.409,202.599 127.422 C 201.586 127.808,200.542 128.424,200.279 128.789 C 200.016 129.155,199.260 129.778,198.600 130.174 C 197.940 130.570,196.808 131.638,196.084 132.547 C 195.361 133.456,194.146 134.982,193.384 135.938 C 192.623 136.894,192.000 138.024,192.000 138.450 C 192.000 138.876,191.550 140.293,191.000 141.600 C 189.933 144.134,189.748 145.588,190.407 146.247 C 190.777 146.617,191.346 146.581,195.400 145.929 C 196.134 145.811,196.208 146.048,196.291 148.800 C 196.494 155.493,197.215 160.464,198.442 163.645 C 199.103 165.361,199.741 167.361,199.860 168.089 C 200.137 169.802,200.702 170.516,202.291 171.164 C 203.504 171.658,203.547 171.741,202.991 172.534 C 202.666 172.998,202.400 173.692,202.400 174.075 C 202.400 174.458,201.885 175.363,201.255 176.086 C 200.626 176.809,199.803 178.002,199.426 178.737 C 198.582 180.384,198.502 180.309,197.968 177.365 C 197.732 176.064,197.170 174.370,196.718 173.600 C 196.266 172.830,195.571 171.069,195.173 169.687 C 194.775 168.305,193.988 166.626,193.424 165.956 C 192.861 165.286,192.400 164.568,192.400 164.360 C 192.400 162.665,186.028 157.901,182.880 157.243 C 178.093 156.242,165.950 156.928,163.294 158.350 C 160.477 159.857,162.491 161.979,167.901 163.205 C 169.057 163.466,170.102 163.842,170.224 164.039 C 170.346 164.236,171.380 164.828,172.523 165.354 C 174.489 166.260,175.779 167.163,179.331 170.124 C 182.628 172.873,185.321 175.923,186.549 178.300 C 186.918 179.015,187.374 179.600,187.562 179.600 C 188.009 179.600,188.805 182.750,188.418 182.989 C 188.255 183.090,187.735 182.729,187.263 182.186 C 186.791 181.644,186.169 181.200,185.880 181.200 C 185.592 181.200,184.735 180.737,183.978 180.171 C 176.156 174.327,162.277 171.535,155.888 174.520 C 154.617 175.114,153.408 175.600,153.202 175.600 C 152.551 175.600,150.000 176.934,150.000 177.274 C 150.000 177.453,149.812 177.600,149.583 177.600 C 148.637 177.600,144.254 182.099,143.349 184.000 C 142.982 184.770,142.358 185.818,141.961 186.328 C 141.565 186.839,140.956 188.234,140.609 189.428 C 140.262 190.623,139.772 191.600,139.520 191.600 C 139.269 191.600,138.746 191.887,138.357 192.238 C 137.488 193.025,134.089 191.932,131.335 189.980 C 130.419 189.331,129.551 188.800,129.406 188.800 C 129.031 188.800,123.239 183.963,121.444 182.151 C 116.436 177.095,110.919 170.065,110.088 167.680 C 109.836 166.956,109.283 165.878,108.860 165.282 C 108.437 164.687,107.726 163.017,107.280 161.570 C 106.834 160.124,106.173 158.234,105.811 157.370 C 101.804 147.815,103.619 124.524,109.041 115.936 C 109.568 115.100,110.000 114.236,110.000 114.016 C 110.000 113.796,110.630 112.631,111.400 111.427 C 112.170 110.223,112.800 109.075,112.800 108.876 C 112.800 108.677,113.659 107.634,114.710 106.557 C 115.760 105.481,117.269 103.790,118.063 102.800 C 120.204 100.130,122.197 98.175,124.555 96.433 C 125.713 95.578,127.347 94.230,128.186 93.439 C 129.025 92.647,129.912 91.996,130.156 91.991 C 130.400 91.986,131.500 91.453,132.600 90.808 C 133.700 90.163,135.410 89.266,136.400 88.815 C 137.390 88.364,138.667 87.733,139.237 87.412 C 144.526 84.440,159.130 82.516,168.010 83.622 M151.400 107.176 C 149.397 107.521,146.855 108.825,144.986 110.466 C 143.253 111.987,141.780 112.046,138.703 110.716 C 134.691 108.982,129.939 110.355,127.338 114.000 C 125.258 116.914,125.516 120.015,127.686 118.189 C 128.333 117.645,129.093 117.200,129.377 117.200 C 129.660 117.200,130.321 116.868,130.846 116.461 C 132.790 114.956,136.671 115.103,138.438 116.749 C 138.940 117.217,139.514 117.600,139.714 117.600 C 139.913 117.600,140.603 117.975,141.247 118.434 C 143.421 119.981,145.204 119.266,147.813 115.800 C 150.357 112.420,151.199 112.000,155.427 112.000 C 159.913 112.000,160.768 111.270,158.300 109.547 C 157.585 109.047,156.903 108.500,156.784 108.331 C 156.597 108.066,153.186 106.713,153.050 106.850 C 153.022 106.878,152.280 107.024,151.400 107.176 M153.968 109.087 C 154.095 109.260,154.808 109.680,155.551 110.020 L 156.901 110.639 153.672 111.164 C 150.241 111.721,149.793 112.049,146.396 116.485 C 144.784 118.591,141.727 118.341,138.918 115.875 C 137.393 114.535,131.807 113.833,130.071 114.762 C 129.289 115.181,129.200 115.130,129.200 114.270 C 129.200 112.084,135.214 110.992,140.262 112.260 C 143.093 112.971,143.987 112.747,146.200 110.770 C 148.163 109.017,153.123 107.942,153.968 109.087 M135.100 128.670 C 134.495 128.771,134.000 128.999,134.000 129.178 C 134.000 129.976,131.254 130.583,128.072 130.488 C 124.804 130.391,122.417 131.001,121.732 132.109 C 121.265 132.866,122.929 133.600,125.115 133.600 C 126.670 133.600,127.608 133.836,128.457 134.441 C 130.585 135.956,132.390 135.887,133.932 134.231 C 134.665 133.444,135.400 132.800,135.565 132.800 C 135.730 132.800,136.106 132.350,136.400 131.800 C 136.694 131.250,137.220 130.796,137.568 130.791 C 138.440 130.779,140.200 129.371,139.716 129.072 C 139.122 128.705,136.343 128.463,135.100 128.670 M137.900 129.476 C 137.515 129.576,136.885 129.576,136.500 129.476 C 136.115 129.375,136.430 129.293,137.200 129.293 C 137.970 129.293,138.285 129.375,137.900 129.476 M134.224 132.213 C 133.796 132.536,133.330 132.800,133.188 132.800 C 133.045 132.800,132.724 133.248,132.475 133.795 L 132.021 134.790 130.636 133.850 C 129.874 133.333,128.520 132.793,127.626 132.650 C 124.449 132.143,125.953 131.600,130.500 131.613 C 134.544 131.624,134.921 131.685,134.224 132.213 M218.388 144.376 C 218.372 147.717,217.748 152.557,217.214 153.485 C 216.988 153.878,216.374 155.849,215.852 157.864 C 214.904 161.518,213.305 164.514,211.851 165.363 C 210.874 165.933,209.372 167.129,207.911 168.500 C 206.322 169.990,205.598 169.928,205.608 168.300 C 205.625 165.545,206.447 161.451,207.381 159.470 C 207.918 158.331,208.557 156.503,208.801 155.406 C 209.045 154.310,209.536 153.092,209.891 152.699 C 210.246 152.307,210.854 151.084,211.243 149.981 C 211.631 148.879,212.410 147.428,212.974 146.758 C 213.538 146.087,214.000 145.283,214.000 144.970 C 214.000 144.657,214.720 143.637,215.600 142.703 C 216.480 141.769,217.206 140.823,217.213 140.602 C 217.274 138.664,218.398 142.273,218.388 144.376 M312.200 154.322 C 316.328 156.071,316.102 156.698,311.149 157.253 C 307.523 157.658,306.716 158.147,304.582 161.225 C 304.014 162.045,302.791 163.118,301.864 163.610 L 300.179 164.504 298.064 163.352 C 296.902 162.718,295.196 161.789,294.275 161.288 C 292.564 160.356,288.800 160.331,287.820 161.246 C 286.721 162.271,285.776 161.627,285.935 159.960 C 286.202 157.167,290.383 156.155,296.576 157.384 C 300.192 158.101,300.224 158.095,302.427 156.266 C 305.178 153.982,309.409 153.140,312.200 154.322 M88.000 160.416 C 88.000 161.195,87.751 161.625,87.200 161.800 C 86.760 161.940,85.928 162.672,85.352 163.427 C 84.122 165.041,83.276 165.143,81.731 163.865 C 81.109 163.351,79.635 162.588,78.455 162.170 C 75.795 161.227,76.539 160.900,81.478 160.840 C 84.322 160.805,84.902 160.674,85.865 159.846 C 87.211 158.688,88.000 158.899,88.000 160.416 M175.800 195.574 C 175.800 196.406,172.281 197.220,169.200 197.101 C 165.786 196.969,165.574 196.037,168.800 195.345 C 171.846 194.691,175.800 194.821,175.800 195.574 M201.700 200.412 C 200.641 200.838,200.523 202.128,201.364 204.086 C 201.673 204.809,202.209 206.350,202.553 207.512 C 204.308 213.438,205.891 214.318,213.178 213.417 C 217.283 212.909,219.924 212.800,222.998 213.009 C 226.071 213.219,227.536 213.158,228.439 212.784 L 229.676 212.272 227.538 210.304 C 220.373 203.708,206.609 198.439,201.700 200.412 M191.000 202.571 C 189.071 203.281,184.992 205.739,184.000 206.788 C 183.890 206.905,182.158 208.484,180.151 210.297 C 178.144 212.110,175.804 214.630,174.951 215.897 C 174.098 217.164,173.265 218.260,173.100 218.333 C 172.935 218.407,172.800 218.644,172.800 218.860 C 172.800 219.076,172.377 219.826,171.860 220.527 C 168.378 225.245,169.513 228.096,174.502 227.164 C 177.836 226.540,181.304 225.603,181.810 225.188 C 182.035 225.003,183.115 224.552,184.210 224.185 C 187.260 223.164,196.512 218.464,197.300 217.536 C 198.251 216.416,198.183 215.110,196.956 210.945 C 196.383 208.995,195.681 206.434,195.398 205.253 C 194.589 201.881,193.944 201.488,191.000 202.571 " stroke="none" fill="#c32b3b" fill-rule="evenodd"></path><path id="path2" d="M0.000 206.600 L 0.000 413.200 200.000 413.200 L 400.000 413.200 400.000 206.600 L 400.000 0.000 200.000 0.000 L 0.000 0.000 0.000 206.600 M215.000 51.593 C 216.540 52.020,219.330 52.562,221.200 52.798 C 224.921 53.268,227.909 53.915,232.191 55.177 C 233.727 55.630,235.356 56.000,235.813 56.000 C 236.269 56.000,237.533 56.438,238.621 56.974 C 239.710 57.509,241.748 58.240,243.151 58.598 C 244.554 58.956,246.094 59.505,246.572 59.819 C 247.051 60.132,248.475 60.744,249.737 61.178 C 250.999 61.612,252.521 62.316,253.119 62.742 C 253.718 63.169,254.933 63.713,255.821 63.952 C 256.708 64.191,257.797 64.724,258.240 65.137 C 258.683 65.549,259.715 66.108,260.534 66.378 C 261.353 66.649,262.900 67.439,263.971 68.135 C 265.042 68.831,266.849 69.940,267.987 70.600 C 269.124 71.260,270.806 72.340,271.723 73.000 C 272.640 73.660,273.863 74.470,274.439 74.800 C 275.648 75.491,278.685 77.666,279.673 78.546 C 280.044 78.876,280.854 79.468,281.473 79.860 C 282.093 80.253,282.976 80.940,283.435 81.387 C 283.895 81.834,284.975 82.728,285.835 83.374 C 287.887 84.914,302.426 99.497,303.875 101.469 C 304.494 102.311,305.303 103.360,305.674 103.800 C 307.119 105.516,309.176 108.393,309.747 109.498 C 310.077 110.136,310.645 110.905,311.008 111.206 C 311.371 111.508,311.943 112.440,312.278 113.277 C 312.613 114.115,313.044 114.800,313.237 114.800 C 313.429 114.800,314.032 115.680,314.578 116.756 C 315.123 117.831,315.801 118.956,316.084 119.256 C 316.677 119.882,318.536 123.145,319.470 125.200 C 319.820 125.970,320.437 127.230,320.842 128.000 C 321.246 128.770,321.871 130.030,322.230 130.800 C 322.590 131.570,323.390 133.280,324.008 134.600 C 324.627 135.920,325.417 137.976,325.765 139.168 C 326.113 140.361,326.660 141.737,326.980 142.226 C 327.301 142.715,327.840 144.311,328.179 145.773 C 328.518 147.235,329.086 148.994,329.442 149.680 C 329.797 150.367,330.340 152.385,330.648 154.165 C 330.957 155.944,331.554 158.480,331.976 159.800 C 332.397 161.120,333.029 164.900,333.381 168.200 C 333.732 171.500,334.212 175.896,334.447 177.969 C 334.682 180.041,334.827 184.361,334.769 187.569 C 334.680 192.512,334.773 193.620,335.381 194.847 C 336.130 196.359,335.986 198.919,334.799 205.200 C 334.571 206.410,334.207 209.335,333.990 211.699 C 333.735 214.488,333.183 217.243,332.420 219.540 C 331.773 221.488,331.120 224.053,330.970 225.241 C 330.819 226.428,330.285 228.300,329.783 229.400 C 329.281 230.500,328.642 232.300,328.362 233.400 C 328.082 234.500,327.367 236.210,326.774 237.200 C 326.181 238.190,325.469 239.720,325.192 240.600 C 324.915 241.480,324.348 242.686,323.931 243.280 C 323.515 243.874,322.922 245.197,322.614 246.219 C 322.307 247.241,321.600 248.766,321.043 249.606 C 320.487 250.447,319.918 251.586,319.780 252.136 C 319.642 252.687,318.915 254.090,318.165 255.255 C 317.414 256.420,316.800 257.582,316.800 257.838 C 316.800 258.093,316.516 258.538,316.169 258.826 C 315.822 259.114,315.078 260.261,314.516 261.375 C 313.955 262.489,313.364 263.490,313.203 263.600 C 313.043 263.710,312.615 264.340,312.253 265.000 C 311.891 265.660,310.741 267.392,309.697 268.850 C 308.654 270.307,306.915 272.737,305.832 274.250 C 304.750 275.762,302.641 278.260,301.145 279.800 C 299.650 281.340,297.838 283.410,297.119 284.400 C 296.401 285.390,295.669 286.262,295.494 286.337 C 295.319 286.413,294.742 287.330,294.213 288.375 C 293.683 289.420,292.753 290.601,292.145 290.999 C 291.538 291.397,290.619 292.144,290.104 292.659 C 289.589 293.175,288.635 293.872,287.984 294.208 C 287.333 294.545,286.800 294.957,286.800 295.124 C 286.800 295.291,286.215 295.766,285.500 296.179 C 284.785 296.593,283.529 297.487,282.709 298.166 C 279.345 300.950,278.494 301.574,277.374 302.073 C 276.728 302.361,275.872 303.002,275.471 303.498 C 275.070 303.994,274.469 304.400,274.135 304.400 C 273.800 304.400,272.779 305.042,271.864 305.828 C 270.949 306.613,269.712 307.354,269.115 307.475 C 268.519 307.595,267.779 308.078,267.471 308.547 C 267.164 309.016,266.212 309.651,265.356 309.957 C 264.500 310.263,263.291 310.938,262.669 311.457 C 262.047 311.976,261.231 312.400,260.856 312.400 C 260.480 312.400,259.195 313.030,258.000 313.800 C 256.805 314.570,255.531 315.200,255.169 315.200 C 254.808 315.200,253.867 315.638,253.079 316.172 C 252.291 316.707,250.601 317.464,249.323 317.855 C 248.045 318.246,246.512 318.960,245.917 319.443 C 245.310 319.934,243.949 320.442,242.824 320.597 C 241.719 320.749,240.407 321.190,239.908 321.578 C 238.344 322.793,234.778 323.522,229.000 323.806 C 228.120 323.849,226.680 324.094,225.800 324.350 C 224.920 324.606,222.490 324.983,220.400 325.187 C 218.310 325.391,215.610 325.839,214.400 326.183 C 208.823 327.768,186.974 327.869,180.470 326.339 C 178.638 325.908,174.858 325.395,172.070 325.200 C 167.091 324.850,164.780 324.414,163.858 323.648 C 163.602 323.436,161.774 322.959,159.796 322.588 C 157.818 322.217,155.570 321.599,154.800 321.214 C 154.030 320.829,152.742 320.413,151.938 320.288 C 151.134 320.164,149.334 319.583,147.938 318.997 C 146.542 318.410,144.410 317.563,143.200 317.114 C 141.990 316.665,140.730 316.073,140.400 315.798 C 140.070 315.523,139.080 315.056,138.200 314.759 C 137.320 314.462,135.970 313.844,135.200 313.386 C 134.430 312.928,132.837 312.146,131.660 311.648 C 129.326 310.661,125.866 308.669,124.600 307.582 C 124.160 307.205,122.945 306.524,121.900 306.070 C 120.855 305.616,120.000 305.099,120.000 304.920 C 120.000 304.741,119.456 304.354,118.791 304.060 C 118.126 303.766,117.361 303.317,117.091 303.063 C 116.000 302.035,113.627 300.400,113.227 300.400 C 112.992 300.400,112.799 300.265,112.797 300.100 C 112.796 299.935,112.130 299.350,111.317 298.800 C 110.504 298.250,109.380 297.374,108.819 296.853 C 108.259 296.332,106.993 295.252,106.006 294.453 C 99.821 289.443,91.827 281.191,87.200 275.039 C 86.430 274.016,85.219 272.508,84.509 271.689 C 83.799 270.870,83.214 270.061,83.209 269.891 C 83.204 269.721,82.517 268.821,81.681 267.891 C 80.846 266.961,79.376 264.940,78.415 263.400 C 77.454 261.860,76.383 260.167,76.034 259.637 C 74.882 257.888,73.331 255.060,70.967 250.400 C 69.684 247.870,68.303 245.311,67.899 244.714 C 67.495 244.116,66.897 242.723,66.568 241.619 C 66.240 240.514,65.552 238.753,65.039 237.705 C 64.525 236.657,63.890 234.909,63.627 233.821 C 63.364 232.733,62.720 230.933,62.196 229.821 C 61.671 228.709,61.045 226.558,60.804 225.040 C 60.563 223.522,60.015 221.511,59.586 220.570 C 58.955 219.183,58.811 217.999,58.828 214.329 C 58.840 211.838,58.671 208.897,58.453 207.793 C 57.132 201.117,56.904 182.995,58.017 173.200 C 58.229 171.330,58.569 167.910,58.773 165.600 C 58.986 163.187,59.480 160.549,59.936 159.400 C 60.372 158.300,61.040 155.690,61.420 153.600 C 61.801 151.510,62.345 149.440,62.628 149.000 C 62.911 148.560,63.518 146.682,63.976 144.826 C 64.434 142.971,65.050 141.171,65.344 140.826 C 65.638 140.482,66.109 139.300,66.390 138.200 C 66.672 137.100,67.294 135.570,67.773 134.800 C 68.252 134.030,68.977 132.500,69.385 131.400 C 69.793 130.300,70.548 128.773,71.063 128.007 C 71.579 127.241,72.000 126.327,72.000 125.976 C 72.000 125.625,72.512 124.541,73.137 123.569 C 74.869 120.875,75.867 119.194,77.038 117.000 C 77.625 115.900,78.221 114.910,78.362 114.800 C 78.858 114.414,82.800 108.372,82.800 107.997 C 82.800 107.789,83.222 107.342,83.738 107.004 C 84.254 106.665,84.866 105.973,85.097 105.465 C 85.918 103.664,96.084 92.118,99.195 89.455 C 100.188 88.604,101.467 87.434,102.038 86.855 C 103.804 85.060,109.902 80.000,110.300 80.000 C 110.507 80.000,111.019 79.619,111.438 79.153 C 111.857 78.688,113.010 77.751,114.000 77.072 C 114.990 76.394,116.003 75.649,116.252 75.419 C 116.500 75.189,117.574 74.460,118.638 73.800 C 122.487 71.412,123.833 70.586,125.155 69.800 C 125.895 69.360,127.008 68.588,127.628 68.083 C 128.248 67.579,129.609 66.876,130.653 66.520 C 131.697 66.164,133.172 65.452,133.931 64.937 C 134.691 64.421,135.602 63.998,135.956 63.995 C 136.310 63.993,137.352 63.560,138.271 63.035 C 139.191 62.509,140.991 61.687,142.271 61.209 C 143.552 60.730,145.140 60.020,145.800 59.631 C 146.460 59.242,148.055 58.698,149.344 58.423 C 150.633 58.148,152.549 57.490,153.602 56.962 C 154.655 56.433,155.854 56.000,156.267 56.000 C 156.680 56.000,158.273 55.631,159.809 55.180 C 164.569 53.782,165.244 53.637,170.896 52.798 C 173.919 52.350,176.889 51.780,177.496 51.532 C 180.751 50.202,210.154 50.250,215.000 51.593 " stroke="none" fill="#f4f4f4" fill-rule="evenodd"></path><path id="path3" d="M193.100 50.698 C 195.135 50.771,198.465 50.771,200.500 50.698 C 202.535 50.625,200.870 50.566,196.800 50.566 C 192.730 50.566,191.065 50.625,193.100 50.698 M178.800 51.248 C 178.030 51.449,176.230 51.864,174.800 52.169 C 173.044 52.544,172.604 52.737,173.445 52.762 C 174.130 52.783,176.110 52.452,177.845 52.026 C 179.580 51.600,181.540 51.177,182.200 51.086 C 183.150 50.954,183.067 50.916,181.800 50.901 C 180.920 50.890,179.570 51.047,178.800 51.248 M211.000 51.203 C 212.320 51.364,213.940 51.606,214.600 51.739 C 215.391 51.899,215.254 51.791,214.200 51.422 C 213.320 51.114,211.700 50.872,210.600 50.885 L 208.600 50.909 211.000 51.203 M166.900 53.476 C 167.285 53.576,167.915 53.576,168.300 53.476 C 168.685 53.375,168.370 53.293,167.600 53.293 C 166.830 53.293,166.515 53.375,166.900 53.476 M162.681 54.253 C 162.542 54.392,161.297 54.829,159.914 55.224 C 158.531 55.620,157.696 55.956,158.058 55.972 C 158.835 56.005,164.000 54.451,164.000 54.184 C 164.000 53.909,162.971 53.962,162.681 54.253 M228.000 54.137 C 228.000 54.438,233.087 56.009,233.942 55.972 C 234.304 55.956,233.430 55.588,232.000 55.154 C 230.570 54.720,229.085 54.262,228.700 54.136 C 228.315 54.010,228.000 54.010,228.000 54.137 M152.624 57.413 C 152.196 57.736,152.027 58.000,152.247 58.000 C 152.467 58.000,152.996 57.736,153.424 57.413 C 153.851 57.090,154.020 56.825,153.800 56.825 C 153.580 56.825,153.051 57.090,152.624 57.413 M145.400 59.810 C 143.321 61.091,143.903 61.084,146.315 59.800 C 147.348 59.250,147.925 58.806,147.597 58.812 C 147.269 58.819,146.280 59.268,145.400 59.810 M245.541 59.773 C 246.498 60.338,247.488 60.799,247.741 60.799 C 248.369 60.796,245.977 59.366,244.772 59.023 C 244.238 58.871,244.583 59.208,245.541 59.773 M256.600 64.468 C 257.040 64.712,257.715 65.185,258.100 65.518 C 258.485 65.851,258.800 65.955,258.800 65.748 C 258.800 65.352,256.715 63.991,256.138 64.012 C 255.952 64.019,256.160 64.224,256.600 64.468 M127.864 67.900 C 127.069 68.505,125.436 69.626,124.235 70.392 C 123.034 71.158,122.114 71.847,122.191 71.924 C 122.372 72.105,123.780 71.352,124.476 70.703 C 124.772 70.426,125.641 69.854,126.407 69.430 C 127.173 69.007,127.890 68.546,128.000 68.407 C 128.110 68.268,128.645 67.849,129.189 67.477 C 129.733 67.105,129.983 66.800,129.744 66.800 C 129.505 66.800,128.659 67.295,127.864 67.900 M262.800 67.800 C 263.545 68.350,264.255 68.799,264.378 68.798 C 264.755 68.795,262.224 66.830,261.822 66.814 C 261.615 66.806,262.055 67.250,262.800 67.800 M264.800 68.933 C 264.800 69.130,269.087 71.750,270.400 72.355 C 271.245 72.745,271.284 72.738,270.650 72.308 C 267.465 70.149,264.800 68.611,264.800 68.933 M118.700 73.829 C 117.205 74.640,117.296 74.978,118.800 74.200 C 119.460 73.859,120.000 73.494,120.000 73.390 C 120.000 73.132,119.957 73.147,118.700 73.829 M116.329 75.319 C 116.038 75.604,114.990 76.394,114.000 77.072 C 111.881 78.526,110.227 80.195,111.322 79.774 C 111.695 79.631,112.000 79.351,112.000 79.152 C 112.000 78.953,112.953 78.181,114.117 77.436 C 115.282 76.691,116.474 75.793,116.766 75.441 C 117.403 74.674,117.078 74.584,116.329 75.319 M274.400 74.973 C 274.400 75.068,274.985 75.550,275.700 76.044 L 277.000 76.942 276.030 75.871 C 275.166 74.916,274.400 74.494,274.400 74.973 M107.800 81.858 C 106.438 83.102,106.227 83.399,107.138 82.788 C 108.817 81.663,110.634 79.995,110.158 80.015 C 109.961 80.024,108.900 80.853,107.800 81.858 M282.000 80.517 C 282.330 80.803,282.847 81.298,283.149 81.618 C 283.619 82.116,283.635 82.077,283.260 81.347 C 283.019 80.878,282.502 80.383,282.111 80.246 C 281.492 80.030,281.478 80.065,282.000 80.517 M152.600 83.802 C 148.773 84.411,140.691 86.595,139.237 87.412 C 138.667 87.733,137.390 88.364,136.400 88.815 C 135.410 89.266,133.700 90.163,132.600 90.808 C 131.500 91.453,130.400 91.986,130.156 91.991 C 129.912 91.996,129.025 92.647,128.186 93.439 C 127.347 94.230,125.713 95.578,124.555 96.433 C 122.197 98.175,120.204 100.130,118.063 102.800 C 117.269 103.790,115.760 105.481,114.710 106.557 C 113.659 107.634,112.800 108.677,112.800 108.876 C 112.800 109.075,112.170 110.223,111.400 111.427 C 110.630 112.631,110.000 113.796,110.000 114.016 C 110.000 114.236,109.568 115.100,109.041 115.936 C 103.619 124.524,101.804 147.815,105.811 157.370 C 106.173 158.234,106.834 160.124,107.280 161.570 C 107.726 163.017,108.437 164.687,108.860 165.282 C 109.283 165.878,109.836 166.956,110.088 167.680 C 110.919 170.065,116.436 177.095,121.444 182.151 C 123.239 183.963,129.031 188.800,129.406 188.800 C 129.551 188.800,130.419 189.331,131.335 189.980 C 134.089 191.932,137.488 193.025,138.357 192.238 C 138.746 191.887,139.269 191.600,139.520 191.600 C 139.772 191.600,140.262 190.623,140.609 189.428 C 140.956 188.234,141.565 186.839,141.961 186.328 C 142.358 185.818,142.982 184.770,143.349 184.000 C 144.254 182.099,148.637 177.600,149.583 177.600 C 149.812 177.600,150.000 177.453,150.000 177.274 C 150.000 176.934,152.551 175.600,153.202 175.600 C 153.408 175.600,154.617 175.114,155.888 174.520 C 162.277 171.535,176.156 174.327,183.978 180.171 C 184.735 180.737,185.592 181.200,185.880 181.200 C 186.169 181.200,186.791 181.644,187.263 182.186 C 187.735 182.729,188.255 183.090,188.418 182.989 C 188.805 182.750,188.009 179.600,187.562 179.600 C 187.374 179.600,186.918 179.015,186.549 178.300 C 185.321 175.923,182.628 172.873,179.331 170.124 C 175.779 167.163,174.489 166.260,172.523 165.354 C 171.380 164.828,170.346 164.236,170.224 164.039 C 170.102 163.842,169.057 163.466,167.901 163.205 C 163.398 162.185,162.400 161.632,162.400 160.160 C 162.400 156.145,181.306 155.263,187.020 159.011 C 189.067 160.354,192.400 163.668,192.400 164.360 C 192.400 164.568,192.861 165.286,193.424 165.956 C 193.988 166.626,194.775 168.305,195.173 169.687 C 195.571 171.069,196.266 172.830,196.718 173.600 C 197.170 174.370,197.732 176.064,197.968 177.365 C 198.502 180.309,198.582 180.384,199.426 178.737 C 199.803 178.002,200.626 176.809,201.255 176.086 C 201.885 175.363,202.400 174.458,202.400 174.075 C 202.400 173.692,202.666 172.998,202.991 172.534 C 203.547 171.741,203.504 171.658,202.291 171.164 C 200.702 170.516,200.137 169.802,199.860 168.089 C 199.741 167.361,199.103 165.361,198.442 163.645 C 197.215 160.464,196.494 155.493,196.291 148.800 C 196.208 146.048,196.134 145.811,195.400 145.929 C 191.346 146.581,190.777 146.617,190.407 146.247 C 189.748 145.588,189.933 144.134,191.000 141.600 C 191.550 140.293,192.000 138.876,192.000 138.450 C 192.000 138.024,192.623 136.894,193.384 135.938 C 194.146 134.982,195.361 133.456,196.084 132.547 C 196.808 131.638,197.940 130.570,198.600 130.174 C 199.260 129.778,200.016 129.155,200.279 128.789 C 200.542 128.424,201.586 127.808,202.599 127.422 C 205.252 126.409,204.703 125.796,201.163 125.819 C 198.803 125.835,197.712 126.063,195.800 126.942 C 194.480 127.549,192.950 128.251,192.400 128.503 C 191.850 128.754,190.860 129.332,190.200 129.788 C 189.540 130.243,188.505 130.868,187.900 131.176 C 187.295 131.483,186.800 131.863,186.800 132.019 C 186.800 132.175,185.839 133.044,184.665 133.950 C 183.491 134.856,181.390 136.936,179.996 138.573 C 175.062 144.369,172.718 139.103,175.021 127.400 C 177.965 112.446,185.753 106.081,201.200 106.006 C 205.694 105.984,206.481 105.681,205.247 104.447 C 204.781 103.981,204.399 103.465,204.398 103.300 C 204.394 102.851,200.793 99.121,199.270 97.989 C 197.978 97.028,193.147 93.245,192.060 92.343 C 191.583 91.946,190.668 91.433,186.800 89.394 C 184.014 87.926,179.525 86.000,178.888 86.000 C 178.490 86.000,176.643 85.560,174.783 85.022 C 168.485 83.202,159.479 82.707,152.600 83.802 M292.843 90.414 C 298.491 96.013,302.071 100.001,307.784 107.055 C 308.343 107.745,308.800 108.445,308.800 108.611 C 308.800 109.097,311.732 112.802,311.946 112.587 C 312.054 112.480,311.682 111.899,311.120 111.296 C 310.558 110.693,309.877 109.772,309.608 109.250 C 308.969 108.009,305.986 104.039,303.000 100.453 C 300.945 97.985,288.663 85.561,287.400 84.672 C 286.740 84.208,289.189 86.792,292.843 90.414 M99.592 89.104 C 96.343 91.895,86.885 102.503,85.420 105.000 L 84.716 106.200 85.792 105.000 C 86.383 104.340,87.405 103.080,88.061 102.200 C 90.074 99.502,93.603 95.616,97.947 91.310 C 100.228 89.049,102.028 87.202,101.947 87.204 C 101.866 87.206,100.807 88.061,99.592 89.104 M83.689 107.023 C 83.200 107.365,82.800 107.843,82.800 108.085 C 82.800 108.327,82.334 109.171,81.764 109.962 L 80.728 111.400 81.864 110.119 C 83.276 108.525,84.908 106.400,84.719 106.400 C 84.642 106.400,84.178 106.680,83.689 107.023 M154.833 107.412 C 155.787 107.748,156.665 108.162,156.784 108.331 C 156.903 108.500,157.585 109.047,158.300 109.547 C 160.768 111.270,159.913 112.000,155.427 112.000 C 151.199 112.000,150.357 112.420,147.813 115.800 C 145.204 119.266,143.421 119.981,141.247 118.434 C 140.603 117.975,139.913 117.600,139.714 117.600 C 139.514 117.600,138.940 117.217,138.438 116.749 C 136.671 115.103,132.790 114.956,130.846 116.461 C 130.321 116.868,129.660 117.200,129.377 117.200 C 129.093 117.200,128.333 117.645,127.686 118.189 C 125.516 120.015,125.258 116.914,127.338 114.000 C 129.939 110.355,134.691 108.982,138.703 110.716 C 141.780 112.046,143.253 111.987,144.986 110.466 C 146.855 108.825,149.397 107.521,151.400 107.176 C 152.280 107.024,153.022 106.878,153.050 106.850 C 153.077 106.823,153.880 107.075,154.833 107.412 M79.820 112.762 C 79.489 113.401,78.968 114.175,78.661 114.482 C 78.355 114.788,77.808 115.660,77.446 116.420 C 77.085 117.179,77.016 117.461,77.294 117.046 C 77.572 116.632,78.180 115.822,78.644 115.246 C 79.587 114.076,80.930 111.600,80.621 111.600 C 80.511 111.600,80.150 112.123,79.820 112.762 M314.005 116.222 C 313.997 116.924,316.421 120.512,316.709 120.224 C 316.856 120.077,316.771 119.829,316.520 119.674 C 316.268 119.518,315.600 118.583,315.036 117.596 C 314.471 116.608,314.007 115.990,314.005 116.222 M75.996 118.897 C 74.826 120.656,74.736 120.982,75.746 119.800 C 76.637 118.757,77.037 118.000,76.696 118.000 C 76.639 118.000,76.324 118.404,75.996 118.897 M318.250 123.589 C 319.078 125.122,319.827 126.306,319.915 126.219 C 320.100 126.034,317.224 120.800,316.937 120.800 C 316.831 120.800,317.421 122.055,318.250 123.589 M73.300 123.336 C 72.585 124.469,72.015 125.666,72.033 125.998 C 72.051 126.329,72.339 125.970,72.674 125.200 C 73.008 124.430,73.417 123.710,73.581 123.600 C 73.975 123.337,74.902 121.568,74.732 121.404 C 74.660 121.334,74.015 122.204,73.300 123.336 M70.969 128.129 C 69.904 129.777,68.701 132.834,68.999 133.132 C 69.127 133.260,69.347 132.925,69.488 132.387 C 69.628 131.849,70.255 130.436,70.881 129.247 C 72.162 126.811,72.210 126.209,70.969 128.129 M320.000 127.362 C 320.000 127.524,320.527 128.679,321.171 129.928 C 323.722 134.874,324.714 137.095,325.342 139.258 C 326.181 142.145,327.991 146.058,327.996 144.994 C 327.998 144.551,327.619 143.477,327.153 142.607 C 326.687 141.738,326.041 140.120,325.719 139.013 C 325.396 137.906,324.627 135.920,324.008 134.600 C 323.390 133.280,322.588 131.570,322.226 130.800 C 321.056 128.313,320.000 126.682,320.000 127.362 M139.716 129.072 C 140.200 129.371,138.440 130.779,137.568 130.791 C 137.220 130.796,136.694 131.250,136.400 131.800 C 136.106 132.350,135.730 132.800,135.565 132.800 C 135.400 132.800,134.665 133.444,133.932 134.231 C 132.390 135.887,130.585 135.956,128.457 134.441 C 127.608 133.836,126.670 133.600,125.115 133.600 C 122.929 133.600,121.265 132.866,121.732 132.109 C 122.417 131.001,124.804 130.391,128.072 130.488 C 131.254 130.583,134.000 129.976,134.000 129.178 C 134.000 128.479,138.618 128.393,139.716 129.072 M67.646 134.926 C 67.181 135.679,66.802 136.543,66.805 136.847 C 66.807 137.151,67.262 136.609,67.814 135.643 C 69.007 133.557,68.865 132.953,67.646 134.926 M66.194 138.871 C 66.038 139.602,65.684 140.470,65.406 140.800 C 64.739 141.593,63.890 144.275,64.108 144.903 C 64.202 145.177,64.420 144.770,64.592 144.000 C 64.764 143.230,65.236 142.177,65.642 141.659 C 66.387 140.709,67.073 138.140,66.686 137.753 C 66.571 137.637,66.349 138.141,66.194 138.871 M217.213 140.602 C 217.206 140.823,216.480 141.769,215.600 142.703 C 214.720 143.637,214.000 144.657,214.000 144.970 C 214.000 145.283,213.538 146.087,212.974 146.758 C 212.410 147.428,211.631 148.879,211.243 149.981 C 210.854 151.084,210.246 152.307,209.891 152.699 C 209.536 153.092,209.045 154.310,208.801 155.406 C 208.557 156.503,207.918 158.331,207.381 159.470 C 206.447 161.451,205.625 165.545,205.608 168.300 C 205.598 169.928,206.322 169.990,207.911 168.500 C 209.372 167.129,210.874 165.933,211.851 165.363 C 213.305 164.514,214.904 161.518,215.852 157.864 C 216.374 155.849,216.988 153.878,217.214 153.485 C 218.319 151.565,218.766 142.236,217.813 140.976 C 217.490 140.549,217.220 140.381,217.213 140.602 M63.654 146.215 C 63.625 146.664,63.240 147.737,62.800 148.600 C 62.360 149.463,62.002 150.446,62.005 150.785 C 62.007 151.123,62.469 150.446,63.030 149.280 C 63.591 148.114,63.974 146.764,63.880 146.280 C 63.722 145.470,63.705 145.465,63.654 146.215 M328.017 146.800 C 328.012 147.350,328.430 148.706,328.946 149.814 C 329.461 150.921,330.033 152.721,330.216 153.814 C 330.400 154.906,330.610 155.440,330.684 155.000 C 330.830 154.131,330.129 151.465,328.843 148.000 C 328.281 146.487,328.023 146.112,328.017 146.800 M61.237 154.400 C 60.972 156.050,60.390 158.300,59.944 159.400 C 59.442 160.639,59.078 162.618,58.987 164.600 L 58.841 167.800 59.231 164.659 C 59.446 162.931,59.875 161.028,60.185 160.429 C 60.830 159.182,62.139 152.607,61.887 151.882 C 61.795 151.617,61.502 152.750,61.237 154.400 M330.823 157.000 C 330.816 157.440,331.250 159.150,331.787 160.800 C 332.325 162.450,332.770 163.440,332.777 163.000 C 332.784 162.560,332.350 160.850,331.813 159.200 C 331.275 157.550,330.830 156.560,330.823 157.000 M333.049 168.600 C 333.161 170.800,333.419 174.130,333.623 176.000 C 333.827 177.870,333.998 182.460,334.003 186.200 C 334.009 190.739,334.141 192.801,334.400 192.400 C 334.613 192.070,334.792 189.460,334.798 186.600 C 334.808 181.504,334.565 178.450,333.416 169.200 L 332.845 164.600 333.049 168.600 M58.258 170.482 C 57.099 178.827,56.974 197.132,58.023 204.800 C 59.173 213.203,59.091 212.748,59.136 211.000 C 59.159 210.120,58.916 206.160,58.597 202.200 C 57.903 193.585,57.847 184.548,58.432 175.664 C 58.844 169.394,58.760 166.867,58.258 170.482 M168.800 195.345 C 167.338 195.659,166.600 196.016,166.600 196.409 C 166.600 197.216,171.111 197.382,173.800 196.674 C 178.483 195.441,173.958 194.238,168.800 195.345 " stroke="none" fill="#f5bd29" fill-rule="evenodd"></path><path id="path4" d="M333.499 194.047 C 332.989 194.935,332.801 196.150,332.803 198.532 C 332.809 205.123,331.957 212.085,330.984 213.400 C 330.317 214.302,330.028 215.417,329.822 217.886 C 329.568 220.932,329.447 221.273,328.174 222.546 C 327.418 223.302,326.800 224.323,326.800 224.815 C 326.800 225.698,326.787 225.696,325.736 224.645 C 324.710 223.619,324.548 223.588,321.236 223.783 C 313.369 224.246,308.288 224.326,302.989 224.070 C 298.221 223.841,297.168 223.899,295.989 224.459 C 295.065 224.897,294.374 224.997,293.926 224.759 C 292.383 223.937,292.000 224.297,292.000 226.571 C 292.000 227.968,292.214 228.957,292.600 229.343 C 293.392 230.134,293.370 232.968,292.564 234.199 C 291.798 235.369,291.899 237.311,293.160 245.600 C 293.955 250.825,294.051 253.124,294.121 268.800 C 294.212 288.956,294.417 287.832,290.002 291.400 C 283.711 296.484,278.042 300.727,276.350 301.619 C 275.828 301.894,275.040 302.464,274.600 302.886 C 273.581 303.861,269.731 306.400,269.270 306.400 C 269.077 306.400,268.128 306.976,267.160 307.680 C 266.192 308.384,263.600 309.876,261.400 310.995 C 259.200 312.115,256.950 313.320,256.400 313.672 C 255.850 314.025,254.680 314.558,253.800 314.857 C 252.920 315.156,251.590 315.805,250.844 316.300 C 250.098 316.795,249.172 317.200,248.785 317.200 C 248.398 317.200,247.047 317.744,245.784 318.409 C 244.520 319.073,242.657 319.825,241.643 320.078 C 240.629 320.332,238.810 320.984,237.600 321.527 C 234.905 322.736,230.795 322.967,229.793 321.964 C 229.134 321.306,229.211 320.302,230.419 313.800 C 232.023 305.161,231.994 290.094,230.358 282.600 C 230.118 281.500,229.675 279.430,229.372 278.000 C 228.124 272.092,226.524 266.865,225.187 264.331 C 224.761 263.524,224.025 261.814,223.551 260.531 C 223.077 259.249,221.835 257.017,220.791 255.570 C 219.747 254.124,218.583 252.341,218.204 251.608 C 217.825 250.875,217.159 249.898,216.724 249.438 C 216.288 248.977,215.653 248.060,215.312 247.400 C 214.971 246.740,214.445 246.055,214.143 245.879 C 213.841 245.702,213.241 244.892,212.810 244.079 C 212.378 243.265,211.204 241.729,210.202 240.663 C 209.199 239.598,208.043 238.068,207.632 237.263 C 207.221 236.459,206.499 235.451,206.028 235.025 C 205.557 234.599,204.834 233.489,204.423 232.559 C 204.012 231.629,203.313 230.675,202.870 230.438 C 202.427 230.201,201.946 229.465,201.801 228.803 C 201.629 228.020,201.290 227.600,200.830 227.600 C 200.140 227.600,198.800 226.435,198.800 225.835 C 198.800 225.669,198.161 224.913,197.380 224.154 L 195.959 222.775 194.680 223.673 C 193.976 224.167,193.340 224.713,193.267 224.886 C 193.052 225.392,191.011 225.248,189.506 224.618 C 188.154 224.054,188.082 224.071,186.982 225.218 C 186.168 226.068,185.473 226.400,184.505 226.400 C 183.766 226.400,182.653 226.662,182.034 226.982 C 180.698 227.673,179.586 227.895,175.661 228.251 C 173.749 228.424,172.491 228.749,172.061 229.179 C 171.697 229.543,170.917 230.143,170.326 230.513 C 169.490 231.036,169.195 231.608,168.996 233.092 C 168.591 236.117,167.794 238.159,165.968 240.847 L 164.269 243.349 163.152 242.011 C 162.538 241.275,161.920 240.144,161.778 239.499 C 161.636 238.853,160.988 237.468,160.337 236.422 C 159.566 235.181,159.076 233.761,158.930 232.341 C 158.610 229.240,154.718 225.200,152.050 225.200 C 151.387 225.200,150.243 224.844,149.506 224.410 C 148.324 223.712,145.603 223.437,145.601 224.014 C 145.600 224.132,145.285 224.255,144.900 224.288 C 144.515 224.320,143.570 224.462,142.800 224.603 C 140.632 224.999,137.843 225.135,137.400 224.865 C 136.815 224.508,135.838 224.549,135.551 224.941 C 135.414 225.129,134.893 225.064,134.393 224.796 C 133.564 224.353,132.179 224.399,129.700 224.953 C 129.205 225.064,128.800 224.974,128.800 224.754 C 128.800 224.491,120.459 224.358,104.500 224.368 C 77.577 224.384,76.452 224.354,71.600 223.486 C 69.730 223.152,68.106 223.029,67.992 223.214 C 67.547 223.932,65.427 224.480,65.242 223.925 C 65.146 223.636,64.570 222.934,63.962 222.366 C 63.081 221.541,62.727 220.653,62.223 217.994 C 61.874 216.158,61.547 214.634,61.495 214.607 C 61.443 214.580,60.911 214.252,60.314 213.879 C 59.717 213.506,59.132 213.200,59.014 213.200 C 58.411 213.200,58.857 218.968,59.583 220.562 C 60.013 221.507,60.563 223.522,60.804 225.040 C 61.045 226.558,61.671 228.709,62.196 229.821 C 62.720 230.933,63.364 232.733,63.627 233.821 C 63.890 234.909,64.525 236.657,65.039 237.705 C 65.552 238.753,66.240 240.514,66.568 241.619 C 66.897 242.723,67.495 244.116,67.899 244.714 C 68.303 245.311,69.684 247.870,70.967 250.400 C 73.331 255.060,74.882 257.888,76.034 259.637 C 76.383 260.167,77.454 261.860,78.415 263.400 C 79.376 264.940,80.846 266.961,81.681 267.891 C 82.517 268.821,83.204 269.721,83.209 269.891 C 83.214 270.061,83.799 270.870,84.509 271.689 C 85.219 272.508,86.430 274.016,87.200 275.039 C 91.827 281.191,99.821 289.443,106.006 294.453 C 106.993 295.252,108.259 296.332,108.819 296.853 C 109.380 297.374,110.504 298.250,111.317 298.800 C 112.130 299.350,112.796 299.935,112.797 300.100 C 112.799 300.265,112.992 300.400,113.227 300.400 C 113.627 300.400,116.000 302.035,117.091 303.063 C 117.361 303.317,118.126 303.766,118.791 304.060 C 119.456 304.354,120.000 304.741,120.000 304.920 C 120.000 305.099,120.855 305.616,121.900 306.070 C 122.945 306.524,124.160 307.205,124.600 307.582 C 125.866 308.669,129.326 310.661,131.660 311.648 C 132.837 312.146,134.430 312.928,135.200 313.386 C 135.970 313.844,137.320 314.462,138.200 314.759 C 139.080 315.056,140.070 315.523,140.400 315.798 C 140.730 316.073,141.990 316.665,143.200 317.114 C 144.410 317.563,146.542 318.410,147.938 318.997 C 149.334 319.583,151.134 320.164,151.938 320.288 C 152.742 320.413,154.030 320.829,154.800 321.214 C 155.570 321.599,157.818 322.217,159.796 322.588 C 161.774 322.959,163.602 323.436,163.858 323.648 C 164.780 324.414,167.091 324.850,172.070 325.200 C 174.858 325.395,178.638 325.908,180.470 326.339 C 186.974 327.869,208.823 327.768,214.400 326.183 C 215.610 325.839,218.310 325.391,220.400 325.187 C 222.490 324.983,224.920 324.606,225.800 324.350 C 226.680 324.094,228.120 323.849,229.000 323.806 C 234.778 323.522,238.344 322.793,239.908 321.578 C 240.407 321.190,241.719 320.749,242.824 320.597 C 243.949 320.442,245.310 319.934,245.917 319.443 C 246.512 318.960,248.045 318.246,249.323 317.855 C 250.601 317.464,252.291 316.707,253.079 316.172 C 253.867 315.638,254.808 315.200,255.169 315.200 C 255.531 315.200,256.805 314.570,258.000 313.800 C 259.195 313.030,260.480 312.400,260.856 312.400 C 261.231 312.400,262.047 311.976,262.669 311.457 C 263.291 310.938,264.500 310.263,265.356 309.957 C 266.212 309.651,267.164 309.016,267.471 308.547 C 267.779 308.078,268.519 307.595,269.115 307.475 C 269.712 307.354,270.949 306.613,271.864 305.828 C 272.779 305.042,273.800 304.400,274.135 304.400 C 274.469 304.400,275.070 303.994,275.471 303.498 C 275.872 303.002,276.728 302.361,277.374 302.073 C 278.494 301.574,279.345 300.950,282.709 298.166 C 283.529 297.487,284.785 296.593,285.500 296.179 C 286.215 295.766,286.800 295.291,286.800 295.124 C 286.800 294.957,287.333 294.545,287.984 294.208 C 288.635 293.872,289.589 293.175,290.104 292.659 C 290.619 292.144,291.538 291.397,292.145 290.999 C 292.753 290.601,293.683 289.420,294.213 288.375 C 294.742 287.330,295.319 286.413,295.494 286.337 C 295.669 286.262,296.401 285.390,297.119 284.400 C 297.838 283.410,299.650 281.340,301.145 279.800 C 302.641 278.260,304.750 275.762,305.832 274.250 C 306.915 272.737,308.654 270.307,309.697 268.850 C 310.741 267.392,311.891 265.660,312.253 265.000 C 312.615 264.340,313.043 263.710,313.203 263.600 C 313.364 263.490,313.955 262.489,314.516 261.375 C 315.078 260.261,315.822 259.114,316.169 258.826 C 316.516 258.538,316.800 258.093,316.800 257.838 C 316.800 257.582,317.414 256.420,318.165 255.255 C 318.915 254.090,319.642 252.687,319.780 252.136 C 319.918 251.586,320.487 250.447,321.043 249.606 C 321.600 248.766,322.307 247.241,322.614 246.219 C 322.922 245.197,323.515 243.874,323.931 243.280 C 324.348 242.686,324.915 241.480,325.192 240.600 C 325.469 239.720,326.181 238.190,326.774 237.200 C 327.367 236.210,328.082 234.500,328.362 233.400 C 328.642 232.300,329.281 230.500,329.783 229.400 C 330.285 228.300,330.819 226.428,330.970 225.241 C 331.120 224.053,331.773 221.488,332.420 219.540 C 333.183 217.243,333.735 214.488,333.990 211.699 C 334.207 209.335,334.569 206.410,334.796 205.200 C 336.196 197.722,336.238 196.200,335.097 194.315 L 334.198 192.830 333.499 194.047 M226.094 222.283 C 225.596 222.379,225.293 222.627,225.422 222.835 C 225.550 223.043,225.823 223.109,226.028 222.983 C 226.232 222.856,226.400 222.916,226.400 223.115 C 226.400 223.696,227.856 225.211,228.141 224.926 C 228.910 224.157,227.878 221.398,227.067 222.054 C 227.030 222.084,226.592 222.187,226.094 222.283 M219.929 223.977 C 220.059 225.340,220.224 225.571,221.140 225.677 C 221.968 225.773,222.228 226.046,222.329 226.924 C 222.400 227.542,222.760 228.151,223.129 228.278 C 223.498 228.405,224.250 228.929,224.800 229.443 C 225.350 229.957,226.295 230.841,226.900 231.407 C 227.505 231.973,228.000 232.698,228.000 233.018 C 228.000 233.338,228.273 233.600,228.606 233.600 C 228.939 233.600,229.536 234.133,229.932 234.784 C 230.328 235.436,231.115 236.333,231.681 236.778 C 232.247 237.223,232.824 238.040,232.963 238.594 C 233.102 239.147,233.475 239.600,233.794 239.600 C 234.112 239.600,234.579 240.005,234.832 240.500 C 235.085 240.995,236.068 242.210,237.016 243.200 C 238.709 244.969,240.800 248.417,240.800 249.440 C 240.800 249.726,241.030 250.104,241.312 250.280 C 242.511 251.029,245.808 256.215,248.253 261.200 C 248.846 262.410,249.469 263.493,249.637 263.606 C 250.093 263.913,253.999 273.685,253.999 274.519 C 254.000 274.915,254.382 275.995,254.848 276.919 C 255.692 278.591,255.878 279.330,256.759 284.515 C 257.141 286.762,257.442 287.429,258.510 288.388 C 260.177 289.885,260.181 289.879,261.370 284.000 C 261.927 281.250,262.633 278.190,262.941 277.200 C 263.248 276.210,263.622 274.050,263.772 272.400 C 264.067 269.151,264.529 266.359,265.394 262.600 C 266.145 259.334,266.906 243.083,266.405 241.000 C 266.193 240.120,265.899 237.729,265.750 235.687 C 265.497 232.202,265.414 231.935,264.394 231.333 C 263.403 230.747,263.343 230.578,263.707 229.393 C 264.016 228.385,263.959 227.801,263.453 226.785 C 263.094 226.066,262.800 224.774,262.800 223.915 C 262.800 222.959,262.642 222.450,262.393 222.604 C 262.170 222.742,262.083 223.011,262.200 223.200 C 262.996 224.488,257.474 225.417,256.257 224.200 C 255.317 223.260,253.765 223.465,252.907 224.643 L 252.147 225.686 250.878 224.417 C 250.180 223.718,249.431 223.257,249.213 223.392 C 248.995 223.527,248.472 223.453,248.051 223.227 C 247.084 222.710,245.409 223.913,245.037 225.394 C 244.592 227.169,243.327 226.684,242.711 224.503 C 242.141 222.487,241.309 221.948,240.308 222.949 C 239.395 223.863,237.526 223.971,237.700 223.100 C 237.763 222.785,237.229 222.553,236.258 222.473 C 234.546 222.333,234.353 223.084,235.918 223.792 C 239.206 225.277,236.288 226.548,231.400 225.759 C 230.740 225.652,228.867 225.572,227.238 225.580 C 225.609 225.588,224.055 225.411,223.784 225.187 C 223.514 224.963,222.642 224.755,221.846 224.725 C 220.537 224.676,220.400 224.563,220.400 223.535 C 220.400 222.911,220.260 222.400,220.089 222.400 C 219.919 222.400,219.847 223.110,219.929 223.977 " stroke="none" fill="#6fb3f7" fill-rule="evenodd"></path></g></svg>